{"glyphs":{"0":{"ha":1055,"x_min":0,"x_max":944,"o":"m 500 333 l 500 389 l 555 389 l 555 500 l 611 500 l 611 667 l 667 667 l 667 722 l 611 722 l 611 667 l 555 667 l 555 611 l 500 611 l 500 555 l 444 555 l 444 500 l 389 500 l 389 444 l 333 444 l 333 389 l 389 389 l 389 333 l 500 333 m 333 667 l 333 722 l 389 722 l 389 777 l 444 777 l 444 833 l 500 833 l 500 888 l 555 888 l 555 1000 l 500 1000 l 500 1055 l 444 1055 l 444 1000 l 389 1000 l 389 888 l 333 888 l 333 722 l 277 722 l 277 667 l 333 667 m 277 0 l 277 55 l 166 55 l 166 111 l 111 111 l 111 166 l 55 166 l 55 277 l 0 277 l 0 944 l 55 944 l 55 1111 l 111 1111 l 111 1222 l 166 1222 l 166 1278 l 222 1278 l 222 1333 l 333 1333 l 333 1389 l 555 1389 l 555 1333 l 667 1333 l 667 1278 l 722 1278 l 722 1222 l 777 1222 l 777 1166 l 833 1166 l 833 1055 l 888 1055 l 888 944 l 944 944 l 944 444 l 888 444 l 888 333 l 833 333 l 833 222 l 777 222 l 777 166 l 722 166 l 722 111 l 667 111 l 667 55 l 555 55 l 555 0 l 277 0 z "},"1":{"ha":611,"x_min":0,"x_max":500,"o":"m 389 -111 l 389 -55 l 277 -55 l 277 0 l 166 0 l 166 944 l 111 944 l 111 888 l 55 888 l 55 833 l 0 833 l 0 1222 l 55 1222 l 55 1278 l 111 1278 l 111 1333 l 166 1333 l 166 1389 l 500 1389 l 500 -111 l 389 -111 z "},"2":{"ha":888,"x_min":0,"x_max":777,"o":"m 0 0 l 0 389 l 55 389 l 55 500 l 111 500 l 111 555 l 166 555 l 166 611 l 222 611 l 222 667 l 277 667 l 277 722 l 333 722 l 333 777 l 389 777 l 389 888 l 444 888 l 444 1000 l 333 1000 l 333 833 l 0 833 l 0 1111 l 55 1111 l 55 1222 l 111 1222 l 111 1278 l 222 1278 l 222 1333 l 611 1333 l 611 1278 l 722 1278 l 722 1222 l 777 1222 l 777 833 l 722 833 l 722 722 l 667 722 l 667 611 l 611 611 l 611 555 l 555 555 l 555 500 l 500 500 l 500 444 l 444 444 l 444 389 l 389 389 l 389 333 l 333 333 l 333 277 l 777 277 l 777 0 l 0 0 z "},"3":{"ha":1000,"x_min":0,"x_max":888,"o":"m 111 0 l 111 277 l 389 277 l 389 333 l 500 333 l 500 389 l 555 389 l 555 444 l 611 444 l 611 500 l 277 500 l 277 555 l 222 555 l 222 777 l 277 777 l 277 833 l 333 833 l 333 888 l 389 888 l 389 944 l 555 944 l 555 1000 l 0 1000 l 0 1111 l 55 1111 l 55 1222 l 111 1222 l 111 1333 l 888 1333 l 888 1000 l 833 1000 l 833 944 l 777 944 l 777 888 l 722 888 l 722 833 l 667 833 l 667 777 l 833 777 l 833 722 l 888 722 l 888 277 l 833 277 l 833 222 l 777 222 l 777 166 l 722 166 l 722 111 l 667 111 l 667 55 l 555 55 l 555 0 l 111 0 z "},"4":{"ha":1111,"x_min":0,"x_max":1000,"o":"m 555 555 l 555 944 l 500 944 l 500 833 l 444 833 l 444 722 l 389 722 l 389 611 l 333 611 l 333 555 l 555 555 m 777 -111 l 777 -55 l 667 -55 l 667 0 l 555 0 l 555 277 l 0 277 l 0 611 l 55 611 l 55 722 l 111 722 l 111 833 l 166 833 l 166 944 l 222 944 l 222 1055 l 277 1055 l 277 1166 l 333 1166 l 333 1278 l 389 1278 l 389 1389 l 444 1389 l 444 1499 l 777 1499 l 777 1389 l 500 1389 l 500 1166 l 555 1166 l 555 1333 l 888 1333 l 888 555 l 1000 555 l 1000 277 l 888 277 l 888 -111 l 777 -111 z "},"5":{"ha":1111,"x_min":0,"x_max":1000,"o":"m 166 0 l 166 277 l 611 277 l 611 333 l 667 333 l 667 555 l 166 555 l 166 611 l 111 611 l 111 944 l 222 944 l 222 1000 l 0 1000 l 0 1111 l 55 1111 l 55 1222 l 111 1222 l 111 1333 l 944 1333 l 944 1222 l 888 1222 l 888 1111 l 833 1111 l 833 1000 l 444 1000 l 444 833 l 888 833 l 888 777 l 944 777 l 944 722 l 1000 722 l 1000 277 l 944 277 l 944 166 l 888 166 l 888 111 l 833 111 l 833 55 l 777 55 l 777 0 l 166 0 z "},"6":{"ha":1055,"x_min":0,"x_max":944,"o":"m 611 277 l 611 333 l 667 333 l 667 500 l 611 500 l 611 555 l 500 555 l 500 500 l 444 500 l 444 444 l 389 444 l 389 333 l 444 333 l 444 277 l 611 277 m 333 0 l 333 55 l 222 55 l 222 111 l 166 111 l 166 166 l 111 166 l 111 222 l 55 222 l 55 333 l 0 333 l 0 833 l 55 833 l 55 944 l 111 944 l 111 1055 l 166 1055 l 166 1166 l 222 1166 l 222 1222 l 277 1222 l 277 1278 l 333 1278 l 333 1333 l 389 1333 l 389 1389 l 444 1389 l 444 1444 l 555 1444 l 555 1389 l 611 1389 l 611 1333 l 667 1333 l 667 1278 l 722 1278 l 722 1222 l 667 1222 l 667 1166 l 611 1166 l 611 1111 l 555 1111 l 555 1055 l 500 1055 l 500 1000 l 444 1000 l 444 944 l 389 944 l 389 833 l 333 833 l 333 722 l 389 722 l 389 777 l 500 777 l 500 833 l 722 833 l 722 777 l 833 777 l 833 722 l 888 722 l 888 611 l 944 611 l 944 277 l 888 277 l 888 166 l 833 166 l 833 111 l 777 111 l 777 55 l 667 55 l 667 0 l 333 0 z "},"7":{"ha":1055,"x_min":0,"x_max":944,"o":"m 222 0 l 222 166 l 277 166 l 277 333 l 333 333 l 333 500 l 389 500 l 389 667 l 444 667 l 444 833 l 500 833 l 500 944 l 667 944 l 667 1000 l 0 1000 l 0 1111 l 55 1111 l 55 1222 l 111 1222 l 111 1333 l 944 1333 l 944 1000 l 888 1000 l 888 833 l 833 833 l 833 667 l 777 667 l 777 500 l 722 500 l 722 333 l 667 333 l 667 166 l 611 166 l 611 0 l 222 0 z "},"8":{"ha":1055,"x_min":0,"x_max":944,"o":"m 555 277 l 555 333 l 611 333 l 611 389 l 555 389 l 555 444 l 500 444 l 500 500 l 444 500 l 444 444 l 389 444 l 389 389 l 333 389 l 333 333 l 389 333 l 389 277 l 555 277 m 500 888 l 500 944 l 555 944 l 555 1000 l 611 1000 l 611 1055 l 555 1055 l 555 1111 l 444 1111 l 444 1055 l 389 1055 l 389 944 l 444 944 l 444 888 l 500 888 m 222 0 l 222 55 l 111 55 l 111 111 l 55 111 l 55 166 l 0 166 l 0 389 l 55 389 l 55 500 l 111 500 l 111 555 l 166 555 l 166 611 l 222 611 l 222 667 l 277 667 l 277 722 l 222 722 l 222 777 l 166 777 l 166 833 l 111 833 l 111 944 l 55 944 l 55 1166 l 111 1166 l 111 1278 l 166 1278 l 166 1333 l 222 1333 l 222 1389 l 333 1389 l 333 1444 l 722 1444 l 722 1389 l 833 1389 l 833 1333 l 888 1333 l 888 1278 l 944 1278 l 944 1000 l 888 1000 l 888 888 l 833 888 l 833 833 l 777 833 l 777 777 l 722 777 l 722 722 l 777 722 l 777 667 l 833 667 l 833 611 l 888 611 l 888 500 l 944 500 l 944 277 l 888 277 l 888 166 l 833 166 l 833 111 l 777 111 l 777 55 l 611 55 l 611 0 l 222 0 z "},"9":{"ha":1055,"x_min":0,"x_max":944,"o":"m 611 777 l 611 944 l 555 944 l 555 1000 l 500 1000 l 500 1055 l 389 1055 l 389 1000 l 333 1000 l 333 833 l 389 833 l 389 777 l 611 777 m 555 -55 l 555 0 l 444 0 l 444 55 l 333 55 l 333 111 l 389 111 l 389 222 l 444 222 l 444 333 l 500 333 l 500 444 l 555 444 l 555 500 l 222 500 l 222 555 l 111 555 l 111 611 l 55 611 l 55 722 l 0 722 l 0 1055 l 55 1055 l 55 1166 l 111 1166 l 111 1222 l 166 1222 l 166 1278 l 222 1278 l 222 1333 l 333 1333 l 333 1389 l 611 1389 l 611 1333 l 722 1333 l 722 1278 l 777 1278 l 777 1222 l 833 1222 l 833 1166 l 888 1166 l 888 1055 l 944 1055 l 944 667 l 888 667 l 888 444 l 833 444 l 833 277 l 777 277 l 777 166 l 722 166 l 722 55 l 667 55 l 667 -55 l 555 -55 z "}," ":{"ha":333,"x_min":0,"x_max":0,"o":""},"!":{"ha":444,"x_min":0,"x_max":333,"o":"m 222 -111 l 222 -55 l 111 -55 l 111 0 l 0 0 l 0 333 l 111 333 l 111 277 l 222 277 l 222 222 l 333 222 l 333 -111 l 222 -111 m 222 333 l 222 389 l 111 389 l 111 444 l 0 444 l 0 1499 l 111 1499 l 111 1444 l 222 1444 l 222 1389 l 333 1389 l 333 333 l 222 333 z "},"\"":{"ha":833,"x_min":0,"x_max":722,"o":"m 55 1000 l 55 1111 l 0 1111 l 0 1499 l 333 1499 l 333 1111 l 277 1111 l 277 1000 l 55 1000 m 444 1000 l 444 1111 l 389 1111 l 389 1499 l 722 1499 l 722 1111 l 667 1111 l 667 1000 l 444 1000 z "},"#":{"ha":1222,"x_min":0,"x_max":1111,"o":"m 611 555 l 611 722 l 500 722 l 500 555 l 611 555 m 389 0 l 389 55 l 277 55 l 277 111 l 166 111 l 166 277 l 0 277 l 0 555 l 166 555 l 166 722 l 0 722 l 0 1000 l 166 1000 l 166 1278 l 277 1278 l 277 1222 l 389 1222 l 389 1166 l 500 1166 l 500 1000 l 611 1000 l 611 1278 l 722 1278 l 722 1222 l 833 1222 l 833 1166 l 944 1166 l 944 1000 l 1111 1000 l 1111 722 l 944 722 l 944 555 l 1111 555 l 1111 277 l 944 277 l 944 0 l 833 0 l 833 55 l 722 55 l 722 111 l 611 111 l 611 277 l 500 277 l 500 0 l 389 0 z "},"$":{"ha":1000,"x_min":0,"x_max":888,"o":"m 500 -222 l 500 -166 l 389 -166 l 389 -111 l 277 -111 l 277 55 l 166 55 l 166 111 l 0 111 l 0 222 l 55 222 l 55 333 l 111 333 l 111 444 l 277 444 l 277 389 l 500 389 l 500 444 l 555 444 l 555 500 l 500 500 l 500 555 l 389 555 l 389 611 l 222 611 l 222 667 l 111 667 l 111 722 l 55 722 l 55 777 l 0 777 l 0 1111 l 55 1111 l 55 1222 l 111 1222 l 111 1278 l 166 1278 l 166 1333 l 277 1333 l 277 1666 l 389 1666 l 389 1611 l 500 1611 l 500 1555 l 611 1555 l 611 1389 l 722 1389 l 722 1333 l 888 1333 l 888 1222 l 833 1222 l 833 1111 l 777 1111 l 777 1000 l 611 1000 l 611 1055 l 389 1055 l 389 1000 l 333 1000 l 333 944 l 389 944 l 389 888 l 500 888 l 500 833 l 611 833 l 611 777 l 722 777 l 722 722 l 777 722 l 777 667 l 833 667 l 833 611 l 888 611 l 888 333 l 833 333 l 833 222 l 777 222 l 777 166 l 722 166 l 722 111 l 611 111 l 611 -222 l 500 -222 z "},"%":{"ha":1111,"x_min":0,"x_max":1000,"o":"m 888 0 l 888 55 l 777 55 l 777 111 l 667 111 l 667 500 l 777 500 l 777 444 l 888 444 l 888 389 l 1000 389 l 1000 0 l 888 0 m 222 1055 l 222 1111 l 111 1111 l 111 1166 l 0 1166 l 0 1555 l 111 1555 l 111 1499 l 222 1499 l 222 1444 l 333 1444 l 333 1055 l 222 1055 m 222 0 l 222 55 l 111 55 l 111 111 l 0 111 l 0 222 l 55 222 l 55 333 l 111 333 l 111 444 l 166 444 l 166 555 l 222 555 l 222 667 l 277 667 l 277 777 l 333 777 l 333 888 l 389 888 l 389 1000 l 444 1000 l 444 1111 l 500 1111 l 500 1222 l 555 1222 l 555 1333 l 611 1333 l 611 1444 l 667 1444 l 667 1555 l 777 1555 l 777 1499 l 888 1499 l 888 1444 l 1000 1444 l 1000 1333 l 944 1333 l 944 1222 l 888 1222 l 888 1111 l 833 1111 l 833 1000 l 777 1000 l 777 888 l 722 888 l 722 777 l 667 777 l 667 667 l 611 667 l 611 555 l 555 555 l 555 444 l 500 444 l 500 333 l 444 333 l 444 222 l 389 222 l 389 111 l 333 111 l 333 0 l 222 0 z "},"&":{"ha":1166,"x_min":0,"x_max":1055,"o":"m 222 0 l 222 55 l 111 55 l 111 111 l 55 111 l 55 222 l 0 222 l 0 444 l 55 444 l 55 555 l 111 555 l 111 611 l 166 611 l 166 667 l 111 667 l 111 722 l 55 722 l 55 1111 l 111 1111 l 111 1222 l 166 1222 l 166 1278 l 222 1278 l 222 1333 l 277 1333 l 277 1389 l 389 1389 l 389 1444 l 611 1444 l 611 1389 l 722 1389 l 722 1333 l 777 1333 l 777 1278 l 833 1278 l 833 888 l 555 888 l 555 1111 l 444 1111 l 444 1055 l 389 1055 l 389 833 l 555 833 l 555 500 l 389 500 l 389 444 l 333 444 l 333 333 l 555 333 l 555 389 l 611 389 l 611 500 l 667 500 l 667 722 l 1055 722 l 1055 389 l 888 389 l 888 277 l 833 277 l 833 166 l 777 166 l 777 111 l 722 111 l 722 55 l 611 55 l 611 0 l 222 0 z "},"'":{"ha":444,"x_min":0,"x_max":333,"o":"m 55 1000 l 55 1111 l 0 1111 l 0 1499 l 333 1499 l 333 1111 l 277 1111 l 277 1000 l 55 1000 z "},"(":{"ha":111,"x_min":0,"x_max":0,"o":""},"*":{"ha":833,"x_min":0,"x_max":722,"o":"m 55 777 l 55 888 l 111 888 l 111 1000 l 166 1000 l 166 1055 l 111 1055 l 111 1111 l 55 1111 l 55 1166 l 0 1166 l 0 1222 l 277 1222 l 277 1333 l 333 1333 l 333 1444 l 389 1444 l 389 1333 l 444 1333 l 444 1222 l 722 1222 l 722 1166 l 667 1166 l 667 1111 l 611 1111 l 611 1055 l 555 1055 l 555 1000 l 611 1000 l 611 888 l 667 888 l 667 777 l 555 777 l 555 833 l 444 833 l 444 888 l 277 888 l 277 833 l 166 833 l 166 777 l 55 777 z "},"+":{"ha":833,"x_min":0,"x_max":722,"o":"m 222 222 l 222 444 l 0 444 l 0 722 l 222 722 l 222 944 l 500 944 l 500 722 l 722 722 l 722 444 l 500 444 l 500 222 l 222 222 z "},",":{"ha":667,"x_min":0,"x_max":555,"o":"m 222 -333 l 222 -277 l 111 -277 l 111 -222 l 0 -222 l 0 -111 l 55 -111 l 55 0 l 111 0 l 111 111 l 166 111 l 166 222 l 222 222 l 222 333 l 333 333 l 333 277 l 444 277 l 444 222 l 555 222 l 555 111 l 500 111 l 500 0 l 444 0 l 444 -111 l 389 -111 l 389 -222 l 333 -222 l 333 -333 l 222 -333 z "},"-":{"ha":777,"x_min":0,"x_max":667,"o":"m 0 444 l 0 722 l 667 722 l 667 444 l 0 444 z "},".":{"ha":444,"x_min":0,"x_max":333,"o":"m 222 -111 l 222 -55 l 111 -55 l 111 0 l 0 0 l 0 389 l 111 389 l 111 333 l 222 333 l 222 277 l 333 277 l 333 -111 l 222 -111 z "},"/":{"ha":1222,"x_min":0,"x_max":1111,"o":"m 222 -222 l 222 -166 l 111 -166 l 111 -111 l 0 -111 l 0 0 l 55 0 l 55 111 l 111 111 l 111 222 l 166 222 l 166 333 l 222 333 l 222 444 l 277 444 l 277 555 l 333 555 l 333 667 l 389 667 l 389 777 l 444 777 l 444 888 l 500 888 l 500 1000 l 555 1000 l 555 1111 l 611 1111 l 611 1222 l 667 1222 l 667 1333 l 722 1333 l 722 1444 l 777 1444 l 777 1555 l 888 1555 l 888 1499 l 1000 1499 l 1000 1444 l 1111 1444 l 1111 1333 l 1055 1333 l 1055 1222 l 1000 1222 l 1000 1111 l 944 1111 l 944 1000 l 888 1000 l 888 888 l 833 888 l 833 777 l 777 777 l 777 667 l 722 667 l 722 555 l 667 555 l 667 444 l 611 444 l 611 333 l 555 333 l 555 222 l 500 222 l 500 111 l 444 111 l 444 0 l 389 0 l 389 -111 l 333 -111 l 333 -222 l 222 -222 z "},":":{"ha":444,"x_min":0,"x_max":333,"o":"m 222 -111 l 222 -55 l 111 -55 l 111 0 l 0 0 l 0 389 l 111 389 l 111 333 l 222 333 l 222 277 l 333 277 l 333 -111 l 222 -111 m 222 555 l 222 611 l 111 611 l 111 667 l 0 667 l 0 1055 l 111 1055 l 111 1000 l 222 1000 l 222 944 l 333 944 l 333 555 l 222 555 z "},";":{"ha":667,"x_min":0,"x_max":555,"o":"m 222 -333 l 222 -277 l 111 -277 l 111 -222 l 0 -222 l 0 -111 l 55 -111 l 55 0 l 111 0 l 111 111 l 166 111 l 166 222 l 222 222 l 222 333 l 333 333 l 333 277 l 444 277 l 444 222 l 555 222 l 555 111 l 500 111 l 500 0 l 444 0 l 444 -111 l 389 -111 l 389 -222 l 333 -222 l 333 -333 l 222 -333 m 444 555 l 444 611 l 333 611 l 333 667 l 222 667 l 222 1055 l 333 1055 l 333 1000 l 444 1000 l 444 944 l 555 944 l 555 555 l 444 555 z "},"<":{"ha":777,"x_min":0,"x_max":667,"o":"m 444 55 l 444 111 l 389 111 l 389 166 l 333 166 l 333 222 l 277 222 l 277 277 l 222 277 l 222 333 l 166 333 l 166 389 l 111 389 l 111 444 l 55 444 l 55 500 l 0 500 l 0 611 l 55 611 l 55 667 l 111 667 l 111 722 l 166 722 l 166 777 l 222 777 l 222 833 l 277 833 l 277 888 l 333 888 l 333 944 l 389 944 l 389 1000 l 444 1000 l 444 1055 l 500 1055 l 500 1000 l 555 1000 l 555 944 l 611 944 l 611 888 l 667 888 l 667 833 l 611 833 l 611 777 l 555 777 l 555 722 l 500 722 l 500 667 l 444 667 l 444 611 l 389 611 l 389 500 l 444 500 l 444 444 l 500 444 l 500 389 l 555 389 l 555 333 l 611 333 l 611 277 l 667 277 l 667 222 l 611 222 l 611 166 l 555 166 l 555 111 l 500 111 l 500 55 l 444 55 z "},"=":{"ha":888,"x_min":0,"x_max":777,"o":"m 0 222 l 0 500 l 777 500 l 777 222 l 0 222 m 0 667 l 0 944 l 777 944 l 777 667 l 0 667 z "},">":{"ha":777,"x_min":0,"x_max":667,"o":"m 166 55 l 166 111 l 111 111 l 111 166 l 55 166 l 55 222 l 0 222 l 0 277 l 55 277 l 55 333 l 111 333 l 111 389 l 166 389 l 166 444 l 222 444 l 222 500 l 277 500 l 277 611 l 222 611 l 222 667 l 166 667 l 166 722 l 111 722 l 111 777 l 55 777 l 55 833 l 0 833 l 0 888 l 55 888 l 55 944 l 111 944 l 111 1000 l 166 1000 l 166 1055 l 222 1055 l 222 1000 l 277 1000 l 277 944 l 333 944 l 333 888 l 389 888 l 389 833 l 444 833 l 444 777 l 500 777 l 500 722 l 555 722 l 555 667 l 611 667 l 611 611 l 667 611 l 667 500 l 611 500 l 611 444 l 555 444 l 555 389 l 500 389 l 500 333 l 444 333 l 444 277 l 389 277 l 389 222 l 333 222 l 333 166 l 277 166 l 277 111 l 222 111 l 222 55 l 166 55 z "},"?":{"ha":1000,"x_min":0,"x_max":888,"o":"m 444 -111 l 444 -55 l 333 -55 l 333 0 l 222 0 l 222 333 l 333 333 l 333 277 l 444 277 l 444 222 l 555 222 l 555 -111 l 444 -111 m 444 333 l 444 389 l 333 389 l 333 444 l 222 444 l 222 722 l 277 722 l 277 777 l 389 777 l 389 833 l 500 833 l 500 888 l 555 888 l 555 1000 l 500 1000 l 500 1055 l 444 1055 l 444 1111 l 389 1111 l 389 1166 l 333 1166 l 333 944 l 0 944 l 0 1389 l 55 1389 l 55 1444 l 111 1444 l 111 1499 l 444 1499 l 444 1444 l 555 1444 l 555 1389 l 667 1389 l 667 1333 l 722 1333 l 722 1278 l 777 1278 l 777 1222 l 833 1222 l 833 1111 l 888 1111 l 888 777 l 833 777 l 833 722 l 777 722 l 777 667 l 722 667 l 722 611 l 611 611 l 611 555 l 555 555 l 555 333 l 444 333 z "},"A":{"ha":1000,"x_min":0,"x_max":888,"o":"m 444 389 l 444 611 l 389 611 l 389 833 l 333 833 l 333 389 l 444 389 m 222 -111 l 222 -55 l 111 -55 l 111 0 l 0 0 l 0 1333 l 333 1333 l 333 1166 l 389 1166 l 389 1389 l 222 1389 l 222 1499 l 555 1499 l 555 1333 l 611 1333 l 611 1111 l 667 1111 l 667 888 l 722 888 l 722 667 l 777 667 l 777 444 l 833 444 l 833 222 l 888 222 l 888 0 l 555 0 l 555 111 l 333 111 l 333 -111 l 222 -111 z "},"B":{"ha":1055,"x_min":0,"x_max":944,"o":"m 611 277 l 611 333 l 667 333 l 667 444 l 611 444 l 611 500 l 444 500 l 444 277 l 611 277 m 555 777 l 555 833 l 611 833 l 611 888 l 667 888 l 667 1055 l 611 1055 l 611 1111 l 444 1111 l 444 777 l 555 777 m 111 0 l 111 1111 l 222 1111 l 222 1166 l 0 1166 l 0 1278 l 55 1278 l 55 1389 l 111 1389 l 111 1499 l 444 1499 l 444 1444 l 667 1444 l 667 1389 l 777 1389 l 777 1333 l 833 1333 l 833 1278 l 888 1278 l 888 1166 l 944 1166 l 944 888 l 888 888 l 888 777 l 833 777 l 833 722 l 777 722 l 777 667 l 833 667 l 833 611 l 888 611 l 888 500 l 944 500 l 944 277 l 888 277 l 888 166 l 833 166 l 833 111 l 777 111 l 777 55 l 667 55 l 667 0 l 111 0 z "},"C":{"ha":1055,"x_min":0,"x_max":944,"o":"m 333 0 l 333 55 l 222 55 l 222 111 l 166 111 l 166 166 l 111 166 l 111 222 l 55 222 l 55 333 l 0 333 l 0 833 l 55 833 l 55 944 l 111 944 l 111 1055 l 166 1055 l 166 1166 l 222 1166 l 222 1222 l 277 1222 l 277 1278 l 333 1278 l 333 1333 l 444 1333 l 444 1389 l 555 1389 l 555 1444 l 833 1444 l 833 1389 l 888 1389 l 888 1333 l 944 1333 l 944 777 l 611 777 l 611 1055 l 500 1055 l 500 1000 l 444 1000 l 444 888 l 389 888 l 389 777 l 333 777 l 333 444 l 389 444 l 389 389 l 444 389 l 444 333 l 667 333 l 667 389 l 777 389 l 777 444 l 833 444 l 833 500 l 944 500 l 944 111 l 888 111 l 888 55 l 777 55 l 777 0 l 333 0 z "},"D":{"ha":1166,"x_min":0,"x_max":1055,"o":"m 500 444 l 500 500 l 555 500 l 555 555 l 611 555 l 611 611 l 667 611 l 667 722 l 722 722 l 722 944 l 667 944 l 667 1000 l 611 1000 l 611 1055 l 444 1055 l 444 444 l 500 444 m 111 0 l 111 1055 l 222 1055 l 222 1111 l 0 1111 l 0 1222 l 55 1222 l 55 1333 l 111 1333 l 111 1444 l 500 1444 l 500 1389 l 667 1389 l 667 1333 l 777 1333 l 777 1278 l 833 1278 l 833 1222 l 888 1222 l 888 1166 l 944 1166 l 944 1111 l 1000 1111 l 1000 1000 l 1055 1000 l 1055 722 l 1000 722 l 1000 555 l 944 555 l 944 444 l 888 444 l 888 389 l 833 389 l 833 333 l 777 333 l 777 277 l 722 277 l 722 222 l 667 222 l 667 166 l 611 166 l 611 111 l 500 111 l 500 55 l 389 55 l 389 0 l 111 0 z "},"E":{"ha":1111,"x_min":0,"x_max":1000,"o":"m 111 0 l 111 944 l 222 944 l 222 1000 l 0 1000 l 0 1111 l 55 1111 l 55 1222 l 111 1222 l 111 1333 l 1000 1333 l 1000 1222 l 944 1222 l 944 1111 l 888 1111 l 888 1000 l 444 1000 l 444 777 l 888 777 l 888 500 l 444 500 l 444 277 l 888 277 l 888 0 l 111 0 z "},"F":{"ha":1111,"x_min":0,"x_max":1000,"o":"m 333 -111 l 333 -55 l 222 -55 l 222 0 l 111 0 l 111 944 l 222 944 l 222 1000 l 0 1000 l 0 1111 l 55 1111 l 55 1222 l 111 1222 l 111 1333 l 1000 1333 l 1000 1222 l 944 1222 l 944 1111 l 888 1111 l 888 1000 l 444 1000 l 444 777 l 722 777 l 722 500 l 444 500 l 444 -111 l 333 -111 z "},"G":{"ha":1111,"x_min":0,"x_max":1000,"o":"m 333 0 l 333 55 l 222 55 l 222 111 l 166 111 l 166 166 l 111 166 l 111 277 l 55 277 l 55 444 l 0 444 l 0 777 l 55 777 l 55 888 l 111 888 l 111 1000 l 166 1000 l 166 1111 l 222 1111 l 222 1166 l 277 1166 l 277 1222 l 333 1222 l 333 1278 l 389 1278 l 389 1333 l 500 1333 l 500 1389 l 611 1389 l 611 1444 l 888 1444 l 888 1389 l 944 1389 l 944 888 l 667 888 l 667 1111 l 611 1111 l 611 1055 l 555 1055 l 555 1000 l 500 1000 l 500 944 l 444 944 l 444 833 l 389 833 l 389 722 l 333 722 l 333 500 l 389 500 l 389 389 l 444 389 l 444 333 l 667 333 l 667 389 l 722 389 l 722 500 l 500 500 l 500 777 l 1000 777 l 1000 277 l 944 277 l 944 166 l 888 166 l 888 111 l 833 111 l 833 55 l 722 55 l 722 0 l 333 0 z "},"H":{"ha":1000,"x_min":0,"x_max":888,"o":"m 222 -111 l 222 -55 l 111 -55 l 111 0 l 0 0 l 0 1444 l 111 1444 l 111 1389 l 222 1389 l 222 1333 l 333 1333 l 333 722 l 444 722 l 444 777 l 555 777 l 555 1444 l 667 1444 l 667 1389 l 777 1389 l 777 1333 l 888 1333 l 888 -111 l 777 -111 l 777 -55 l 667 -55 l 667 0 l 555 0 l 555 444 l 444 444 l 444 389 l 333 389 l 333 -111 l 222 -111 z "},"I":{"ha":444,"x_min":0,"x_max":333,"o":"m 222 -111 l 222 -55 l 111 -55 l 111 0 l 0 0 l 0 1444 l 111 1444 l 111 1389 l 222 1389 l 222 1333 l 333 1333 l 333 -111 l 222 -111 z "},"J":{"ha":1166,"x_min":0,"x_max":1055,"o":"m 111 0 l 111 55 l 55 55 l 55 111 l 0 111 l 0 555 l 333 555 l 333 333 l 444 333 l 444 389 l 500 389 l 500 944 l 611 944 l 611 1000 l 111 1000 l 111 1111 l 166 1111 l 166 1222 l 222 1222 l 222 1333 l 1055 1333 l 1055 1222 l 1000 1222 l 1000 1111 l 944 1111 l 944 1000 l 833 1000 l 833 277 l 777 277 l 777 166 l 722 166 l 722 111 l 611 111 l 611 55 l 500 55 l 500 0 l 111 0 z "},"K":{"ha":1055,"x_min":0,"x_max":944,"o":"m 222 -111 l 222 -55 l 111 -55 l 111 0 l 0 0 l 0 1333 l 333 1333 l 333 888 l 277 888 l 277 777 l 333 777 l 333 888 l 389 888 l 389 1000 l 444 1000 l 444 1111 l 500 1111 l 500 1222 l 555 1222 l 555 1333 l 888 1333 l 888 1222 l 833 1222 l 833 1111 l 777 1111 l 777 1000 l 722 1000 l 722 888 l 667 888 l 667 777 l 611 777 l 611 667 l 555 667 l 555 555 l 611 555 l 611 500 l 667 500 l 667 444 l 722 444 l 722 389 l 777 389 l 777 333 l 833 333 l 833 277 l 888 277 l 888 222 l 944 222 l 944 166 l 888 166 l 888 111 l 833 111 l 833 55 l 777 55 l 777 0 l 667 0 l 667 55 l 611 55 l 611 111 l 555 111 l 555 166 l 500 166 l 500 222 l 444 222 l 444 277 l 389 277 l 389 333 l 333 333 l 333 389 l 277 389 l 277 333 l 333 333 l 333 -111 l 222 -111 z "},"L":{"ha":888,"x_min":0,"x_max":777,"o":"m 0 0 l 0 1444 l 111 1444 l 111 1389 l 222 1389 l 222 1333 l 333 1333 l 333 277 l 777 277 l 777 0 l 0 0 z "},"M":{"ha":1389,"x_min":0,"x_max":1278,"o":"m 222 -111 l 222 -55 l 111 -55 l 111 0 l 0 0 l 0 1333 l 333 1333 l 333 1222 l 389 1222 l 389 1111 l 444 1111 l 444 1000 l 500 1000 l 500 888 l 555 888 l 555 777 l 611 777 l 611 667 l 667 667 l 667 777 l 722 777 l 722 888 l 777 888 l 777 1000 l 833 1000 l 833 1111 l 888 1111 l 888 1222 l 944 1222 l 944 1333 l 1278 1333 l 1278 -111 l 1166 -111 l 1166 -55 l 1055 -55 l 1055 0 l 944 0 l 944 555 l 1000 555 l 1000 667 l 944 667 l 944 555 l 888 555 l 888 444 l 833 444 l 833 333 l 777 333 l 777 222 l 722 222 l 722 111 l 667 111 l 667 0 l 611 0 l 611 111 l 555 111 l 555 222 l 500 222 l 500 333 l 444 333 l 444 444 l 389 444 l 389 555 l 333 555 l 333 667 l 277 667 l 277 555 l 333 555 l 333 -111 l 222 -111 z "},"N":{"ha":1055,"x_min":0,"x_max":944,"o":"m 222 -111 l 222 -55 l 111 -55 l 111 0 l 0 0 l 0 1333 l 333 1333 l 333 1222 l 389 1222 l 389 1111 l 444 1111 l 444 1000 l 500 1000 l 500 888 l 555 888 l 555 777 l 611 777 l 611 667 l 667 667 l 667 777 l 611 777 l 611 1444 l 722 1444 l 722 1389 l 833 1389 l 833 1333 l 944 1333 l 944 0 l 611 0 l 611 111 l 555 111 l 555 222 l 500 222 l 500 333 l 444 333 l 444 444 l 389 444 l 389 555 l 333 555 l 333 667 l 277 667 l 277 555 l 333 555 l 333 -111 l 222 -111 z "},"O":{"ha":1055,"x_min":0,"x_max":944,"o":"m 500 333 l 500 389 l 555 389 l 555 500 l 611 500 l 611 888 l 555 888 l 555 1000 l 500 1000 l 500 1055 l 444 1055 l 444 1000 l 389 1000 l 389 888 l 333 888 l 333 389 l 389 389 l 389 333 l 500 333 m 277 0 l 277 55 l 166 55 l 166 111 l 111 111 l 111 166 l 55 166 l 55 277 l 0 277 l 0 944 l 55 944 l 55 1111 l 111 1111 l 111 1222 l 166 1222 l 166 1278 l 222 1278 l 222 1333 l 333 1333 l 333 1389 l 555 1389 l 555 1333 l 667 1333 l 667 1278 l 722 1278 l 722 1222 l 777 1222 l 777 1166 l 833 1166 l 833 1055 l 888 1055 l 888 944 l 944 944 l 944 444 l 888 444 l 888 333 l 833 333 l 833 222 l 777 222 l 777 166 l 722 166 l 722 111 l 667 111 l 667 55 l 555 55 l 555 0 l 277 0 z "},"P":{"ha":1111,"x_min":0,"x_max":1000,"o":"m 500 777 l 500 833 l 611 833 l 611 888 l 667 888 l 667 1055 l 555 1055 l 555 1111 l 444 1111 l 444 777 l 500 777 m 333 -111 l 333 -55 l 222 -55 l 222 0 l 111 0 l 111 1111 l 222 1111 l 222 1166 l 0 1166 l 0 1278 l 55 1278 l 55 1389 l 111 1389 l 111 1499 l 444 1499 l 444 1444 l 611 1444 l 611 1389 l 722 1389 l 722 1333 l 833 1333 l 833 1278 l 888 1278 l 888 1222 l 944 1222 l 944 1111 l 1000 1111 l 1000 833 l 944 833 l 944 722 l 888 722 l 888 667 l 833 667 l 833 611 l 777 611 l 777 555 l 667 555 l 667 500 l 555 500 l 555 444 l 444 444 l 444 -111 l 333 -111 z "},"Q":{"ha":1166,"x_min":0,"x_max":1055,"o":"m 500 277 l 500 333 l 444 333 l 444 555 l 555 555 l 555 500 l 611 500 l 611 444 l 667 444 l 667 500 l 611 500 l 611 888 l 555 888 l 555 1000 l 500 1000 l 500 1055 l 444 1055 l 444 1000 l 389 1000 l 389 888 l 333 888 l 333 389 l 389 389 l 389 333 l 444 333 l 444 277 l 500 277 m 277 0 l 277 55 l 166 55 l 166 111 l 111 111 l 111 166 l 55 166 l 55 277 l 0 277 l 0 944 l 55 944 l 55 1111 l 111 1111 l 111 1222 l 166 1222 l 166 1278 l 222 1278 l 222 1333 l 333 1333 l 333 1389 l 555 1389 l 555 1333 l 667 1333 l 667 1278 l 722 1278 l 722 1222 l 777 1222 l 777 1166 l 833 1166 l 833 1055 l 888 1055 l 888 944 l 944 944 l 944 444 l 888 444 l 888 333 l 1055 333 l 1055 222 l 1000 222 l 1000 111 l 944 111 l 944 0 l 667 0 l 667 55 l 555 55 l 555 0 l 277 0 z "},"R":{"ha":1222,"x_min":0,"x_max":1111,"o":"m 500 777 l 500 833 l 611 833 l 611 888 l 667 888 l 667 1055 l 555 1055 l 555 1111 l 444 1111 l 444 777 l 500 777 m 333 -111 l 333 -55 l 222 -55 l 222 0 l 111 0 l 111 1111 l 222 1111 l 222 1166 l 0 1166 l 0 1278 l 55 1278 l 55 1389 l 111 1389 l 111 1499 l 444 1499 l 444 1444 l 611 1444 l 611 1389 l 722 1389 l 722 1333 l 833 1333 l 833 1278 l 888 1278 l 888 1222 l 944 1222 l 944 1111 l 1000 1111 l 1000 833 l 944 833 l 944 722 l 888 722 l 888 667 l 833 667 l 833 611 l 777 611 l 777 555 l 722 555 l 722 500 l 777 500 l 777 444 l 833 444 l 833 389 l 888 389 l 888 333 l 944 333 l 944 277 l 1000 277 l 1000 222 l 1055 222 l 1055 166 l 1111 166 l 1111 111 l 1055 111 l 1055 55 l 1000 55 l 1000 0 l 944 0 l 944 -55 l 833 -55 l 833 0 l 777 0 l 777 55 l 722 55 l 722 111 l 667 111 l 667 166 l 611 166 l 611 222 l 555 222 l 555 277 l 500 277 l 500 333 l 444 333 l 444 389 l 389 389 l 389 333 l 444 333 l 444 -111 l 333 -111 z "},"S":{"ha":1055,"x_min":0,"x_max":944,"o":"m 166 0 l 166 55 l 0 55 l 0 166 l 55 166 l 55 277 l 111 277 l 111 389 l 277 389 l 277 333 l 611 333 l 611 389 l 555 389 l 555 444 l 389 444 l 389 500 l 277 500 l 277 555 l 166 555 l 166 611 l 111 611 l 111 667 l 55 667 l 55 722 l 0 722 l 0 1055 l 55 1055 l 55 1166 l 111 1166 l 111 1222 l 166 1222 l 166 1278 l 222 1278 l 222 1333 l 333 1333 l 333 1389 l 444 1389 l 444 1444 l 777 1444 l 777 1389 l 833 1389 l 833 1333 l 888 1333 l 888 888 l 555 888 l 555 1111 l 500 1111 l 500 1055 l 444 1055 l 444 1000 l 389 1000 l 389 944 l 333 944 l 333 833 l 389 833 l 389 777 l 500 777 l 500 722 l 722 722 l 722 667 l 833 667 l 833 611 l 888 611 l 888 555 l 944 555 l 944 277 l 888 277 l 888 166 l 833 166 l 833 111 l 777 111 l 777 55 l 667 55 l 667 0 l 166 0 z "},"T":{"ha":1111,"x_min":0,"x_max":1000,"o":"m 555 -111 l 555 -55 l 444 -55 l 444 0 l 333 0 l 333 944 l 444 944 l 444 1000 l 0 1000 l 0 1111 l 55 1111 l 55 1222 l 111 1222 l 111 1333 l 1000 1333 l 1000 1222 l 944 1222 l 944 1111 l 888 1111 l 888 1000 l 667 1000 l 667 -111 l 555 -111 z "},"U":{"ha":1000,"x_min":0,"x_max":888,"o":"m 777 -111 l 777 -55 l 667 -55 l 667 0 l 555 0 l 555 111 l 611 111 l 611 166 l 555 166 l 555 111 l 500 111 l 500 55 l 389 55 l 389 0 l 277 0 l 277 -55 l 55 -55 l 55 0 l 0 0 l 0 1333 l 333 1333 l 333 333 l 389 333 l 389 389 l 500 389 l 500 444 l 555 444 l 555 1444 l 667 1444 l 667 1389 l 777 1389 l 777 1333 l 888 1333 l 888 -111 l 777 -111 z "},"V":{"ha":1000,"x_min":0,"x_max":888,"o":"m 0 0 l 0 1444 l 111 1444 l 111 1389 l 222 1389 l 222 1333 l 333 1333 l 333 500 l 389 500 l 389 722 l 444 722 l 444 944 l 500 944 l 500 1166 l 555 1166 l 555 1333 l 888 1333 l 888 1111 l 833 1111 l 833 888 l 777 888 l 777 667 l 722 667 l 722 444 l 667 444 l 667 222 l 611 222 l 611 0 l 0 0 z "},"W":{"ha":1444,"x_min":0,"x_max":1333,"o":"m 0 0 l 0 1444 l 111 1444 l 111 1389 l 222 1389 l 222 1333 l 333 1333 l 333 500 l 389 500 l 389 722 l 444 722 l 444 944 l 722 944 l 722 722 l 777 722 l 777 500 l 833 500 l 833 722 l 888 722 l 888 944 l 944 944 l 944 1166 l 1000 1166 l 1000 1333 l 1333 1333 l 1333 1111 l 1278 1111 l 1278 888 l 1222 888 l 1222 667 l 1166 667 l 1166 444 l 1111 444 l 1111 222 l 1055 222 l 1055 0 l 667 0 l 667 166 l 611 166 l 611 333 l 555 333 l 555 166 l 500 166 l 500 0 l 0 0 z "},"X":{"ha":1111,"x_min":0,"x_max":1000,"o":"m 0 0 l 0 55 l 55 55 l 55 166 l 111 166 l 111 277 l 166 277 l 166 389 l 222 389 l 222 500 l 277 500 l 277 611 l 333 611 l 333 667 l 277 667 l 277 777 l 222 777 l 222 888 l 166 888 l 166 1000 l 111 1000 l 111 1111 l 55 1111 l 55 1222 l 0 1222 l 0 1278 l 111 1278 l 111 1333 l 222 1333 l 222 1389 l 333 1389 l 333 1278 l 389 1278 l 389 1166 l 444 1166 l 444 1055 l 555 1055 l 555 1166 l 611 1166 l 611 1278 l 667 1278 l 667 1389 l 777 1389 l 777 1333 l 888 1333 l 888 1278 l 1000 1278 l 1000 1222 l 944 1222 l 944 1111 l 888 1111 l 888 1000 l 833 1000 l 833 888 l 777 888 l 777 777 l 722 777 l 722 667 l 667 667 l 667 611 l 722 611 l 722 500 l 777 500 l 777 389 l 833 389 l 833 277 l 888 277 l 888 166 l 944 166 l 944 111 l 833 111 l 833 55 l 722 55 l 722 0 l 611 0 l 611 111 l 555 111 l 555 222 l 444 222 l 444 111 l 389 111 l 389 0 l 0 0 z "},"Y":{"ha":1166,"x_min":0,"x_max":1055,"o":"m 55 0 l 55 111 l 111 111 l 111 222 l 166 222 l 166 333 l 222 333 l 222 444 l 277 444 l 277 555 l 333 555 l 333 722 l 277 722 l 277 833 l 222 833 l 222 944 l 166 944 l 166 1055 l 111 1055 l 111 1166 l 55 1166 l 55 1278 l 0 1278 l 0 1333 l 111 1333 l 111 1389 l 222 1389 l 222 1444 l 333 1444 l 333 1333 l 389 1333 l 389 1222 l 444 1222 l 444 1111 l 500 1111 l 500 1000 l 555 1000 l 555 888 l 611 888 l 611 1000 l 555 1000 l 555 1111 l 611 1111 l 611 1222 l 667 1222 l 667 1333 l 722 1333 l 722 1389 l 1055 1389 l 1055 1278 l 1000 1278 l 1000 1166 l 944 1166 l 944 1055 l 888 1055 l 888 944 l 833 944 l 833 833 l 777 833 l 777 722 l 722 722 l 722 611 l 667 611 l 667 500 l 611 500 l 611 389 l 555 389 l 555 277 l 500 277 l 500 166 l 444 166 l 444 55 l 389 55 l 389 0 l 55 0 z "},"Z":{"ha":1000,"x_min":0,"x_max":888,"o":"m 111 0 l 111 333 l 166 333 l 166 444 l 222 444 l 222 555 l 277 555 l 277 667 l 333 667 l 333 777 l 389 777 l 389 888 l 444 888 l 444 1000 l 611 1000 l 611 1055 l 0 1055 l 0 1166 l 55 1166 l 55 1278 l 111 1278 l 111 1389 l 888 1389 l 888 1055 l 833 1055 l 833 944 l 777 944 l 777 833 l 722 833 l 722 722 l 667 722 l 667 611 l 611 611 l 611 500 l 555 500 l 555 389 l 500 389 l 500 277 l 888 277 l 888 0 l 111 0 z "},"[":{"ha":722,"x_min":0,"x_max":611,"o":"m 0 -333 l 0 1555 l 611 1555 l 611 1222 l 333 1222 l 333 0 l 611 0 l 611 -333 l 0 -333 z "},"\\":{"ha":1222,"x_min":0,"x_max":1111,"o":"m 777 -222 l 777 -111 l 722 -111 l 722 0 l 667 0 l 667 111 l 611 111 l 611 222 l 555 222 l 555 333 l 500 333 l 500 444 l 444 444 l 444 555 l 389 555 l 389 667 l 333 667 l 333 777 l 277 777 l 277 888 l 222 888 l 222 1000 l 166 1000 l 166 1111 l 111 1111 l 111 1222 l 55 1222 l 55 1333 l 0 1333 l 0 1444 l 111 1444 l 111 1499 l 222 1499 l 222 1555 l 333 1555 l 333 1444 l 389 1444 l 389 1333 l 444 1333 l 444 1222 l 500 1222 l 500 1111 l 555 1111 l 555 1000 l 611 1000 l 611 888 l 667 888 l 667 777 l 722 777 l 722 667 l 777 667 l 777 555 l 833 555 l 833 444 l 888 444 l 888 333 l 944 333 l 944 222 l 1000 222 l 1000 111 l 1055 111 l 1055 0 l 1111 0 l 1111 -111 l 1000 -111 l 1000 -166 l 888 -166 l 888 -222 l 777 -222 z "},"]":{"ha":667,"x_min":0,"x_max":555,"o":"m 0 -333 l 0 0 l 222 0 l 222 1222 l 0 1222 l 0 1555 l 555 1555 l 555 -333 l 0 -333 z "},"^":{"ha":1166,"x_min":0,"x_max":1055,"o":"m 0 944 l 0 1000 l 55 1000 l 55 1055 l 111 1055 l 111 1111 l 166 1111 l 166 1166 l 222 1166 l 222 1222 l 277 1222 l 277 1278 l 333 1278 l 333 1333 l 389 1333 l 389 1389 l 444 1389 l 444 1444 l 611 1444 l 611 1389 l 667 1389 l 667 1333 l 722 1333 l 722 1278 l 777 1278 l 777 1222 l 833 1222 l 833 1166 l 888 1166 l 888 1111 l 944 1111 l 944 1055 l 1000 1055 l 1000 1000 l 1055 1000 l 1055 944 l 667 944 l 667 1000 l 611 1000 l 611 1055 l 555 1055 l 555 1111 l 500 1111 l 500 1055 l 444 1055 l 444 1000 l 389 1000 l 389 944 l 0 944 z "},"_":{"ha":1111,"x_min":0,"x_max":1000,"o":"m 0 -333 l 0 -55 l 1000 -55 l 1000 -333 l 0 -333 z "},"`":{"ha":555,"x_min":0,"x_max":444,"o":"m 333 1389 l 333 1444 l 222 1444 l 222 1499 l 111 1499 l 111 1555 l 0 1555 l 0 1833 l 111 1833 l 111 1777 l 222 1777 l 222 1722 l 333 1722 l 333 1666 l 444 1666 l 444 1389 l 333 1389 z "},"a":{"ha":944,"x_min":0,"x_max":833,"o":"m 444 389 l 444 500 l 389 500 l 389 667 l 333 667 l 333 389 l 444 389 m 222 -111 l 222 -55 l 111 -55 l 111 0 l 0 0 l 0 1111 l 333 1111 l 333 944 l 389 944 l 389 1166 l 222 1166 l 222 1278 l 555 1278 l 555 1111 l 611 1111 l 611 888 l 667 888 l 667 667 l 722 667 l 722 444 l 777 444 l 777 222 l 833 222 l 833 0 l 555 0 l 555 111 l 333 111 l 333 -111 l 222 -111 z "},"b":{"ha":1000,"x_min":0,"x_max":888,"o":"m 555 277 l 555 333 l 611 333 l 611 389 l 555 389 l 555 444 l 444 444 l 444 277 l 555 277 m 555 667 l 555 722 l 611 722 l 611 833 l 555 833 l 555 888 l 444 888 l 444 667 l 555 667 m 111 0 l 111 888 l 222 888 l 222 944 l 0 944 l 0 1055 l 55 1055 l 55 1166 l 111 1166 l 111 1278 l 444 1278 l 444 1222 l 611 1222 l 611 1166 l 722 1166 l 722 1111 l 777 1111 l 777 1055 l 833 1055 l 833 944 l 888 944 l 888 722 l 833 722 l 833 611 l 777 611 l 777 555 l 833 555 l 833 444 l 888 444 l 888 222 l 833 222 l 833 111 l 777 111 l 777 55 l 667 55 l 667 0 l 111 0 z "},"c":{"ha":1000,"x_min":0,"x_max":888,"o":"m 277 0 l 277 55 l 166 55 l 166 111 l 111 111 l 111 166 l 55 166 l 55 277 l 0 277 l 0 722 l 55 722 l 55 833 l 111 833 l 111 944 l 166 944 l 166 1000 l 222 1000 l 222 1055 l 277 1055 l 277 1111 l 389 1111 l 389 1166 l 500 1166 l 500 1222 l 777 1222 l 777 1166 l 833 1166 l 833 1111 l 888 1111 l 888 667 l 555 667 l 555 833 l 444 833 l 444 777 l 389 777 l 389 667 l 333 667 l 333 389 l 389 389 l 389 333 l 611 333 l 611 389 l 722 389 l 722 444 l 777 444 l 777 500 l 888 500 l 888 111 l 833 111 l 833 55 l 722 55 l 722 0 l 277 0 z "},"d":{"ha":1111,"x_min":0,"x_max":1000,"o":"m 500 444 l 500 500 l 555 500 l 555 555 l 611 555 l 611 611 l 667 611 l 667 777 l 611 777 l 611 833 l 444 833 l 444 444 l 500 444 m 111 0 l 111 833 l 222 833 l 222 888 l 0 888 l 0 1000 l 55 1000 l 55 1111 l 111 1111 l 111 1222 l 500 1222 l 500 1166 l 667 1166 l 667 1111 l 777 1111 l 777 1055 l 833 1055 l 833 1000 l 888 1000 l 888 944 l 944 944 l 944 833 l 1000 833 l 1000 555 l 944 555 l 944 444 l 888 444 l 888 389 l 833 389 l 833 333 l 777 333 l 777 277 l 722 277 l 722 222 l 667 222 l 667 166 l 611 166 l 611 111 l 500 111 l 500 55 l 389 55 l 389 0 l 111 0 z "},"e":{"ha":1055,"x_min":0,"x_max":944,"o":"m 111 0 l 111 722 l 222 722 l 222 777 l 0 777 l 0 888 l 55 888 l 55 1000 l 111 1000 l 111 1111 l 944 1111 l 944 1000 l 888 1000 l 888 888 l 833 888 l 833 777 l 444 777 l 444 667 l 833 667 l 833 389 l 444 389 l 444 277 l 833 277 l 833 0 l 111 0 z "},"f":{"ha":1055,"x_min":0,"x_max":944,"o":"m 333 -111 l 333 -55 l 222 -55 l 222 0 l 111 0 l 111 722 l 222 722 l 222 777 l 0 777 l 0 888 l 55 888 l 55 1000 l 111 1000 l 111 1111 l 944 1111 l 944 1000 l 888 1000 l 888 888 l 833 888 l 833 777 l 444 777 l 444 667 l 667 667 l 667 389 l 444 389 l 444 -111 l 333 -111 z "},"g":{"ha":1055,"x_min":0,"x_max":944,"o":"m 277 0 l 277 55 l 166 55 l 166 111 l 111 111 l 111 166 l 55 166 l 55 277 l 0 277 l 0 667 l 55 667 l 55 777 l 111 777 l 111 888 l 166 888 l 166 944 l 222 944 l 222 1000 l 277 1000 l 277 1055 l 333 1055 l 333 1111 l 444 1111 l 444 1166 l 555 1166 l 555 1222 l 833 1222 l 833 1166 l 888 1166 l 888 833 l 611 833 l 611 888 l 555 888 l 555 833 l 500 833 l 500 777 l 444 777 l 444 722 l 389 722 l 389 611 l 333 611 l 333 389 l 389 389 l 389 333 l 611 333 l 611 389 l 667 389 l 667 444 l 500 444 l 500 722 l 944 722 l 944 277 l 888 277 l 888 166 l 833 166 l 833 111 l 777 111 l 777 55 l 667 55 l 667 0 l 277 0 z "},"h":{"ha":1000,"x_min":0,"x_max":888,"o":"m 222 -111 l 222 -55 l 111 -55 l 111 0 l 0 0 l 0 1222 l 111 1222 l 111 1166 l 222 1166 l 222 1111 l 333 1111 l 333 611 l 444 611 l 444 667 l 555 667 l 555 1222 l 667 1222 l 667 1166 l 777 1166 l 777 1111 l 888 1111 l 888 -111 l 777 -111 l 777 -55 l 667 -55 l 667 0 l 555 0 l 555 333 l 611 333 l 611 389 l 555 389 l 555 333 l 444 333 l 444 277 l 333 277 l 333 -111 l 222 -111 z "},"i":{"ha":444,"x_min":0,"x_max":333,"o":"m 222 -111 l 222 -55 l 111 -55 l 111 0 l 0 0 l 0 1222 l 111 1222 l 111 1166 l 222 1166 l 222 1111 l 333 1111 l 333 -111 l 222 -111 z "},"j":{"ha":1111,"x_min":0,"x_max":1000,"o":"m 111 0 l 111 55 l 55 55 l 55 111 l 0 111 l 0 500 l 333 500 l 333 333 l 444 333 l 444 389 l 500 389 l 500 722 l 611 722 l 611 777 l 55 777 l 55 888 l 111 888 l 111 1000 l 166 1000 l 166 1111 l 1000 1111 l 1000 1000 l 944 1000 l 944 888 l 888 888 l 888 777 l 777 777 l 777 277 l 722 277 l 722 166 l 667 166 l 667 111 l 611 111 l 611 55 l 500 55 l 500 0 l 111 0 z "},"k":{"ha":1000,"x_min":0,"x_max":888,"o":"m 222 -111 l 222 -55 l 111 -55 l 111 0 l 0 0 l 0 1111 l 333 1111 l 333 777 l 277 777 l 277 667 l 333 667 l 333 777 l 389 777 l 389 888 l 444 888 l 444 1000 l 500 1000 l 500 1111 l 833 1111 l 833 1000 l 777 1000 l 777 888 l 722 888 l 722 777 l 667 777 l 667 667 l 611 667 l 611 555 l 555 555 l 555 500 l 611 500 l 611 444 l 667 444 l 667 389 l 722 389 l 722 333 l 777 333 l 777 277 l 833 277 l 833 222 l 888 222 l 888 166 l 833 166 l 833 111 l 777 111 l 777 55 l 722 55 l 722 0 l 611 0 l 611 55 l 555 55 l 555 111 l 500 111 l 500 166 l 444 166 l 444 222 l 389 222 l 389 277 l 333 277 l 333 333 l 277 333 l 277 277 l 333 277 l 333 -111 l 222 -111 z "},"l":{"ha":888,"x_min":0,"x_max":777,"o":"m 0 0 l 0 1222 l 111 1222 l 111 1166 l 222 1166 l 222 1111 l 333 1111 l 333 277 l 777 277 l 777 0 l 0 0 z "},"m":{"ha":1278,"x_min":0,"x_max":1166,"o":"m 222 -111 l 222 -55 l 111 -55 l 111 0 l 0 0 l 0 1111 l 333 1111 l 333 1000 l 389 1000 l 389 888 l 444 888 l 444 777 l 500 777 l 500 667 l 555 667 l 555 555 l 611 555 l 611 667 l 667 667 l 667 777 l 722 777 l 722 888 l 777 888 l 777 1000 l 833 1000 l 833 1111 l 1166 1111 l 1166 -111 l 1055 -111 l 1055 -55 l 944 -55 l 944 0 l 833 0 l 833 333 l 888 333 l 888 444 l 833 444 l 833 333 l 777 333 l 777 222 l 722 222 l 722 111 l 667 111 l 667 0 l 500 0 l 500 111 l 444 111 l 444 222 l 389 222 l 389 333 l 333 333 l 333 444 l 277 444 l 277 333 l 333 333 l 333 -111 l 222 -111 z "},"n":{"ha":944,"x_min":0,"x_max":833,"o":"m 222 -111 l 222 -55 l 111 -55 l 111 0 l 0 0 l 0 1111 l 333 1111 l 333 1000 l 389 1000 l 389 888 l 444 888 l 444 777 l 500 777 l 500 667 l 555 667 l 555 777 l 500 777 l 500 1222 l 611 1222 l 611 1166 l 722 1166 l 722 1111 l 833 1111 l 833 0 l 500 0 l 500 111 l 444 111 l 444 222 l 389 222 l 389 333 l 333 333 l 333 444 l 277 444 l 277 333 l 333 333 l 333 -111 l 222 -111 z "},"o":{"ha":1000,"x_min":0,"x_max":888,"o":"m 500 333 l 500 389 l 555 389 l 555 500 l 611 500 l 611 667 l 555 667 l 555 777 l 500 777 l 500 833 l 444 833 l 444 777 l 389 777 l 389 667 l 333 667 l 333 389 l 389 389 l 389 333 l 500 333 m 277 0 l 277 55 l 166 55 l 166 111 l 111 111 l 111 166 l 55 166 l 55 277 l 0 277 l 0 777 l 55 777 l 55 888 l 111 888 l 111 1000 l 166 1000 l 166 1055 l 222 1055 l 222 1111 l 333 1111 l 333 1166 l 555 1166 l 555 1111 l 667 1111 l 667 1055 l 722 1055 l 722 1000 l 777 1000 l 777 944 l 833 944 l 833 833 l 888 833 l 888 333 l 833 333 l 833 222 l 777 222 l 777 166 l 722 166 l 722 111 l 667 111 l 667 55 l 555 55 l 555 0 l 277 0 z "},"p":{"ha":1055,"x_min":0,"x_max":944,"o":"m 555 667 l 555 722 l 611 722 l 611 833 l 555 833 l 555 888 l 444 888 l 444 667 l 555 667 m 333 -111 l 333 -55 l 222 -55 l 222 0 l 111 0 l 111 888 l 222 888 l 222 944 l 0 944 l 0 1055 l 55 1055 l 55 1166 l 111 1166 l 111 1278 l 444 1278 l 444 1222 l 611 1222 l 611 1166 l 722 1166 l 722 1111 l 777 1111 l 777 1055 l 833 1055 l 833 1000 l 888 1000 l 888 888 l 944 888 l 944 667 l 888 667 l 888 555 l 833 555 l 833 500 l 777 500 l 777 444 l 667 444 l 667 389 l 555 389 l 555 333 l 444 333 l 444 -111 l 333 -111 z "},"q":{"ha":1111,"x_min":0,"x_max":1000,"o":"m 500 277 l 500 333 l 444 333 l 444 500 l 555 500 l 555 444 l 611 444 l 611 389 l 667 389 l 667 444 l 611 444 l 611 667 l 555 667 l 555 777 l 500 777 l 500 833 l 444 833 l 444 777 l 389 777 l 389 667 l 333 667 l 333 389 l 389 389 l 389 333 l 444 333 l 444 277 l 500 277 m 277 0 l 277 55 l 166 55 l 166 111 l 111 111 l 111 166 l 55 166 l 55 277 l 0 277 l 0 777 l 55 777 l 55 888 l 111 888 l 111 1000 l 166 1000 l 166 1055 l 222 1055 l 222 1111 l 333 1111 l 333 1166 l 555 1166 l 555 1111 l 667 1111 l 667 1055 l 722 1055 l 722 1000 l 777 1000 l 777 944 l 833 944 l 833 833 l 888 833 l 888 333 l 833 333 l 833 277 l 1000 277 l 1000 166 l 944 166 l 944 55 l 888 55 l 888 0 l 667 0 l 667 55 l 555 55 l 555 0 l 277 0 z "},"r":{"ha":1111,"x_min":0,"x_max":1000,"o":"m 555 667 l 555 722 l 611 722 l 611 833 l 555 833 l 555 888 l 444 888 l 444 667 l 555 667 m 333 -111 l 333 -55 l 222 -55 l 222 0 l 111 0 l 111 888 l 222 888 l 222 944 l 0 944 l 0 1055 l 55 1055 l 55 1166 l 111 1166 l 111 1278 l 444 1278 l 444 1222 l 611 1222 l 611 1166 l 722 1166 l 722 1111 l 777 1111 l 777 1055 l 833 1055 l 833 1000 l 888 1000 l 888 888 l 944 888 l 944 667 l 888 667 l 888 555 l 833 555 l 833 500 l 777 500 l 777 444 l 722 444 l 722 389 l 777 389 l 777 333 l 833 333 l 833 277 l 888 277 l 888 222 l 944 222 l 944 166 l 1000 166 l 1000 111 l 944 111 l 944 55 l 888 55 l 888 0 l 833 0 l 833 -55 l 722 -55 l 722 0 l 667 0 l 667 55 l 611 55 l 611 111 l 555 111 l 555 166 l 500 166 l 500 222 l 444 222 l 444 277 l 389 277 l 389 222 l 444 222 l 444 -111 l 333 -111 z "},"s":{"ha":1000,"x_min":0,"x_max":888,"o":"m 55 0 l 55 277 l 555 277 l 555 333 l 444 333 l 444 389 l 277 389 l 277 444 l 166 444 l 166 500 l 111 500 l 111 555 l 55 555 l 55 667 l 0 667 l 0 888 l 55 888 l 55 1000 l 111 1000 l 111 1055 l 166 1055 l 166 1111 l 277 1111 l 277 1166 l 389 1166 l 389 1222 l 722 1222 l 722 1166 l 777 1166 l 777 1111 l 833 1111 l 833 777 l 500 777 l 500 888 l 444 888 l 444 833 l 389 833 l 389 777 l 333 777 l 333 722 l 389 722 l 389 667 l 500 667 l 500 611 l 667 611 l 667 555 l 777 555 l 777 500 l 833 500 l 833 444 l 888 444 l 888 222 l 833 222 l 833 111 l 777 111 l 777 55 l 667 55 l 667 0 l 55 0 z "},"t":{"ha":1111,"x_min":0,"x_max":1000,"o":"m 555 -111 l 555 -55 l 444 -55 l 444 0 l 333 0 l 333 722 l 444 722 l 444 777 l 0 777 l 0 888 l 55 888 l 55 1000 l 111 1000 l 111 1111 l 1000 1111 l 1000 1000 l 944 1000 l 944 888 l 888 888 l 888 777 l 667 777 l 667 -111 l 555 -111 z "},"u":{"ha":1000,"x_min":0,"x_max":888,"o":"m 777 -111 l 777 -55 l 667 -55 l 667 0 l 555 0 l 555 111 l 611 111 l 611 166 l 555 166 l 555 111 l 500 111 l 500 55 l 389 55 l 389 0 l 277 0 l 277 -55 l 55 -55 l 55 0 l 0 0 l 0 1111 l 333 1111 l 333 333 l 389 333 l 389 389 l 500 389 l 500 444 l 555 444 l 555 1222 l 667 1222 l 667 1166 l 777 1166 l 777 1111 l 888 1111 l 888 -111 l 777 -111 z "},"v":{"ha":944,"x_min":0,"x_max":833,"o":"m 0 0 l 0 1222 l 111 1222 l 111 1166 l 222 1166 l 222 1111 l 333 1111 l 333 500 l 389 500 l 389 722 l 444 722 l 444 944 l 500 944 l 500 1111 l 833 1111 l 833 888 l 777 888 l 777 667 l 722 667 l 722 444 l 667 444 l 667 222 l 611 222 l 611 0 l 0 0 z "},"w":{"ha":1278,"x_min":0,"x_max":1166,"o":"m 0 0 l 0 1222 l 111 1222 l 111 1166 l 222 1166 l 222 1111 l 333 1111 l 333 555 l 389 555 l 389 777 l 667 777 l 667 555 l 722 555 l 722 722 l 777 722 l 777 944 l 833 944 l 833 1111 l 1166 1111 l 1166 888 l 1111 888 l 1111 667 l 1055 667 l 1055 444 l 1000 444 l 1000 222 l 944 222 l 944 0 l 611 0 l 611 166 l 555 166 l 555 333 l 500 333 l 500 166 l 444 166 l 444 0 l 0 0 z "},"x":{"ha":1055,"x_min":0,"x_max":944,"o":"m 0 0 l 0 55 l 55 55 l 55 166 l 111 166 l 111 277 l 166 277 l 166 389 l 222 389 l 222 500 l 277 500 l 277 555 l 222 555 l 222 667 l 166 667 l 166 777 l 111 777 l 111 888 l 55 888 l 55 1000 l 0 1000 l 0 1055 l 111 1055 l 111 1111 l 222 1111 l 222 1166 l 333 1166 l 333 1055 l 389 1055 l 389 944 l 444 944 l 444 833 l 500 833 l 500 944 l 555 944 l 555 1055 l 611 1055 l 611 1166 l 722 1166 l 722 1111 l 833 1111 l 833 1055 l 944 1055 l 944 1000 l 888 1000 l 888 888 l 833 888 l 833 777 l 777 777 l 777 667 l 722 667 l 722 555 l 667 555 l 667 500 l 722 500 l 722 389 l 777 389 l 777 277 l 833 277 l 833 166 l 888 166 l 888 111 l 777 111 l 777 55 l 667 55 l 667 0 l 555 0 l 555 111 l 500 111 l 500 222 l 444 222 l 444 111 l 389 111 l 389 0 l 0 0 z "},"y":{"ha":1055,"x_min":0,"x_max":944,"o":"m 55 0 l 55 111 l 111 111 l 111 222 l 166 222 l 166 333 l 222 333 l 222 444 l 277 444 l 277 611 l 222 611 l 222 722 l 166 722 l 166 833 l 111 833 l 111 944 l 55 944 l 55 1055 l 0 1055 l 0 1111 l 111 1111 l 111 1166 l 222 1166 l 222 1222 l 333 1222 l 333 1111 l 389 1111 l 389 1000 l 444 1000 l 444 888 l 500 888 l 500 777 l 555 777 l 555 888 l 500 888 l 500 1000 l 555 1000 l 555 1111 l 611 1111 l 611 1166 l 944 1166 l 944 1055 l 888 1055 l 888 944 l 833 944 l 833 833 l 777 833 l 777 722 l 722 722 l 722 611 l 667 611 l 667 500 l 611 500 l 611 389 l 555 389 l 555 277 l 500 277 l 500 166 l 444 166 l 444 55 l 389 55 l 389 0 l 55 0 z "},"z":{"ha":888,"x_min":0,"x_max":777,"o":"m 111 0 l 111 333 l 166 333 l 166 444 l 222 444 l 222 555 l 277 555 l 277 667 l 333 667 l 333 777 l 500 777 l 500 833 l 0 833 l 0 944 l 55 944 l 55 1055 l 111 1055 l 111 1166 l 777 1166 l 777 833 l 722 833 l 722 722 l 667 722 l 667 611 l 611 611 l 611 500 l 555 500 l 555 389 l 500 389 l 500 277 l 777 277 l 777 0 l 111 0 z "},"|":{"ha":444,"x_min":0,"x_max":333,"o":"m 222 -333 l 222 -277 l 111 -277 l 111 -222 l 0 -222 l 0 1499 l 111 1499 l 111 1444 l 222 1444 l 222 1389 l 333 1389 l 333 -333 l 222 -333 z "},"~":{"ha":1111,"x_min":0,"x_max":1000,"o":"m 0 333 l 0 722 l 111 722 l 111 777 l 222 777 l 222 833 l 444 833 l 444 777 l 555 777 l 555 722 l 611 722 l 611 667 l 722 667 l 722 722 l 777 722 l 777 777 l 888 777 l 888 833 l 1000 833 l 1000 444 l 888 444 l 888 389 l 777 389 l 777 333 l 555 333 l 555 389 l 444 389 l 444 444 l 389 444 l 389 500 l 277 500 l 277 444 l 222 444 l 222 389 l 111 389 l 111 333 l 0 333 z "},"":{"ha":1444,"x_min":0,"x_max":1333,"o":"m 1000 111 l 1000 1222 l 333 1222 l 333 111 l 1000 111 m 0 -222 l 0 1555 l 1333 1555 l 1333 -222 l 0 -222 z "}," ":{"ha":333,"x_min":0,"x_max":0,"o":""},"¡":{"ha":444,"x_min":0,"x_max":333,"o":"m 222 -500 l 222 -444 l 111 -444 l 111 -389 l 0 -389 l 0 667 l 111 667 l 111 611 l 222 611 l 222 555 l 333 555 l 333 -500 l 222 -500 m 222 667 l 222 722 l 111 722 l 111 777 l 0 777 l 0 1111 l 111 1111 l 111 1055 l 222 1055 l 222 1000 l 333 1000 l 333 667 l 222 667 z "},"¦":{"ha":444,"x_min":0,"x_max":333,"o":"m 222 -333 l 222 -277 l 111 -277 l 111 -222 l 0 -222 l 0 555 l 111 555 l 111 500 l 222 500 l 222 444 l 333 444 l 333 -333 l 222 -333 m 222 611 l 222 667 l 111 667 l 111 722 l 0 722 l 0 1499 l 111 1499 l 111 1444 l 222 1444 l 222 1389 l 333 1389 l 333 611 l 222 611 z "},"¨":{"ha":667,"x_min":0,"x_max":555,"o":"m 111 1499 l 111 1555 l 0 1555 l 0 1833 l 111 1833 l 111 1777 l 222 1777 l 222 1499 l 111 1499 m 444 1499 l 444 1555 l 333 1555 l 333 1833 l 444 1833 l 444 1777 l 555 1777 l 555 1499 l 444 1499 z "},"«":{"ha":1278,"x_min":0,"x_max":1166,"o":"m 389 166 l 389 222 l 333 222 l 333 277 l 277 277 l 277 333 l 222 333 l 222 389 l 166 389 l 166 444 l 111 444 l 111 500 l 55 500 l 55 555 l 0 555 l 0 667 l 55 667 l 55 722 l 111 722 l 111 777 l 166 777 l 166 833 l 222 833 l 222 888 l 277 888 l 277 944 l 333 944 l 333 1000 l 389 1000 l 389 1055 l 444 1055 l 444 1000 l 500 1000 l 500 944 l 555 944 l 555 888 l 611 888 l 611 833 l 555 833 l 555 777 l 500 777 l 500 722 l 444 722 l 444 667 l 389 667 l 389 555 l 444 555 l 444 500 l 500 500 l 500 444 l 555 444 l 555 389 l 611 389 l 611 333 l 555 333 l 555 277 l 500 277 l 500 222 l 444 222 l 444 166 l 389 166 m 944 166 l 944 222 l 888 222 l 888 277 l 833 277 l 833 333 l 777 333 l 777 389 l 722 389 l 722 444 l 667 444 l 667 500 l 611 500 l 611 555 l 555 555 l 555 667 l 611 667 l 611 722 l 667 722 l 667 777 l 722 777 l 722 833 l 777 833 l 777 888 l 833 888 l 833 944 l 888 944 l 888 1000 l 944 1000 l 944 1055 l 1000 1055 l 1000 1000 l 1055 1000 l 1055 944 l 1111 944 l 1111 888 l 1166 888 l 1166 833 l 1111 833 l 1111 777 l 1055 777 l 1055 722 l 1000 722 l 1000 667 l 944 667 l 944 555 l 1000 555 l 1000 500 l 1055 500 l 1055 444 l 1111 444 l 1111 389 l 1166 389 l 1166 333 l 1111 333 l 1111 277 l 1055 277 l 1055 222 l 1000 222 l 1000 166 l 944 166 z "},"¬":{"ha":1333,"x_min":0,"x_max":1222,"o":"m 888 222 l 888 444 l 0 444 l 0 777 l 1222 777 l 1222 222 l 888 222 z "},"­":{"ha":777,"x_min":0,"x_max":667,"o":"m 0 444 l 0 722 l 667 722 l 667 444 l 0 444 z "},"¯":{"ha":777,"x_min":0,"x_max":667,"o":"m 0 1499 l 0 1611 l 55 1611 l 55 1722 l 111 1722 l 111 1833 l 667 1833 l 667 1722 l 611 1722 l 611 1611 l 555 1611 l 555 1499 l 0 1499 z "},"±":{"ha":833,"x_min":0,"x_max":722,"o":"m 0 55 l 0 333 l 722 333 l 722 55 l 0 55 m 222 444 l 222 667 l 0 667 l 0 944 l 222 944 l 222 1166 l 500 1166 l 500 944 l 722 944 l 722 667 l 500 667 l 500 444 l 222 444 z "},"´":{"ha":555,"x_min":0,"x_max":444,"o":"m 0 1389 l 0 1666 l 111 1666 l 111 1722 l 222 1722 l 222 1777 l 333 1777 l 333 1833 l 444 1833 l 444 1555 l 333 1555 l 333 1499 l 222 1499 l 222 1444 l 111 1444 l 111 1389 l 0 1389 z "},"µ":{"ha":111,"x_min":0,"x_max":0,"o":""},"·":{"ha":444,"x_min":0,"x_max":333,"o":"m 222 333 l 222 389 l 111 389 l 111 444 l 0 444 l 0 833 l 111 833 l 111 777 l 222 777 l 222 722 l 333 722 l 333 333 l 222 333 z "},"¸":{"ha":500,"x_min":0,"x_max":389,"o":"m 0 -277 l 0 -166 l 55 -166 l 55 -55 l 111 -55 l 111 0 l 389 0 l 389 -55 l 333 -55 l 333 -166 l 277 -166 l 277 -277 l 0 -277 z "},"»":{"ha":1278,"x_min":0,"x_max":1166,"o":"m 166 166 l 166 222 l 111 222 l 111 277 l 55 277 l 55 333 l 0 333 l 0 389 l 55 389 l 55 444 l 111 444 l 111 500 l 166 500 l 166 555 l 222 555 l 222 667 l 166 667 l 166 722 l 111 722 l 111 777 l 55 777 l 55 833 l 0 833 l 0 888 l 55 888 l 55 944 l 111 944 l 111 1000 l 166 1000 l 166 1055 l 222 1055 l 222 1000 l 277 1000 l 277 944 l 333 944 l 333 888 l 389 888 l 389 833 l 444 833 l 444 777 l 500 777 l 500 722 l 555 722 l 555 667 l 611 667 l 611 555 l 555 555 l 555 500 l 500 500 l 500 444 l 444 444 l 444 389 l 389 389 l 389 333 l 333 333 l 333 277 l 277 277 l 277 222 l 222 222 l 222 166 l 166 166 m 722 166 l 722 222 l 667 222 l 667 277 l 611 277 l 611 333 l 555 333 l 555 389 l 611 389 l 611 444 l 667 444 l 667 500 l 722 500 l 722 555 l 777 555 l 777 667 l 722 667 l 722 722 l 667 722 l 667 777 l 611 777 l 611 833 l 555 833 l 555 888 l 611 888 l 611 944 l 667 944 l 667 1000 l 722 1000 l 722 1055 l 777 1055 l 777 1000 l 833 1000 l 833 944 l 888 944 l 888 888 l 944 888 l 944 833 l 1000 833 l 1000 777 l 1055 777 l 1055 722 l 1111 722 l 1111 667 l 1166 667 l 1166 555 l 1111 555 l 1111 500 l 1055 500 l 1055 444 l 1000 444 l 1000 389 l 944 389 l 944 333 l 888 333 l 888 277 l 833 277 l 833 222 l 777 222 l 777 166 l 722 166 z "},"¿":{"ha":1000,"x_min":0,"x_max":888,"o":"m 444 -500 l 444 -444 l 333 -444 l 333 -389 l 222 -389 l 222 -333 l 166 -333 l 166 -277 l 111 -277 l 111 -222 l 55 -222 l 55 -111 l 0 -111 l 0 222 l 55 222 l 55 277 l 111 277 l 111 333 l 166 333 l 166 389 l 277 389 l 277 444 l 333 444 l 333 667 l 444 667 l 444 611 l 555 611 l 555 555 l 667 555 l 667 277 l 611 277 l 611 222 l 500 222 l 500 166 l 389 166 l 389 111 l 333 111 l 333 0 l 389 0 l 389 -55 l 444 -55 l 444 -111 l 500 -111 l 500 -166 l 555 -166 l 555 55 l 888 55 l 888 -389 l 833 -389 l 833 -444 l 777 -444 l 777 -500 l 444 -500 m 555 667 l 555 722 l 444 722 l 444 777 l 333 777 l 333 1111 l 444 1111 l 444 1055 l 555 1055 l 555 1000 l 667 1000 l 667 667 l 555 667 z "},"À":{"ha":1000,"x_min":0,"x_max":888,"o":"m 444 389 l 444 611 l 389 611 l 389 833 l 333 833 l 333 389 l 444 389 m 222 -111 l 222 -55 l 111 -55 l 111 0 l 0 0 l 0 1333 l 333 1333 l 333 1166 l 389 1166 l 389 1389 l 222 1389 l 222 1444 l 555 1444 l 555 1333 l 611 1333 l 611 1111 l 667 1111 l 667 888 l 722 888 l 722 667 l 777 667 l 777 444 l 833 444 l 833 222 l 888 222 l 888 0 l 555 0 l 555 111 l 333 111 l 333 -111 l 222 -111 m 444 1499 l 444 1555 l 333 1555 l 333 1611 l 222 1611 l 222 1666 l 111 1666 l 111 1944 l 222 1944 l 222 1889 l 333 1889 l 333 1833 l 444 1833 l 444 1777 l 555 1777 l 555 1499 l 444 1499 z "},"Á":{"ha":1000,"x_min":0,"x_max":888,"o":"m 444 389 l 444 611 l 389 611 l 389 833 l 333 833 l 333 389 l 444 389 m 222 -111 l 222 -55 l 111 -55 l 111 0 l 0 0 l 0 1333 l 333 1333 l 333 1166 l 389 1166 l 389 1389 l 222 1389 l 222 1444 l 555 1444 l 555 1333 l 611 1333 l 611 1111 l 667 1111 l 667 888 l 722 888 l 722 667 l 777 667 l 777 444 l 833 444 l 833 222 l 888 222 l 888 0 l 555 0 l 555 111 l 333 111 l 333 -111 l 222 -111 m 333 1499 l 333 1777 l 444 1777 l 444 1833 l 555 1833 l 555 1889 l 667 1889 l 667 1944 l 777 1944 l 777 1666 l 667 1666 l 667 1611 l 555 1611 l 555 1555 l 444 1555 l 444 1499 l 333 1499 z "},"Â":{"ha":1000,"x_min":0,"x_max":888,"o":"m 444 389 l 444 611 l 389 611 l 389 833 l 333 833 l 333 389 l 444 389 m 222 -111 l 222 -55 l 111 -55 l 111 0 l 0 0 l 0 1333 l 333 1333 l 333 1166 l 389 1166 l 389 1389 l 222 1389 l 222 1444 l 555 1444 l 555 1333 l 611 1333 l 611 1111 l 667 1111 l 667 888 l 722 888 l 722 667 l 777 667 l 777 444 l 833 444 l 833 222 l 888 222 l 888 0 l 555 0 l 555 111 l 333 111 l 333 -111 l 222 -111 m 55 1499 l 55 1555 l 111 1555 l 111 1611 l 166 1611 l 166 1666 l 222 1666 l 222 1722 l 277 1722 l 277 1777 l 333 1777 l 333 1833 l 500 1833 l 500 1777 l 555 1777 l 555 1722 l 611 1722 l 611 1666 l 667 1666 l 667 1611 l 722 1611 l 722 1555 l 777 1555 l 777 1499 l 500 1499 l 500 1555 l 444 1555 l 444 1611 l 389 1611 l 389 1555 l 333 1555 l 333 1499 l 55 1499 z "},"Ã":{"ha":1000,"x_min":0,"x_max":888,"o":"m 444 389 l 444 611 l 389 611 l 389 833 l 333 833 l 333 389 l 444 389 m 222 -111 l 222 -55 l 111 -55 l 111 0 l 0 0 l 0 1333 l 333 1333 l 333 1166 l 389 1166 l 389 1389 l 222 1389 l 222 1444 l 555 1444 l 555 1333 l 611 1333 l 611 1111 l 667 1111 l 667 888 l 722 888 l 722 667 l 777 667 l 777 444 l 833 444 l 833 222 l 888 222 l 888 0 l 555 0 l 555 111 l 333 111 l 333 -111 l 222 -111 m 111 1499 l 111 1555 l 55 1555 l 55 1666 l 111 1666 l 111 1722 l 166 1722 l 166 1777 l 222 1777 l 222 1833 l 389 1833 l 389 1777 l 444 1777 l 444 1722 l 500 1722 l 500 1777 l 555 1777 l 555 1833 l 667 1833 l 667 1777 l 722 1777 l 722 1666 l 667 1666 l 667 1611 l 611 1611 l 611 1555 l 555 1555 l 555 1499 l 389 1499 l 389 1555 l 333 1555 l 333 1611 l 277 1611 l 277 1555 l 222 1555 l 222 1499 l 111 1499 z "},"Ä":{"ha":1000,"x_min":0,"x_max":888,"o":"m 444 389 l 444 611 l 389 611 l 389 833 l 333 833 l 333 389 l 444 389 m 222 -111 l 222 -55 l 111 -55 l 111 0 l 0 0 l 0 1333 l 333 1333 l 333 1166 l 389 1166 l 389 1389 l 222 1389 l 222 1444 l 555 1444 l 555 1333 l 611 1333 l 611 1111 l 667 1111 l 667 888 l 722 888 l 722 667 l 777 667 l 777 444 l 833 444 l 833 222 l 888 222 l 888 0 l 555 0 l 555 111 l 333 111 l 333 -111 l 222 -111 m 222 1499 l 222 1555 l 111 1555 l 111 1833 l 222 1833 l 222 1777 l 333 1777 l 333 1499 l 222 1499 m 555 1499 l 555 1555 l 444 1555 l 444 1833 l 555 1833 l 555 1777 l 667 1777 l 667 1499 l 555 1499 z "},"Å":{"ha":1000,"x_min":0,"x_max":888,"o":"m 444 389 l 444 611 l 389 611 l 389 833 l 333 833 l 333 389 l 444 389 m 222 -111 l 222 -55 l 111 -55 l 111 0 l 0 0 l 0 1333 l 333 1333 l 333 1166 l 389 1166 l 389 1389 l 222 1389 l 222 1444 l 555 1444 l 555 1333 l 611 1333 l 611 1111 l 667 1111 l 667 888 l 722 888 l 722 667 l 777 667 l 777 444 l 833 444 l 833 222 l 888 222 l 888 0 l 555 0 l 555 111 l 333 111 l 333 -111 l 222 -111 m 222 1499 l 222 1555 l 333 1555 l 333 1499 l 222 1499 m 111 1555 l 111 1722 l 222 1722 l 222 1555 l 111 1555 m 333 1555 l 333 1722 l 444 1722 l 444 1555 l 333 1555 m 222 1722 l 222 1777 l 333 1777 l 333 1722 l 222 1722 z "},"Æ":{"ha":1444,"x_min":0,"x_max":1333,"o":"m 444 389 l 444 611 l 389 611 l 389 833 l 333 833 l 333 389 l 444 389 m 222 -111 l 222 -55 l 111 -55 l 111 0 l 0 0 l 0 1333 l 333 1333 l 333 1166 l 389 1166 l 389 1389 l 222 1389 l 222 1499 l 555 1499 l 555 1333 l 1333 1333 l 1333 1222 l 1278 1222 l 1278 1111 l 1222 1111 l 1222 1000 l 888 1000 l 888 777 l 1222 777 l 1222 500 l 888 500 l 888 277 l 1222 277 l 1222 0 l 555 0 l 555 111 l 333 111 l 333 -111 l 222 -111 z "},"Ç":{"ha":1055,"x_min":0,"x_max":944,"o":"m 333 -277 l 333 -166 l 389 -166 l 389 -55 l 444 -55 l 444 0 l 333 0 l 333 55 l 222 55 l 222 111 l 166 111 l 166 166 l 111 166 l 111 222 l 55 222 l 55 333 l 0 333 l 0 833 l 55 833 l 55 944 l 111 944 l 111 1055 l 166 1055 l 166 1166 l 222 1166 l 222 1222 l 277 1222 l 277 1278 l 333 1278 l 333 1333 l 444 1333 l 444 1389 l 555 1389 l 555 1444 l 833 1444 l 833 1389 l 888 1389 l 888 1333 l 944 1333 l 944 777 l 611 777 l 611 1055 l 500 1055 l 500 1000 l 444 1000 l 444 888 l 389 888 l 389 777 l 333 777 l 333 444 l 389 444 l 389 389 l 444 389 l 444 333 l 667 333 l 667 389 l 777 389 l 777 444 l 833 444 l 833 500 l 944 500 l 944 111 l 888 111 l 888 55 l 777 55 l 777 0 l 722 0 l 722 -55 l 667 -55 l 667 -166 l 611 -166 l 611 -277 l 333 -277 z "},"È":{"ha":1111,"x_min":0,"x_max":1000,"o":"m 111 0 l 111 944 l 222 944 l 222 1000 l 0 1000 l 0 1111 l 55 1111 l 55 1222 l 111 1222 l 111 1333 l 1000 1333 l 1000 1222 l 944 1222 l 944 1111 l 888 1111 l 888 1000 l 444 1000 l 444 777 l 888 777 l 888 500 l 444 500 l 444 277 l 888 277 l 888 0 l 111 0 m 500 1389 l 500 1444 l 389 1444 l 389 1499 l 277 1499 l 277 1555 l 166 1555 l 166 1833 l 277 1833 l 277 1777 l 389 1777 l 389 1722 l 500 1722 l 500 1666 l 611 1666 l 611 1389 l 500 1389 z "},"É":{"ha":1111,"x_min":0,"x_max":1000,"o":"m 111 0 l 111 944 l 222 944 l 222 1000 l 0 1000 l 0 1111 l 55 1111 l 55 1222 l 111 1222 l 111 1333 l 1000 1333 l 1000 1222 l 944 1222 l 944 1111 l 888 1111 l 888 1000 l 444 1000 l 444 777 l 888 777 l 888 500 l 444 500 l 444 277 l 888 277 l 888 0 l 111 0 m 277 1389 l 277 1666 l 389 1666 l 389 1722 l 500 1722 l 500 1777 l 611 1777 l 611 1833 l 722 1833 l 722 1555 l 611 1555 l 611 1499 l 500 1499 l 500 1444 l 389 1444 l 389 1389 l 277 1389 z "},"Ê":{"ha":1111,"x_min":0,"x_max":1000,"o":"m 111 0 l 111 944 l 222 944 l 222 1000 l 0 1000 l 0 1111 l 55 1111 l 55 1222 l 111 1222 l 111 1333 l 1000 1333 l 1000 1222 l 944 1222 l 944 1111 l 888 1111 l 888 1000 l 444 1000 l 444 777 l 888 777 l 888 500 l 444 500 l 444 277 l 888 277 l 888 0 l 111 0 m 166 1389 l 166 1444 l 222 1444 l 222 1499 l 277 1499 l 277 1555 l 333 1555 l 333 1611 l 389 1611 l 389 1666 l 444 1666 l 444 1722 l 611 1722 l 611 1666 l 667 1666 l 667 1611 l 722 1611 l 722 1555 l 777 1555 l 777 1499 l 833 1499 l 833 1444 l 888 1444 l 888 1389 l 611 1389 l 611 1444 l 555 1444 l 555 1499 l 500 1499 l 500 1444 l 444 1444 l 444 1389 l 166 1389 z "},"Ë":{"ha":1111,"x_min":0,"x_max":1000,"o":"m 111 0 l 111 944 l 222 944 l 222 1000 l 0 1000 l 0 1111 l 55 1111 l 55 1222 l 111 1222 l 111 1333 l 1000 1333 l 1000 1222 l 944 1222 l 944 1111 l 888 1111 l 888 1000 l 444 1000 l 444 777 l 888 777 l 888 500 l 444 500 l 444 277 l 888 277 l 888 0 l 111 0 m 277 1389 l 277 1444 l 166 1444 l 166 1722 l 277 1722 l 277 1666 l 389 1666 l 389 1389 l 277 1389 m 611 1389 l 611 1444 l 500 1444 l 500 1722 l 611 1722 l 611 1666 l 722 1666 l 722 1389 l 611 1389 z "},"Ì":{"ha":555,"x_min":0,"x_max":444,"o":"m 333 -111 l 333 -55 l 222 -55 l 222 0 l 111 0 l 111 1444 l 222 1444 l 222 1389 l 333 1389 l 333 1333 l 444 1333 l 444 -111 l 333 -111 m 333 1499 l 333 1555 l 222 1555 l 222 1611 l 111 1611 l 111 1666 l 0 1666 l 0 1944 l 111 1944 l 111 1889 l 222 1889 l 222 1833 l 333 1833 l 333 1777 l 444 1777 l 444 1499 l 333 1499 z "},"Í":{"ha":555,"x_min":0,"x_max":444,"o":"m 222 -111 l 222 -55 l 111 -55 l 111 0 l 0 0 l 0 1444 l 111 1444 l 111 1389 l 222 1389 l 222 1333 l 333 1333 l 333 -111 l 222 -111 m 0 1499 l 0 1777 l 111 1777 l 111 1833 l 222 1833 l 222 1889 l 333 1889 l 333 1944 l 444 1944 l 444 1666 l 333 1666 l 333 1611 l 222 1611 l 222 1555 l 111 1555 l 111 1499 l 0 1499 z "},"Î":{"ha":833,"x_min":0,"x_max":722,"o":"m 444 -111 l 444 -55 l 333 -55 l 333 0 l 222 0 l 222 1444 l 333 1444 l 333 1389 l 444 1389 l 444 1333 l 555 1333 l 555 -111 l 444 -111 m 0 1499 l 0 1555 l 55 1555 l 55 1611 l 111 1611 l 111 1666 l 166 1666 l 166 1722 l 222 1722 l 222 1777 l 277 1777 l 277 1833 l 444 1833 l 444 1777 l 500 1777 l 500 1722 l 555 1722 l 555 1666 l 611 1666 l 611 1611 l 667 1611 l 667 1555 l 722 1555 l 722 1499 l 444 1499 l 444 1555 l 389 1555 l 389 1611 l 333 1611 l 333 1555 l 277 1555 l 277 1499 l 0 1499 z "},"Ï":{"ha":667,"x_min":0,"x_max":555,"o":"m 333 -111 l 333 -55 l 222 -55 l 222 0 l 111 0 l 111 1444 l 222 1444 l 222 1389 l 333 1389 l 333 1333 l 444 1333 l 444 -111 l 333 -111 m 111 1499 l 111 1555 l 0 1555 l 0 1833 l 111 1833 l 111 1777 l 222 1777 l 222 1499 l 111 1499 m 444 1499 l 444 1555 l 333 1555 l 333 1833 l 444 1833 l 444 1777 l 555 1777 l 555 1499 l 444 1499 z "},"Ð":{"ha":1278,"x_min":0,"x_max":1166,"o":"m 611 444 l 611 500 l 667 500 l 667 555 l 722 555 l 722 611 l 777 611 l 777 722 l 833 722 l 833 944 l 777 944 l 777 1000 l 722 1000 l 722 1055 l 555 1055 l 555 944 l 777 944 l 777 833 l 722 833 l 722 722 l 667 722 l 667 611 l 555 611 l 555 444 l 611 444 m 222 0 l 222 555 l 333 555 l 333 611 l 0 611 l 0 722 l 55 722 l 55 833 l 111 833 l 111 944 l 222 944 l 222 1055 l 333 1055 l 333 1111 l 111 1111 l 111 1222 l 166 1222 l 166 1333 l 222 1333 l 222 1444 l 611 1444 l 611 1389 l 777 1389 l 777 1333 l 888 1333 l 888 1278 l 944 1278 l 944 1222 l 1000 1222 l 1000 1166 l 1055 1166 l 1055 1111 l 1111 1111 l 1111 1000 l 1166 1000 l 1166 722 l 1111 722 l 1111 555 l 1055 555 l 1055 444 l 1000 444 l 1000 389 l 944 389 l 944 333 l 888 333 l 888 277 l 833 277 l 833 222 l 777 222 l 777 166 l 722 166 l 722 111 l 611 111 l 611 55 l 500 55 l 500 0 l 222 0 z "},"Ñ":{"ha":1055,"x_min":0,"x_max":944,"o":"m 222 -111 l 222 -55 l 111 -55 l 111 0 l 0 0 l 0 1333 l 333 1333 l 333 1222 l 389 1222 l 389 1111 l 444 1111 l 444 1000 l 500 1000 l 500 888 l 555 888 l 555 777 l 611 777 l 611 667 l 667 667 l 667 777 l 611 777 l 611 1444 l 722 1444 l 722 1389 l 833 1389 l 833 1333 l 944 1333 l 944 0 l 611 0 l 611 111 l 555 111 l 555 222 l 500 222 l 500 333 l 444 333 l 444 444 l 389 444 l 389 555 l 333 555 l 333 667 l 277 667 l 277 555 l 333 555 l 333 -111 l 222 -111 m 222 1499 l 222 1555 l 166 1555 l 166 1666 l 222 1666 l 222 1722 l 277 1722 l 277 1777 l 333 1777 l 333 1833 l 500 1833 l 500 1777 l 555 1777 l 555 1722 l 611 1722 l 611 1777 l 667 1777 l 667 1833 l 777 1833 l 777 1777 l 833 1777 l 833 1666 l 777 1666 l 777 1611 l 722 1611 l 722 1555 l 667 1555 l 667 1499 l 500 1499 l 500 1555 l 444 1555 l 444 1611 l 389 1611 l 389 1555 l 333 1555 l 333 1499 l 222 1499 z "},"Ò":{"ha":1055,"x_min":0,"x_max":944,"o":"m 500 333 l 500 389 l 555 389 l 555 500 l 611 500 l 611 888 l 555 888 l 555 1000 l 500 1000 l 500 1055 l 444 1055 l 444 1000 l 389 1000 l 389 888 l 333 888 l 333 389 l 389 389 l 389 333 l 500 333 m 277 0 l 277 55 l 166 55 l 166 111 l 111 111 l 111 166 l 55 166 l 55 277 l 0 277 l 0 944 l 55 944 l 55 1111 l 111 1111 l 111 1222 l 166 1222 l 166 1278 l 222 1278 l 222 1333 l 333 1333 l 333 1389 l 555 1389 l 555 1333 l 667 1333 l 667 1278 l 722 1278 l 722 1222 l 777 1222 l 777 1166 l 833 1166 l 833 1055 l 888 1055 l 888 944 l 944 944 l 944 444 l 888 444 l 888 333 l 833 333 l 833 222 l 777 222 l 777 166 l 722 166 l 722 111 l 667 111 l 667 55 l 555 55 l 555 0 l 277 0 m 444 1444 l 444 1499 l 333 1499 l 333 1555 l 222 1555 l 222 1611 l 111 1611 l 111 1889 l 222 1889 l 222 1833 l 333 1833 l 333 1777 l 444 1777 l 444 1722 l 555 1722 l 555 1444 l 444 1444 z "},"Ó":{"ha":1055,"x_min":0,"x_max":944,"o":"m 500 333 l 500 389 l 555 389 l 555 500 l 611 500 l 611 888 l 555 888 l 555 1000 l 500 1000 l 500 1055 l 444 1055 l 444 1000 l 389 1000 l 389 888 l 333 888 l 333 389 l 389 389 l 389 333 l 500 333 m 277 0 l 277 55 l 166 55 l 166 111 l 111 111 l 111 166 l 55 166 l 55 277 l 0 277 l 0 944 l 55 944 l 55 1111 l 111 1111 l 111 1222 l 166 1222 l 166 1278 l 222 1278 l 222 1333 l 333 1333 l 333 1389 l 555 1389 l 555 1333 l 667 1333 l 667 1278 l 722 1278 l 722 1222 l 777 1222 l 777 1166 l 833 1166 l 833 1055 l 888 1055 l 888 944 l 944 944 l 944 444 l 888 444 l 888 333 l 833 333 l 833 222 l 777 222 l 777 166 l 722 166 l 722 111 l 667 111 l 667 55 l 555 55 l 555 0 l 277 0 m 333 1444 l 333 1722 l 444 1722 l 444 1777 l 555 1777 l 555 1833 l 667 1833 l 667 1889 l 777 1889 l 777 1611 l 667 1611 l 667 1555 l 555 1555 l 555 1499 l 444 1499 l 444 1444 l 333 1444 z "},"Ô":{"ha":1055,"x_min":0,"x_max":944,"o":"m 500 333 l 500 389 l 555 389 l 555 500 l 611 500 l 611 888 l 555 888 l 555 1000 l 500 1000 l 500 1055 l 444 1055 l 444 1000 l 389 1000 l 389 888 l 333 888 l 333 389 l 389 389 l 389 333 l 500 333 m 277 0 l 277 55 l 166 55 l 166 111 l 111 111 l 111 166 l 55 166 l 55 277 l 0 277 l 0 944 l 55 944 l 55 1111 l 111 1111 l 111 1222 l 166 1222 l 166 1278 l 222 1278 l 222 1333 l 333 1333 l 333 1389 l 555 1389 l 555 1333 l 667 1333 l 667 1278 l 722 1278 l 722 1222 l 777 1222 l 777 1166 l 833 1166 l 833 1055 l 888 1055 l 888 944 l 944 944 l 944 444 l 888 444 l 888 333 l 833 333 l 833 222 l 777 222 l 777 166 l 722 166 l 722 111 l 667 111 l 667 55 l 555 55 l 555 0 l 277 0 m 111 1444 l 111 1499 l 166 1499 l 166 1555 l 222 1555 l 222 1611 l 277 1611 l 277 1666 l 333 1666 l 333 1722 l 389 1722 l 389 1777 l 555 1777 l 555 1722 l 611 1722 l 611 1666 l 667 1666 l 667 1611 l 722 1611 l 722 1555 l 777 1555 l 777 1499 l 833 1499 l 833 1444 l 555 1444 l 555 1499 l 500 1499 l 500 1555 l 444 1555 l 444 1499 l 389 1499 l 389 1444 l 111 1444 z "},"Õ":{"ha":1055,"x_min":0,"x_max":944,"o":"m 500 333 l 500 389 l 555 389 l 555 500 l 611 500 l 611 888 l 555 888 l 555 1000 l 500 1000 l 500 1055 l 444 1055 l 444 1000 l 389 1000 l 389 888 l 333 888 l 333 389 l 389 389 l 389 333 l 500 333 m 277 0 l 277 55 l 166 55 l 166 111 l 111 111 l 111 166 l 55 166 l 55 277 l 0 277 l 0 944 l 55 944 l 55 1111 l 111 1111 l 111 1222 l 166 1222 l 166 1278 l 222 1278 l 222 1333 l 333 1333 l 333 1389 l 555 1389 l 555 1333 l 667 1333 l 667 1278 l 722 1278 l 722 1222 l 777 1222 l 777 1166 l 833 1166 l 833 1055 l 888 1055 l 888 944 l 944 944 l 944 444 l 888 444 l 888 333 l 833 333 l 833 222 l 777 222 l 777 166 l 722 166 l 722 111 l 667 111 l 667 55 l 555 55 l 555 0 l 277 0 m 166 1444 l 166 1499 l 111 1499 l 111 1611 l 166 1611 l 166 1666 l 222 1666 l 222 1722 l 277 1722 l 277 1777 l 444 1777 l 444 1722 l 500 1722 l 500 1666 l 555 1666 l 555 1722 l 611 1722 l 611 1777 l 722 1777 l 722 1722 l 777 1722 l 777 1611 l 722 1611 l 722 1555 l 667 1555 l 667 1499 l 611 1499 l 611 1444 l 444 1444 l 444 1499 l 389 1499 l 389 1555 l 333 1555 l 333 1499 l 277 1499 l 277 1444 l 166 1444 z "},"Ö":{"ha":1055,"x_min":0,"x_max":944,"o":"m 500 333 l 500 389 l 555 389 l 555 500 l 611 500 l 611 888 l 555 888 l 555 1000 l 500 1000 l 500 1055 l 444 1055 l 444 1000 l 389 1000 l 389 888 l 333 888 l 333 389 l 389 389 l 389 333 l 500 333 m 277 0 l 277 55 l 166 55 l 166 111 l 111 111 l 111 166 l 55 166 l 55 277 l 0 277 l 0 944 l 55 944 l 55 1111 l 111 1111 l 111 1222 l 166 1222 l 166 1278 l 222 1278 l 222 1333 l 333 1333 l 333 1389 l 555 1389 l 555 1333 l 667 1333 l 667 1278 l 722 1278 l 722 1222 l 777 1222 l 777 1166 l 833 1166 l 833 1055 l 888 1055 l 888 944 l 944 944 l 944 444 l 888 444 l 888 333 l 833 333 l 833 222 l 777 222 l 777 166 l 722 166 l 722 111 l 667 111 l 667 55 l 555 55 l 555 0 l 277 0 m 222 1444 l 222 1499 l 111 1499 l 111 1777 l 222 1777 l 222 1722 l 333 1722 l 333 1444 l 222 1444 m 555 1444 l 555 1499 l 444 1499 l 444 1777 l 555 1777 l 555 1722 l 667 1722 l 667 1444 l 555 1444 z "},"×":{"ha":1111,"x_min":-55,"x_max":1000,"o":"m 166 55 l 166 111 l 111 111 l 111 166 l 55 166 l 55 222 l 0 222 l 0 277 l -55 277 l -55 333 l 0 333 l 0 389 l 55 389 l 55 444 l 111 444 l 111 500 l 166 500 l 166 555 l 222 555 l 222 611 l 166 611 l 166 667 l 111 667 l 111 722 l 55 722 l 55 777 l 0 777 l 0 833 l -55 833 l -55 888 l 0 888 l 0 944 l 55 944 l 55 1000 l 111 1000 l 111 1055 l 166 1055 l 166 1111 l 222 1111 l 222 1055 l 277 1055 l 277 1000 l 333 1000 l 333 944 l 389 944 l 389 888 l 444 888 l 444 833 l 500 833 l 500 888 l 555 888 l 555 944 l 611 944 l 611 1000 l 667 1000 l 667 1055 l 722 1055 l 722 1111 l 777 1111 l 777 1055 l 833 1055 l 833 1000 l 888 1000 l 888 944 l 944 944 l 944 888 l 1000 888 l 1000 833 l 944 833 l 944 777 l 888 777 l 888 722 l 833 722 l 833 667 l 777 667 l 777 611 l 722 611 l 722 555 l 777 555 l 777 500 l 833 500 l 833 444 l 888 444 l 888 389 l 944 389 l 944 333 l 1000 333 l 1000 277 l 944 277 l 944 222 l 888 222 l 888 166 l 833 166 l 833 111 l 777 111 l 777 55 l 722 55 l 722 111 l 667 111 l 667 166 l 611 166 l 611 222 l 555 222 l 555 277 l 500 277 l 500 333 l 444 333 l 444 277 l 389 277 l 389 222 l 333 222 l 333 166 l 277 166 l 277 111 l 222 111 l 222 55 l 166 55 z "},"Ù":{"ha":1000,"x_min":0,"x_max":888,"o":"m 777 -111 l 777 -55 l 667 -55 l 667 0 l 555 0 l 555 111 l 611 111 l 611 166 l 555 166 l 555 111 l 500 111 l 500 55 l 389 55 l 389 0 l 277 0 l 277 -55 l 55 -55 l 55 0 l 0 0 l 0 1333 l 333 1333 l 333 333 l 389 333 l 389 389 l 500 389 l 500 444 l 555 444 l 555 1444 l 667 1444 l 667 1389 l 777 1389 l 777 1333 l 888 1333 l 888 -111 l 777 -111 m 555 1499 l 555 1555 l 444 1555 l 444 1611 l 333 1611 l 333 1666 l 222 1666 l 222 1944 l 333 1944 l 333 1889 l 444 1889 l 444 1833 l 555 1833 l 555 1777 l 667 1777 l 667 1499 l 555 1499 z "},"Ú":{"ha":1000,"x_min":0,"x_max":888,"o":"m 777 -111 l 777 -55 l 667 -55 l 667 0 l 555 0 l 555 111 l 611 111 l 611 166 l 555 166 l 555 111 l 500 111 l 500 55 l 389 55 l 389 0 l 277 0 l 277 -55 l 55 -55 l 55 0 l 0 0 l 0 1333 l 333 1333 l 333 333 l 389 333 l 389 389 l 500 389 l 500 444 l 555 444 l 555 1444 l 667 1444 l 667 1389 l 777 1389 l 777 1333 l 888 1333 l 888 -111 l 777 -111 m 222 1499 l 222 1777 l 333 1777 l 333 1833 l 444 1833 l 444 1889 l 555 1889 l 555 1944 l 667 1944 l 667 1666 l 555 1666 l 555 1611 l 444 1611 l 444 1555 l 333 1555 l 333 1499 l 222 1499 z "},"Û":{"ha":1000,"x_min":0,"x_max":888,"o":"m 777 -111 l 777 -55 l 667 -55 l 667 0 l 555 0 l 555 111 l 611 111 l 611 166 l 555 166 l 555 111 l 500 111 l 500 55 l 389 55 l 389 0 l 277 0 l 277 -55 l 55 -55 l 55 0 l 0 0 l 0 1333 l 333 1333 l 333 333 l 389 333 l 389 389 l 500 389 l 500 444 l 555 444 l 555 1444 l 667 1444 l 667 1389 l 777 1389 l 777 1333 l 888 1333 l 888 -111 l 777 -111 m 55 1499 l 55 1555 l 111 1555 l 111 1611 l 166 1611 l 166 1666 l 222 1666 l 222 1722 l 277 1722 l 277 1777 l 333 1777 l 333 1833 l 500 1833 l 500 1777 l 555 1777 l 555 1722 l 611 1722 l 611 1666 l 667 1666 l 667 1611 l 722 1611 l 722 1555 l 777 1555 l 777 1499 l 500 1499 l 500 1555 l 444 1555 l 444 1611 l 389 1611 l 389 1555 l 333 1555 l 333 1499 l 55 1499 z "},"Ü":{"ha":1000,"x_min":0,"x_max":888,"o":"m 777 -111 l 777 -55 l 667 -55 l 667 0 l 555 0 l 555 111 l 611 111 l 611 166 l 555 166 l 555 111 l 500 111 l 500 55 l 389 55 l 389 0 l 277 0 l 277 -55 l 55 -55 l 55 0 l 0 0 l 0 1333 l 333 1333 l 333 333 l 389 333 l 389 389 l 500 389 l 500 444 l 555 444 l 555 1444 l 667 1444 l 667 1389 l 777 1389 l 777 1333 l 888 1333 l 888 -111 l 777 -111 m 277 1499 l 277 1555 l 166 1555 l 166 1833 l 277 1833 l 277 1777 l 389 1777 l 389 1499 l 277 1499 m 611 1499 l 611 1555 l 500 1555 l 500 1833 l 611 1833 l 611 1777 l 722 1777 l 722 1499 l 611 1499 z "},"Ý":{"ha":1166,"x_min":0,"x_max":1055,"o":"m 55 0 l 55 111 l 111 111 l 111 222 l 166 222 l 166 333 l 222 333 l 222 444 l 277 444 l 277 555 l 333 555 l 333 722 l 277 722 l 277 833 l 222 833 l 222 944 l 166 944 l 166 1055 l 111 1055 l 111 1166 l 55 1166 l 55 1278 l 0 1278 l 0 1333 l 111 1333 l 111 1389 l 222 1389 l 222 1444 l 333 1444 l 333 1333 l 389 1333 l 389 1222 l 444 1222 l 444 1111 l 500 1111 l 500 1000 l 555 1000 l 555 888 l 611 888 l 611 1000 l 555 1000 l 555 1111 l 611 1111 l 611 1222 l 667 1222 l 667 1333 l 722 1333 l 722 1389 l 1055 1389 l 1055 1278 l 1000 1278 l 1000 1166 l 944 1166 l 944 1055 l 888 1055 l 888 944 l 833 944 l 833 833 l 777 833 l 777 722 l 722 722 l 722 611 l 667 611 l 667 500 l 611 500 l 611 389 l 555 389 l 555 277 l 500 277 l 500 166 l 444 166 l 444 55 l 389 55 l 389 0 l 55 0 m 333 1499 l 333 1777 l 444 1777 l 444 1833 l 555 1833 l 555 1889 l 667 1889 l 667 1944 l 777 1944 l 777 1666 l 667 1666 l 667 1611 l 555 1611 l 555 1555 l 444 1555 l 444 1499 l 333 1499 z "},"Þ":{"ha":1111,"x_min":0,"x_max":1000,"o":"m 500 555 l 500 611 l 611 611 l 611 667 l 667 667 l 667 833 l 555 833 l 555 888 l 444 888 l 444 555 l 500 555 m 333 -111 l 333 -55 l 222 -55 l 222 0 l 111 0 l 111 888 l 222 888 l 222 944 l 0 944 l 0 1055 l 55 1055 l 55 1166 l 111 1166 l 111 1499 l 222 1499 l 222 1444 l 333 1444 l 333 1389 l 444 1389 l 444 1222 l 611 1222 l 611 1166 l 722 1166 l 722 1111 l 833 1111 l 833 1055 l 888 1055 l 888 1000 l 944 1000 l 944 888 l 1000 888 l 1000 611 l 944 611 l 944 500 l 888 500 l 888 444 l 833 444 l 833 389 l 777 389 l 777 333 l 667 333 l 667 277 l 555 277 l 555 222 l 444 222 l 444 -111 l 333 -111 z "},"à":{"ha":944,"x_min":0,"x_max":833,"o":"m 444 389 l 444 500 l 389 500 l 389 667 l 333 667 l 333 389 l 444 389 m 222 -111 l 222 -55 l 111 -55 l 111 0 l 0 0 l 0 1111 l 333 1111 l 333 944 l 389 944 l 389 1166 l 222 1166 l 222 1278 l 555 1278 l 555 1111 l 611 1111 l 611 888 l 667 888 l 667 667 l 722 667 l 722 444 l 777 444 l 777 222 l 833 222 l 833 0 l 555 0 l 555 111 l 333 111 l 333 -111 l 222 -111 m 444 1333 l 444 1389 l 333 1389 l 333 1444 l 222 1444 l 222 1499 l 111 1499 l 111 1777 l 222 1777 l 222 1722 l 333 1722 l 333 1666 l 444 1666 l 444 1611 l 555 1611 l 555 1333 l 444 1333 z "},"á":{"ha":944,"x_min":0,"x_max":833,"o":"m 444 389 l 444 500 l 389 500 l 389 667 l 333 667 l 333 389 l 444 389 m 222 -111 l 222 -55 l 111 -55 l 111 0 l 0 0 l 0 1111 l 333 1111 l 333 944 l 389 944 l 389 1166 l 222 1166 l 222 1278 l 555 1278 l 555 1111 l 611 1111 l 611 888 l 667 888 l 667 667 l 722 667 l 722 444 l 777 444 l 777 222 l 833 222 l 833 0 l 555 0 l 555 111 l 333 111 l 333 -111 l 222 -111 m 333 1333 l 333 1611 l 444 1611 l 444 1666 l 555 1666 l 555 1722 l 667 1722 l 667 1777 l 777 1777 l 777 1499 l 667 1499 l 667 1444 l 555 1444 l 555 1389 l 444 1389 l 444 1333 l 333 1333 z "},"â":{"ha":944,"x_min":0,"x_max":833,"o":"m 444 389 l 444 500 l 389 500 l 389 667 l 333 667 l 333 389 l 444 389 m 222 -111 l 222 -55 l 111 -55 l 111 0 l 0 0 l 0 1111 l 333 1111 l 333 944 l 389 944 l 389 1166 l 222 1166 l 222 1278 l 555 1278 l 555 1111 l 611 1111 l 611 888 l 667 888 l 667 667 l 722 667 l 722 444 l 777 444 l 777 222 l 833 222 l 833 0 l 555 0 l 555 111 l 333 111 l 333 -111 l 222 -111 m 55 1333 l 55 1389 l 111 1389 l 111 1444 l 166 1444 l 166 1499 l 222 1499 l 222 1555 l 277 1555 l 277 1611 l 333 1611 l 333 1666 l 500 1666 l 500 1611 l 555 1611 l 555 1555 l 611 1555 l 611 1499 l 667 1499 l 667 1444 l 722 1444 l 722 1389 l 777 1389 l 777 1333 l 500 1333 l 500 1389 l 444 1389 l 444 1444 l 389 1444 l 389 1389 l 333 1389 l 333 1333 l 55 1333 z "},"ã":{"ha":944,"x_min":0,"x_max":833,"o":"m 444 389 l 444 500 l 389 500 l 389 667 l 333 667 l 333 389 l 444 389 m 222 -111 l 222 -55 l 111 -55 l 111 0 l 0 0 l 0 1111 l 333 1111 l 333 944 l 389 944 l 389 1166 l 222 1166 l 222 1278 l 555 1278 l 555 1111 l 611 1111 l 611 888 l 667 888 l 667 667 l 722 667 l 722 444 l 777 444 l 777 222 l 833 222 l 833 0 l 555 0 l 555 111 l 333 111 l 333 -111 l 222 -111 m 111 1333 l 111 1389 l 55 1389 l 55 1499 l 111 1499 l 111 1555 l 166 1555 l 166 1611 l 222 1611 l 222 1666 l 389 1666 l 389 1611 l 444 1611 l 444 1555 l 500 1555 l 500 1611 l 555 1611 l 555 1666 l 667 1666 l 667 1611 l 722 1611 l 722 1499 l 667 1499 l 667 1444 l 611 1444 l 611 1389 l 555 1389 l 555 1333 l 389 1333 l 389 1389 l 333 1389 l 333 1444 l 277 1444 l 277 1389 l 222 1389 l 222 1333 l 111 1333 z "},"ä":{"ha":944,"x_min":0,"x_max":833,"o":"m 444 389 l 444 500 l 389 500 l 389 667 l 333 667 l 333 389 l 444 389 m 222 -111 l 222 -55 l 111 -55 l 111 0 l 0 0 l 0 1111 l 333 1111 l 333 944 l 389 944 l 389 1166 l 222 1166 l 222 1278 l 555 1278 l 555 1111 l 611 1111 l 611 888 l 667 888 l 667 667 l 722 667 l 722 444 l 777 444 l 777 222 l 833 222 l 833 0 l 555 0 l 555 111 l 333 111 l 333 -111 l 222 -111 m 222 1333 l 222 1389 l 111 1389 l 111 1666 l 222 1666 l 222 1611 l 333 1611 l 333 1333 l 222 1333 m 555 1333 l 555 1389 l 444 1389 l 444 1666 l 555 1666 l 555 1611 l 667 1611 l 667 1333 l 555 1333 z "},"å":{"ha":944,"x_min":0,"x_max":833,"o":"m 444 389 l 444 500 l 389 500 l 389 667 l 333 667 l 333 389 l 444 389 m 222 -111 l 222 -55 l 111 -55 l 111 0 l 0 0 l 0 1111 l 333 1111 l 333 944 l 389 944 l 389 1166 l 222 1166 l 222 1278 l 555 1278 l 555 1111 l 611 1111 l 611 888 l 667 888 l 667 667 l 722 667 l 722 444 l 777 444 l 777 222 l 833 222 l 833 0 l 555 0 l 555 111 l 333 111 l 333 -111 l 222 -111 m 222 1333 l 222 1389 l 333 1389 l 333 1333 l 222 1333 m 111 1389 l 111 1555 l 222 1555 l 222 1389 l 111 1389 m 333 1389 l 333 1555 l 444 1555 l 444 1389 l 333 1389 m 222 1555 l 222 1611 l 333 1611 l 333 1555 l 222 1555 z "},"æ":{"ha":1333,"x_min":0,"x_max":1222,"o":"m 444 389 l 444 500 l 389 500 l 389 667 l 333 667 l 333 389 l 444 389 m 222 -111 l 222 -55 l 111 -55 l 111 0 l 0 0 l 0 1111 l 333 1111 l 333 944 l 389 944 l 389 1166 l 222 1166 l 222 1278 l 555 1278 l 555 1111 l 1222 1111 l 1222 1000 l 1166 1000 l 1166 888 l 1111 888 l 1111 777 l 833 777 l 833 667 l 1111 667 l 1111 389 l 833 389 l 833 277 l 1111 277 l 1111 0 l 500 0 l 500 111 l 333 111 l 333 -111 l 222 -111 z "},"ç":{"ha":1000,"x_min":0,"x_max":888,"o":"m 222 -277 l 222 -166 l 277 -166 l 277 -55 l 389 -55 l 389 0 l 277 0 l 277 55 l 166 55 l 166 111 l 111 111 l 111 166 l 55 166 l 55 277 l 0 277 l 0 722 l 55 722 l 55 833 l 111 833 l 111 944 l 166 944 l 166 1000 l 222 1000 l 222 1055 l 277 1055 l 277 1111 l 389 1111 l 389 1166 l 500 1166 l 500 1222 l 777 1222 l 777 1166 l 833 1166 l 833 1111 l 888 1111 l 888 667 l 555 667 l 555 833 l 444 833 l 444 777 l 389 777 l 389 667 l 333 667 l 333 389 l 389 389 l 389 333 l 611 333 l 611 389 l 722 389 l 722 444 l 777 444 l 777 500 l 888 500 l 888 111 l 833 111 l 833 55 l 722 55 l 722 0 l 667 0 l 667 -55 l 611 -55 l 611 -166 l 555 -166 l 555 -277 l 222 -277 z "},"è":{"ha":1055,"x_min":0,"x_max":944,"o":"m 111 0 l 111 722 l 222 722 l 222 777 l 0 777 l 0 888 l 55 888 l 55 1000 l 111 1000 l 111 1111 l 944 1111 l 944 1000 l 888 1000 l 888 888 l 833 888 l 833 777 l 444 777 l 444 667 l 833 667 l 833 389 l 444 389 l 444 277 l 833 277 l 833 0 l 111 0 m 500 1166 l 500 1222 l 389 1222 l 389 1278 l 277 1278 l 277 1333 l 166 1333 l 166 1611 l 277 1611 l 277 1555 l 389 1555 l 389 1499 l 500 1499 l 500 1444 l 611 1444 l 611 1166 l 500 1166 z "},"é":{"ha":1055,"x_min":0,"x_max":944,"o":"m 111 0 l 111 722 l 222 722 l 222 777 l 0 777 l 0 888 l 55 888 l 55 1000 l 111 1000 l 111 1111 l 944 1111 l 944 1000 l 888 1000 l 888 888 l 833 888 l 833 777 l 444 777 l 444 667 l 833 667 l 833 389 l 444 389 l 444 277 l 833 277 l 833 0 l 111 0 m 277 1166 l 277 1444 l 389 1444 l 389 1499 l 500 1499 l 500 1555 l 611 1555 l 611 1611 l 722 1611 l 722 1333 l 611 1333 l 611 1278 l 500 1278 l 500 1222 l 389 1222 l 389 1166 l 277 1166 z "},"ê":{"ha":1055,"x_min":0,"x_max":944,"o":"m 111 0 l 111 722 l 222 722 l 222 777 l 0 777 l 0 888 l 55 888 l 55 1000 l 111 1000 l 111 1111 l 944 1111 l 944 1000 l 888 1000 l 888 888 l 833 888 l 833 777 l 444 777 l 444 667 l 833 667 l 833 389 l 444 389 l 444 277 l 833 277 l 833 0 l 111 0 m 166 1166 l 166 1222 l 222 1222 l 222 1278 l 277 1278 l 277 1333 l 333 1333 l 333 1389 l 389 1389 l 389 1444 l 444 1444 l 444 1499 l 611 1499 l 611 1444 l 667 1444 l 667 1389 l 722 1389 l 722 1333 l 777 1333 l 777 1278 l 833 1278 l 833 1222 l 888 1222 l 888 1166 l 611 1166 l 611 1222 l 555 1222 l 555 1278 l 500 1278 l 500 1222 l 444 1222 l 444 1166 l 166 1166 z "},"ë":{"ha":1055,"x_min":0,"x_max":944,"o":"m 111 0 l 111 722 l 222 722 l 222 777 l 0 777 l 0 888 l 55 888 l 55 1000 l 111 1000 l 111 1111 l 944 1111 l 944 1000 l 888 1000 l 888 888 l 833 888 l 833 777 l 444 777 l 444 667 l 833 667 l 833 389 l 444 389 l 444 277 l 833 277 l 833 0 l 111 0 m 277 1166 l 277 1222 l 166 1222 l 166 1499 l 277 1499 l 277 1444 l 389 1444 l 389 1166 l 277 1166 m 611 1166 l 611 1222 l 500 1222 l 500 1499 l 611 1499 l 611 1444 l 722 1444 l 722 1166 l 611 1166 z "},"ì":{"ha":555,"x_min":0,"x_max":444,"o":"m 333 -111 l 333 -55 l 222 -55 l 222 0 l 111 0 l 111 1222 l 222 1222 l 222 1166 l 333 1166 l 333 1111 l 444 1111 l 444 -111 l 333 -111 m 333 1278 l 333 1333 l 222 1333 l 222 1389 l 111 1389 l 111 1444 l 0 1444 l 0 1722 l 111 1722 l 111 1666 l 222 1666 l 222 1611 l 333 1611 l 333 1555 l 444 1555 l 444 1278 l 333 1278 z "},"í":{"ha":555,"x_min":0,"x_max":444,"o":"m 222 -111 l 222 -55 l 111 -55 l 111 0 l 0 0 l 0 1222 l 111 1222 l 111 1166 l 222 1166 l 222 1111 l 333 1111 l 333 -111 l 222 -111 m 0 1278 l 0 1555 l 111 1555 l 111 1611 l 222 1611 l 222 1666 l 333 1666 l 333 1722 l 444 1722 l 444 1444 l 333 1444 l 333 1389 l 222 1389 l 222 1333 l 111 1333 l 111 1278 l 0 1278 z "},"î":{"ha":833,"x_min":0,"x_max":722,"o":"m 444 -111 l 444 -55 l 333 -55 l 333 0 l 222 0 l 222 1222 l 333 1222 l 333 1166 l 444 1166 l 444 1111 l 555 1111 l 555 -111 l 444 -111 m 0 1278 l 0 1333 l 55 1333 l 55 1389 l 111 1389 l 111 1444 l 166 1444 l 166 1499 l 222 1499 l 222 1555 l 277 1555 l 277 1611 l 444 1611 l 444 1555 l 500 1555 l 500 1499 l 555 1499 l 555 1444 l 611 1444 l 611 1389 l 667 1389 l 667 1333 l 722 1333 l 722 1278 l 444 1278 l 444 1333 l 389 1333 l 389 1389 l 333 1389 l 333 1333 l 277 1333 l 277 1278 l 0 1278 z "},"ï":{"ha":667,"x_min":0,"x_max":555,"o":"m 333 -111 l 333 -55 l 222 -55 l 222 0 l 111 0 l 111 1222 l 222 1222 l 222 1166 l 333 1166 l 333 1111 l 444 1111 l 444 -111 l 333 -111 m 111 1278 l 111 1333 l 0 1333 l 0 1611 l 111 1611 l 111 1555 l 222 1555 l 222 1278 l 111 1278 m 444 1278 l 444 1333 l 333 1333 l 333 1611 l 444 1611 l 444 1555 l 555 1555 l 555 1278 l 444 1278 z "},"ð":{"ha":1111,"x_min":0,"x_max":1000,"o":"m 500 444 l 500 500 l 555 500 l 555 555 l 611 555 l 611 611 l 667 611 l 667 777 l 611 777 l 611 833 l 444 833 l 444 777 l 611 777 l 611 667 l 555 667 l 555 555 l 444 555 l 444 444 l 500 444 m 111 0 l 111 500 l 222 500 l 222 555 l 0 555 l 0 667 l 55 667 l 55 777 l 111 777 l 111 833 l 222 833 l 222 888 l 0 888 l 0 1000 l 55 1000 l 55 1111 l 111 1111 l 111 1222 l 500 1222 l 500 1166 l 667 1166 l 667 1111 l 777 1111 l 777 1055 l 833 1055 l 833 1000 l 888 1000 l 888 944 l 944 944 l 944 833 l 1000 833 l 1000 555 l 944 555 l 944 444 l 888 444 l 888 389 l 833 389 l 833 333 l 777 333 l 777 277 l 722 277 l 722 222 l 667 222 l 667 166 l 611 166 l 611 111 l 500 111 l 500 55 l 389 55 l 389 0 l 111 0 z "},"ñ":{"ha":944,"x_min":0,"x_max":833,"o":"m 222 -111 l 222 -55 l 111 -55 l 111 0 l 0 0 l 0 1111 l 333 1111 l 333 1000 l 389 1000 l 389 888 l 444 888 l 444 777 l 500 777 l 500 667 l 555 667 l 555 777 l 500 777 l 500 1222 l 611 1222 l 611 1166 l 722 1166 l 722 1111 l 833 1111 l 833 0 l 500 0 l 500 111 l 444 111 l 444 222 l 389 222 l 389 333 l 333 333 l 333 444 l 277 444 l 277 333 l 333 333 l 333 -111 l 222 -111 m 111 1278 l 111 1333 l 55 1333 l 55 1444 l 111 1444 l 111 1499 l 166 1499 l 166 1555 l 222 1555 l 222 1611 l 389 1611 l 389 1555 l 444 1555 l 444 1499 l 500 1499 l 500 1555 l 555 1555 l 555 1611 l 667 1611 l 667 1555 l 722 1555 l 722 1444 l 667 1444 l 667 1389 l 611 1389 l 611 1333 l 555 1333 l 555 1278 l 389 1278 l 389 1333 l 333 1333 l 333 1389 l 277 1389 l 277 1333 l 222 1333 l 222 1278 l 111 1278 z "},"ò":{"ha":1000,"x_min":0,"x_max":888,"o":"m 500 333 l 500 389 l 555 389 l 555 500 l 611 500 l 611 667 l 555 667 l 555 777 l 500 777 l 500 833 l 444 833 l 444 777 l 389 777 l 389 667 l 333 667 l 333 389 l 389 389 l 389 333 l 500 333 m 277 0 l 277 55 l 166 55 l 166 111 l 111 111 l 111 166 l 55 166 l 55 277 l 0 277 l 0 777 l 55 777 l 55 888 l 111 888 l 111 1000 l 166 1000 l 166 1055 l 222 1055 l 222 1111 l 333 1111 l 333 1166 l 555 1166 l 555 1111 l 667 1111 l 667 1055 l 722 1055 l 722 1000 l 777 1000 l 777 944 l 833 944 l 833 833 l 888 833 l 888 333 l 833 333 l 833 222 l 777 222 l 777 166 l 722 166 l 722 111 l 667 111 l 667 55 l 555 55 l 555 0 l 277 0 m 444 1222 l 444 1278 l 333 1278 l 333 1333 l 222 1333 l 222 1389 l 111 1389 l 111 1666 l 222 1666 l 222 1611 l 333 1611 l 333 1555 l 444 1555 l 444 1499 l 555 1499 l 555 1222 l 444 1222 z "},"ó":{"ha":1000,"x_min":0,"x_max":888,"o":"m 500 333 l 500 389 l 555 389 l 555 500 l 611 500 l 611 667 l 555 667 l 555 777 l 500 777 l 500 833 l 444 833 l 444 777 l 389 777 l 389 667 l 333 667 l 333 389 l 389 389 l 389 333 l 500 333 m 277 0 l 277 55 l 166 55 l 166 111 l 111 111 l 111 166 l 55 166 l 55 277 l 0 277 l 0 777 l 55 777 l 55 888 l 111 888 l 111 1000 l 166 1000 l 166 1055 l 222 1055 l 222 1111 l 333 1111 l 333 1166 l 555 1166 l 555 1111 l 667 1111 l 667 1055 l 722 1055 l 722 1000 l 777 1000 l 777 944 l 833 944 l 833 833 l 888 833 l 888 333 l 833 333 l 833 222 l 777 222 l 777 166 l 722 166 l 722 111 l 667 111 l 667 55 l 555 55 l 555 0 l 277 0 m 333 1222 l 333 1499 l 444 1499 l 444 1555 l 555 1555 l 555 1611 l 667 1611 l 667 1666 l 777 1666 l 777 1389 l 667 1389 l 667 1333 l 555 1333 l 555 1278 l 444 1278 l 444 1222 l 333 1222 z "},"ô":{"ha":1000,"x_min":0,"x_max":888,"o":"m 500 333 l 500 389 l 555 389 l 555 500 l 611 500 l 611 667 l 555 667 l 555 777 l 500 777 l 500 833 l 444 833 l 444 777 l 389 777 l 389 667 l 333 667 l 333 389 l 389 389 l 389 333 l 500 333 m 277 0 l 277 55 l 166 55 l 166 111 l 111 111 l 111 166 l 55 166 l 55 277 l 0 277 l 0 777 l 55 777 l 55 888 l 111 888 l 111 1000 l 166 1000 l 166 1055 l 222 1055 l 222 1111 l 333 1111 l 333 1166 l 555 1166 l 555 1111 l 667 1111 l 667 1055 l 722 1055 l 722 1000 l 777 1000 l 777 944 l 833 944 l 833 833 l 888 833 l 888 333 l 833 333 l 833 222 l 777 222 l 777 166 l 722 166 l 722 111 l 667 111 l 667 55 l 555 55 l 555 0 l 277 0 m 111 1222 l 111 1278 l 166 1278 l 166 1333 l 222 1333 l 222 1389 l 277 1389 l 277 1444 l 333 1444 l 333 1499 l 389 1499 l 389 1555 l 555 1555 l 555 1499 l 611 1499 l 611 1444 l 667 1444 l 667 1389 l 722 1389 l 722 1333 l 777 1333 l 777 1278 l 833 1278 l 833 1222 l 555 1222 l 555 1278 l 500 1278 l 500 1333 l 444 1333 l 444 1278 l 389 1278 l 389 1222 l 111 1222 z "},"õ":{"ha":1000,"x_min":0,"x_max":888,"o":"m 500 333 l 500 389 l 555 389 l 555 500 l 611 500 l 611 667 l 555 667 l 555 777 l 500 777 l 500 833 l 444 833 l 444 777 l 389 777 l 389 667 l 333 667 l 333 389 l 389 389 l 389 333 l 500 333 m 277 0 l 277 55 l 166 55 l 166 111 l 111 111 l 111 166 l 55 166 l 55 277 l 0 277 l 0 777 l 55 777 l 55 888 l 111 888 l 111 1000 l 166 1000 l 166 1055 l 222 1055 l 222 1111 l 333 1111 l 333 1166 l 555 1166 l 555 1111 l 667 1111 l 667 1055 l 722 1055 l 722 1000 l 777 1000 l 777 944 l 833 944 l 833 833 l 888 833 l 888 333 l 833 333 l 833 222 l 777 222 l 777 166 l 722 166 l 722 111 l 667 111 l 667 55 l 555 55 l 555 0 l 277 0 m 166 1222 l 166 1278 l 111 1278 l 111 1389 l 166 1389 l 166 1444 l 222 1444 l 222 1499 l 277 1499 l 277 1555 l 444 1555 l 444 1499 l 500 1499 l 500 1444 l 555 1444 l 555 1499 l 611 1499 l 611 1555 l 722 1555 l 722 1499 l 777 1499 l 777 1389 l 722 1389 l 722 1333 l 667 1333 l 667 1278 l 611 1278 l 611 1222 l 444 1222 l 444 1278 l 389 1278 l 389 1333 l 333 1333 l 333 1278 l 277 1278 l 277 1222 l 166 1222 z "},"ö":{"ha":1000,"x_min":0,"x_max":888,"o":"m 500 333 l 500 389 l 555 389 l 555 500 l 611 500 l 611 667 l 555 667 l 555 777 l 500 777 l 500 833 l 444 833 l 444 777 l 389 777 l 389 667 l 333 667 l 333 389 l 389 389 l 389 333 l 500 333 m 277 0 l 277 55 l 166 55 l 166 111 l 111 111 l 111 166 l 55 166 l 55 277 l 0 277 l 0 777 l 55 777 l 55 888 l 111 888 l 111 1000 l 166 1000 l 166 1055 l 222 1055 l 222 1111 l 333 1111 l 333 1166 l 555 1166 l 555 1111 l 667 1111 l 667 1055 l 722 1055 l 722 1000 l 777 1000 l 777 944 l 833 944 l 833 833 l 888 833 l 888 333 l 833 333 l 833 222 l 777 222 l 777 166 l 722 166 l 722 111 l 667 111 l 667 55 l 555 55 l 555 0 l 277 0 m 222 1222 l 222 1278 l 111 1278 l 111 1555 l 222 1555 l 222 1499 l 333 1499 l 333 1222 l 222 1222 m 555 1222 l 555 1278 l 444 1278 l 444 1555 l 555 1555 l 555 1499 l 667 1499 l 667 1222 l 555 1222 z "},"÷":{"ha":944,"x_min":0,"x_max":833,"o":"m 277 55 l 277 333 l 555 333 l 555 55 l 277 55 m 0 444 l 0 722 l 833 722 l 833 444 l 0 444 m 277 833 l 277 1111 l 555 1111 l 555 833 l 277 833 z "},"ù":{"ha":1000,"x_min":0,"x_max":888,"o":"m 777 -111 l 777 -55 l 667 -55 l 667 0 l 555 0 l 555 111 l 611 111 l 611 166 l 555 166 l 555 111 l 500 111 l 500 55 l 389 55 l 389 0 l 277 0 l 277 -55 l 55 -55 l 55 0 l 0 0 l 0 1111 l 333 1111 l 333 333 l 389 333 l 389 389 l 500 389 l 500 444 l 555 444 l 555 1222 l 667 1222 l 667 1166 l 777 1166 l 777 1111 l 888 1111 l 888 -111 l 777 -111 m 555 1278 l 555 1333 l 444 1333 l 444 1389 l 333 1389 l 333 1444 l 222 1444 l 222 1722 l 333 1722 l 333 1666 l 444 1666 l 444 1611 l 555 1611 l 555 1555 l 667 1555 l 667 1278 l 555 1278 z "},"ú":{"ha":1000,"x_min":0,"x_max":888,"o":"m 777 -111 l 777 -55 l 667 -55 l 667 0 l 555 0 l 555 111 l 611 111 l 611 166 l 555 166 l 555 111 l 500 111 l 500 55 l 389 55 l 389 0 l 277 0 l 277 -55 l 55 -55 l 55 0 l 0 0 l 0 1111 l 333 1111 l 333 333 l 389 333 l 389 389 l 500 389 l 500 444 l 555 444 l 555 1222 l 667 1222 l 667 1166 l 777 1166 l 777 1111 l 888 1111 l 888 -111 l 777 -111 m 222 1278 l 222 1555 l 333 1555 l 333 1611 l 444 1611 l 444 1666 l 555 1666 l 555 1722 l 667 1722 l 667 1444 l 555 1444 l 555 1389 l 444 1389 l 444 1333 l 333 1333 l 333 1278 l 222 1278 z "},"û":{"ha":1000,"x_min":0,"x_max":888,"o":"m 777 -111 l 777 -55 l 667 -55 l 667 0 l 555 0 l 555 111 l 611 111 l 611 166 l 555 166 l 555 111 l 500 111 l 500 55 l 389 55 l 389 0 l 277 0 l 277 -55 l 55 -55 l 55 0 l 0 0 l 0 1111 l 333 1111 l 333 333 l 389 333 l 389 389 l 500 389 l 500 444 l 555 444 l 555 1222 l 667 1222 l 667 1166 l 777 1166 l 777 1111 l 888 1111 l 888 -111 l 777 -111 m 55 1278 l 55 1333 l 111 1333 l 111 1389 l 166 1389 l 166 1444 l 222 1444 l 222 1499 l 277 1499 l 277 1555 l 333 1555 l 333 1611 l 500 1611 l 500 1555 l 555 1555 l 555 1499 l 611 1499 l 611 1444 l 667 1444 l 667 1389 l 722 1389 l 722 1333 l 777 1333 l 777 1278 l 500 1278 l 500 1333 l 444 1333 l 444 1389 l 389 1389 l 389 1333 l 333 1333 l 333 1278 l 55 1278 z "},"ü":{"ha":1000,"x_min":0,"x_max":888,"o":"m 777 -111 l 777 -55 l 667 -55 l 667 0 l 555 0 l 555 111 l 611 111 l 611 166 l 555 166 l 555 111 l 500 111 l 500 55 l 389 55 l 389 0 l 277 0 l 277 -55 l 55 -55 l 55 0 l 0 0 l 0 1111 l 333 1111 l 333 333 l 389 333 l 389 389 l 500 389 l 500 444 l 555 444 l 555 1222 l 667 1222 l 667 1166 l 777 1166 l 777 1111 l 888 1111 l 888 -111 l 777 -111 m 277 1278 l 277 1333 l 166 1333 l 166 1611 l 277 1611 l 277 1555 l 389 1555 l 389 1278 l 277 1278 m 611 1278 l 611 1333 l 500 1333 l 500 1611 l 611 1611 l 611 1555 l 722 1555 l 722 1278 l 611 1278 z "},"ý":{"ha":1055,"x_min":0,"x_max":944,"o":"m 55 0 l 55 111 l 111 111 l 111 222 l 166 222 l 166 333 l 222 333 l 222 444 l 277 444 l 277 611 l 222 611 l 222 722 l 166 722 l 166 833 l 111 833 l 111 944 l 55 944 l 55 1055 l 0 1055 l 0 1111 l 111 1111 l 111 1166 l 222 1166 l 222 1222 l 333 1222 l 333 1111 l 389 1111 l 389 1000 l 444 1000 l 444 888 l 500 888 l 500 777 l 555 777 l 555 888 l 500 888 l 500 1000 l 555 1000 l 555 1111 l 611 1111 l 611 1166 l 944 1166 l 944 1055 l 888 1055 l 888 944 l 833 944 l 833 833 l 777 833 l 777 722 l 722 722 l 722 611 l 667 611 l 667 500 l 611 500 l 611 389 l 555 389 l 555 277 l 500 277 l 500 166 l 444 166 l 444 55 l 389 55 l 389 0 l 55 0 m 277 1278 l 277 1555 l 389 1555 l 389 1611 l 500 1611 l 500 1666 l 611 1666 l 611 1722 l 722 1722 l 722 1444 l 611 1444 l 611 1389 l 500 1389 l 500 1333 l 389 1333 l 389 1278 l 277 1278 z "},"þ":{"ha":1055,"x_min":0,"x_max":944,"o":"m 555 500 l 555 555 l 611 555 l 611 667 l 555 667 l 555 722 l 444 722 l 444 500 l 555 500 m 333 -333 l 333 -277 l 222 -277 l 222 -222 l 111 -222 l 111 722 l 222 722 l 222 777 l 0 777 l 0 888 l 55 888 l 55 1000 l 111 1000 l 111 1444 l 222 1444 l 222 1389 l 333 1389 l 333 1333 l 444 1333 l 444 1055 l 611 1055 l 611 1000 l 722 1000 l 722 944 l 777 944 l 777 888 l 833 888 l 833 833 l 888 833 l 888 722 l 944 722 l 944 500 l 888 500 l 888 389 l 833 389 l 833 333 l 777 333 l 777 277 l 667 277 l 667 222 l 555 222 l 555 166 l 444 166 l 444 -333 l 333 -333 z "},"ÿ":{"ha":1055,"x_min":0,"x_max":944,"o":"m 55 0 l 55 111 l 111 111 l 111 222 l 166 222 l 166 333 l 222 333 l 222 444 l 277 444 l 277 611 l 222 611 l 222 722 l 166 722 l 166 833 l 111 833 l 111 944 l 55 944 l 55 1055 l 0 1055 l 0 1111 l 111 1111 l 111 1166 l 222 1166 l 222 1222 l 333 1222 l 333 1111 l 389 1111 l 389 1000 l 444 1000 l 444 888 l 500 888 l 500 777 l 555 777 l 555 888 l 500 888 l 500 1000 l 555 1000 l 555 1111 l 611 1111 l 611 1166 l 944 1166 l 944 1055 l 888 1055 l 888 944 l 833 944 l 833 833 l 777 833 l 777 722 l 722 722 l 722 611 l 667 611 l 667 500 l 611 500 l 611 389 l 555 389 l 555 277 l 500 277 l 500 166 l 444 166 l 444 55 l 389 55 l 389 0 l 55 0 m 333 1278 l 333 1333 l 222 1333 l 222 1611 l 333 1611 l 333 1555 l 444 1555 l 444 1278 l 333 1278 m 667 1278 l 667 1333 l 555 1333 l 555 1611 l 667 1611 l 667 1555 l 777 1555 l 777 1278 l 667 1278 z "},"Ā":{"ha":1000,"x_min":0,"x_max":888,"o":"m 444 389 l 444 611 l 389 611 l 389 833 l 333 833 l 333 389 l 444 389 m 222 -111 l 222 -55 l 111 -55 l 111 0 l 0 0 l 0 1333 l 333 1333 l 333 1166 l 389 1166 l 389 1389 l 222 1389 l 222 1444 l 555 1444 l 555 1333 l 611 1333 l 611 1111 l 667 1111 l 667 888 l 722 888 l 722 667 l 777 667 l 777 444 l 833 444 l 833 222 l 888 222 l 888 0 l 555 0 l 555 111 l 333 111 l 333 -111 l 222 -111 m 0 1499 l 0 1611 l 55 1611 l 55 1722 l 111 1722 l 111 1833 l 667 1833 l 667 1722 l 611 1722 l 611 1611 l 555 1611 l 555 1499 l 0 1499 z "},"ā":{"ha":944,"x_min":0,"x_max":833,"o":"m 444 389 l 444 500 l 389 500 l 389 667 l 333 667 l 333 389 l 444 389 m 222 -111 l 222 -55 l 111 -55 l 111 0 l 0 0 l 0 1111 l 333 1111 l 333 944 l 389 944 l 389 1166 l 222 1166 l 222 1278 l 555 1278 l 555 1111 l 611 1111 l 611 888 l 667 888 l 667 667 l 722 667 l 722 444 l 777 444 l 777 222 l 833 222 l 833 0 l 555 0 l 555 111 l 333 111 l 333 -111 l 222 -111 m 0 1333 l 0 1444 l 55 1444 l 55 1555 l 111 1555 l 111 1666 l 667 1666 l 667 1555 l 611 1555 l 611 1444 l 555 1444 l 555 1333 l 0 1333 z "},"Ă":{"ha":1000,"x_min":0,"x_max":888,"o":"m 444 389 l 444 611 l 389 611 l 389 833 l 333 833 l 333 389 l 444 389 m 222 -111 l 222 -55 l 111 -55 l 111 0 l 0 0 l 0 1333 l 333 1333 l 333 1166 l 389 1166 l 389 1389 l 222 1389 l 222 1444 l 555 1444 l 555 1333 l 611 1333 l 611 1111 l 667 1111 l 667 888 l 722 888 l 722 667 l 777 667 l 777 444 l 833 444 l 833 222 l 888 222 l 888 0 l 555 0 l 555 111 l 333 111 l 333 -111 l 222 -111 m 222 1499 l 222 1555 l 111 1555 l 111 1611 l 55 1611 l 55 1666 l 0 1666 l 0 1833 l 222 1833 l 222 1777 l 277 1777 l 277 1722 l 444 1722 l 444 1777 l 500 1777 l 500 1833 l 722 1833 l 722 1666 l 667 1666 l 667 1611 l 611 1611 l 611 1555 l 500 1555 l 500 1499 l 222 1499 z "},"ă":{"ha":944,"x_min":0,"x_max":833,"o":"m 444 389 l 444 500 l 389 500 l 389 667 l 333 667 l 333 389 l 444 389 m 222 -111 l 222 -55 l 111 -55 l 111 0 l 0 0 l 0 1111 l 333 1111 l 333 944 l 389 944 l 389 1166 l 222 1166 l 222 1278 l 555 1278 l 555 1111 l 611 1111 l 611 888 l 667 888 l 667 667 l 722 667 l 722 444 l 777 444 l 777 222 l 833 222 l 833 0 l 555 0 l 555 111 l 333 111 l 333 -111 l 222 -111 m 222 1333 l 222 1389 l 111 1389 l 111 1444 l 55 1444 l 55 1499 l 0 1499 l 0 1666 l 222 1666 l 222 1611 l 277 1611 l 277 1555 l 444 1555 l 444 1611 l 500 1611 l 500 1666 l 722 1666 l 722 1499 l 667 1499 l 667 1444 l 611 1444 l 611 1389 l 500 1389 l 500 1333 l 222 1333 z "},"Ą":{"ha":1055,"x_min":0,"x_max":944,"o":"m 444 389 l 444 611 l 389 611 l 389 833 l 333 833 l 333 389 l 444 389 m 667 -277 l 667 -166 l 611 -166 l 611 -55 l 555 -55 l 555 111 l 333 111 l 333 -111 l 222 -111 l 222 -55 l 111 -55 l 111 0 l 0 0 l 0 1333 l 333 1333 l 333 1166 l 389 1166 l 389 1389 l 222 1389 l 222 1499 l 555 1499 l 555 1333 l 611 1333 l 611 1111 l 667 1111 l 667 888 l 722 888 l 722 667 l 777 667 l 777 444 l 833 444 l 833 222 l 888 222 l 888 0 l 833 0 l 833 -55 l 888 -55 l 888 -166 l 944 -166 l 944 -277 l 667 -277 z "},"ą":{"ha":1055,"x_min":0,"x_max":944,"o":"m 444 389 l 444 500 l 389 500 l 389 667 l 333 667 l 333 389 l 444 389 m 667 -277 l 667 -166 l 611 -166 l 611 -55 l 555 -55 l 555 111 l 333 111 l 333 -111 l 222 -111 l 222 -55 l 111 -55 l 111 0 l 0 0 l 0 1111 l 333 1111 l 333 944 l 389 944 l 389 1166 l 222 1166 l 222 1278 l 555 1278 l 555 1111 l 611 1111 l 611 888 l 667 888 l 667 667 l 722 667 l 722 444 l 777 444 l 777 222 l 833 222 l 833 -55 l 888 -55 l 888 -166 l 944 -166 l 944 -277 l 667 -277 z "},"Ć":{"ha":1055,"x_min":0,"x_max":944,"o":"m 333 0 l 333 55 l 222 55 l 222 111 l 166 111 l 166 166 l 111 166 l 111 222 l 55 222 l 55 333 l 0 333 l 0 833 l 55 833 l 55 944 l 111 944 l 111 1055 l 166 1055 l 166 1166 l 222 1166 l 222 1222 l 277 1222 l 277 1278 l 333 1278 l 333 1333 l 444 1333 l 444 1389 l 555 1389 l 555 1444 l 833 1444 l 833 1389 l 888 1389 l 888 1333 l 944 1333 l 944 777 l 611 777 l 611 1055 l 500 1055 l 500 1000 l 444 1000 l 444 888 l 389 888 l 389 777 l 333 777 l 333 444 l 389 444 l 389 389 l 444 389 l 444 333 l 667 333 l 667 389 l 777 389 l 777 444 l 833 444 l 833 500 l 944 500 l 944 111 l 888 111 l 888 55 l 777 55 l 777 0 l 333 0 m 444 1499 l 444 1777 l 555 1777 l 555 1833 l 667 1833 l 667 1889 l 777 1889 l 777 1944 l 888 1944 l 888 1666 l 777 1666 l 777 1611 l 667 1611 l 667 1555 l 555 1555 l 555 1499 l 444 1499 z "},"ć":{"ha":1000,"x_min":0,"x_max":888,"o":"m 277 0 l 277 55 l 166 55 l 166 111 l 111 111 l 111 166 l 55 166 l 55 277 l 0 277 l 0 722 l 55 722 l 55 833 l 111 833 l 111 944 l 166 944 l 166 1000 l 222 1000 l 222 1055 l 277 1055 l 277 1111 l 389 1111 l 389 1166 l 500 1166 l 500 1222 l 777 1222 l 777 1166 l 833 1166 l 833 1111 l 888 1111 l 888 667 l 555 667 l 555 833 l 444 833 l 444 777 l 389 777 l 389 667 l 333 667 l 333 389 l 389 389 l 389 333 l 611 333 l 611 389 l 722 389 l 722 444 l 777 444 l 777 500 l 888 500 l 888 111 l 833 111 l 833 55 l 722 55 l 722 0 l 277 0 m 389 1278 l 389 1555 l 500 1555 l 500 1611 l 611 1611 l 611 1666 l 722 1666 l 722 1722 l 833 1722 l 833 1444 l 722 1444 l 722 1389 l 611 1389 l 611 1333 l 500 1333 l 500 1278 l 389 1278 z "},"Ĉ":{"ha":1055,"x_min":0,"x_max":944,"o":"m 333 0 l 333 55 l 222 55 l 222 111 l 166 111 l 166 166 l 111 166 l 111 222 l 55 222 l 55 333 l 0 333 l 0 833 l 55 833 l 55 944 l 111 944 l 111 1055 l 166 1055 l 166 1166 l 222 1166 l 222 1222 l 277 1222 l 277 1278 l 333 1278 l 333 1333 l 444 1333 l 444 1389 l 555 1389 l 555 1444 l 833 1444 l 833 1389 l 888 1389 l 888 1333 l 944 1333 l 944 777 l 611 777 l 611 1055 l 500 1055 l 500 1000 l 444 1000 l 444 888 l 389 888 l 389 777 l 333 777 l 333 444 l 389 444 l 389 389 l 444 389 l 444 333 l 667 333 l 667 389 l 777 389 l 777 444 l 833 444 l 833 500 l 944 500 l 944 111 l 888 111 l 888 55 l 777 55 l 777 0 l 333 0 m 222 1499 l 222 1555 l 277 1555 l 277 1611 l 333 1611 l 333 1666 l 389 1666 l 389 1722 l 444 1722 l 444 1777 l 500 1777 l 500 1833 l 667 1833 l 667 1777 l 722 1777 l 722 1722 l 777 1722 l 777 1666 l 833 1666 l 833 1611 l 888 1611 l 888 1555 l 944 1555 l 944 1499 l 667 1499 l 667 1555 l 611 1555 l 611 1611 l 555 1611 l 555 1555 l 500 1555 l 500 1499 l 222 1499 z "},"ĉ":{"ha":1000,"x_min":0,"x_max":888,"o":"m 277 0 l 277 55 l 166 55 l 166 111 l 111 111 l 111 166 l 55 166 l 55 277 l 0 277 l 0 722 l 55 722 l 55 833 l 111 833 l 111 944 l 166 944 l 166 1000 l 222 1000 l 222 1055 l 277 1055 l 277 1111 l 389 1111 l 389 1166 l 500 1166 l 500 1222 l 777 1222 l 777 1166 l 833 1166 l 833 1111 l 888 1111 l 888 667 l 555 667 l 555 833 l 444 833 l 444 777 l 389 777 l 389 667 l 333 667 l 333 389 l 389 389 l 389 333 l 611 333 l 611 389 l 722 389 l 722 444 l 777 444 l 777 500 l 888 500 l 888 111 l 833 111 l 833 55 l 722 55 l 722 0 l 277 0 m 166 1278 l 166 1333 l 222 1333 l 222 1389 l 277 1389 l 277 1444 l 333 1444 l 333 1499 l 389 1499 l 389 1555 l 444 1555 l 444 1611 l 611 1611 l 611 1555 l 667 1555 l 667 1499 l 722 1499 l 722 1444 l 777 1444 l 777 1389 l 833 1389 l 833 1333 l 888 1333 l 888 1278 l 611 1278 l 611 1333 l 555 1333 l 555 1389 l 500 1389 l 500 1333 l 444 1333 l 444 1278 l 166 1278 z "},"Ċ":{"ha":1055,"x_min":0,"x_max":944,"o":"m 333 0 l 333 55 l 222 55 l 222 111 l 166 111 l 166 166 l 111 166 l 111 222 l 55 222 l 55 333 l 0 333 l 0 833 l 55 833 l 55 944 l 111 944 l 111 1055 l 166 1055 l 166 1166 l 222 1166 l 222 1222 l 277 1222 l 277 1278 l 333 1278 l 333 1333 l 444 1333 l 444 1389 l 555 1389 l 555 1444 l 833 1444 l 833 1389 l 888 1389 l 888 1333 l 944 1333 l 944 777 l 611 777 l 611 1055 l 500 1055 l 500 1000 l 444 1000 l 444 888 l 389 888 l 389 777 l 333 777 l 333 444 l 389 444 l 389 389 l 444 389 l 444 333 l 667 333 l 667 389 l 777 389 l 777 444 l 833 444 l 833 500 l 944 500 l 944 111 l 888 111 l 888 55 l 777 55 l 777 0 l 333 0 m 667 1499 l 667 1555 l 555 1555 l 555 1611 l 444 1611 l 444 1944 l 555 1944 l 555 1889 l 667 1889 l 667 1833 l 777 1833 l 777 1499 l 667 1499 z "},"ċ":{"ha":1000,"x_min":0,"x_max":888,"o":"m 277 0 l 277 55 l 166 55 l 166 111 l 111 111 l 111 166 l 55 166 l 55 277 l 0 277 l 0 722 l 55 722 l 55 833 l 111 833 l 111 944 l 166 944 l 166 1000 l 222 1000 l 222 1055 l 277 1055 l 277 1111 l 389 1111 l 389 1166 l 500 1166 l 500 1222 l 777 1222 l 777 1166 l 833 1166 l 833 1111 l 888 1111 l 888 667 l 555 667 l 555 833 l 444 833 l 444 777 l 389 777 l 389 667 l 333 667 l 333 389 l 389 389 l 389 333 l 611 333 l 611 389 l 722 389 l 722 444 l 777 444 l 777 500 l 888 500 l 888 111 l 833 111 l 833 55 l 722 55 l 722 0 l 277 0 m 611 1278 l 611 1333 l 500 1333 l 500 1389 l 389 1389 l 389 1722 l 500 1722 l 500 1666 l 611 1666 l 611 1611 l 722 1611 l 722 1278 l 611 1278 z "},"Č":{"ha":1055,"x_min":0,"x_max":944,"o":"m 333 0 l 333 55 l 222 55 l 222 111 l 166 111 l 166 166 l 111 166 l 111 222 l 55 222 l 55 333 l 0 333 l 0 833 l 55 833 l 55 944 l 111 944 l 111 1055 l 166 1055 l 166 1166 l 222 1166 l 222 1222 l 277 1222 l 277 1278 l 333 1278 l 333 1333 l 444 1333 l 444 1389 l 555 1389 l 555 1444 l 833 1444 l 833 1389 l 888 1389 l 888 1333 l 944 1333 l 944 777 l 611 777 l 611 1055 l 500 1055 l 500 1000 l 444 1000 l 444 888 l 389 888 l 389 777 l 333 777 l 333 444 l 389 444 l 389 389 l 444 389 l 444 333 l 667 333 l 667 389 l 777 389 l 777 444 l 833 444 l 833 500 l 944 500 l 944 111 l 888 111 l 888 55 l 777 55 l 777 0 l 333 0 m 500 1499 l 500 1555 l 444 1555 l 444 1611 l 389 1611 l 389 1666 l 333 1666 l 333 1722 l 277 1722 l 277 1777 l 222 1777 l 222 1833 l 500 1833 l 500 1777 l 555 1777 l 555 1722 l 611 1722 l 611 1777 l 667 1777 l 667 1833 l 944 1833 l 944 1777 l 888 1777 l 888 1722 l 833 1722 l 833 1666 l 777 1666 l 777 1611 l 722 1611 l 722 1555 l 667 1555 l 667 1499 l 500 1499 z "},"č":{"ha":1000,"x_min":0,"x_max":888,"o":"m 277 0 l 277 55 l 166 55 l 166 111 l 111 111 l 111 166 l 55 166 l 55 277 l 0 277 l 0 722 l 55 722 l 55 833 l 111 833 l 111 944 l 166 944 l 166 1000 l 222 1000 l 222 1055 l 277 1055 l 277 1111 l 389 1111 l 389 1166 l 500 1166 l 500 1222 l 777 1222 l 777 1166 l 833 1166 l 833 1111 l 888 1111 l 888 667 l 555 667 l 555 833 l 444 833 l 444 777 l 389 777 l 389 667 l 333 667 l 333 389 l 389 389 l 389 333 l 611 333 l 611 389 l 722 389 l 722 444 l 777 444 l 777 500 l 888 500 l 888 111 l 833 111 l 833 55 l 722 55 l 722 0 l 277 0 m 444 1278 l 444 1333 l 389 1333 l 389 1389 l 333 1389 l 333 1444 l 277 1444 l 277 1499 l 222 1499 l 222 1555 l 166 1555 l 166 1611 l 444 1611 l 444 1555 l 500 1555 l 500 1499 l 555 1499 l 555 1555 l 611 1555 l 611 1611 l 888 1611 l 888 1555 l 833 1555 l 833 1499 l 777 1499 l 777 1444 l 722 1444 l 722 1389 l 667 1389 l 667 1333 l 611 1333 l 611 1278 l 444 1278 z "},"Ď":{"ha":1166,"x_min":0,"x_max":1055,"o":"m 500 444 l 500 500 l 555 500 l 555 555 l 611 555 l 611 611 l 667 611 l 667 722 l 722 722 l 722 944 l 667 944 l 667 1000 l 611 1000 l 611 1055 l 444 1055 l 444 444 l 500 444 m 111 0 l 111 1055 l 222 1055 l 222 1111 l 0 1111 l 0 1222 l 55 1222 l 55 1333 l 111 1333 l 111 1444 l 500 1444 l 500 1389 l 667 1389 l 667 1333 l 777 1333 l 777 1278 l 833 1278 l 833 1222 l 888 1222 l 888 1166 l 944 1166 l 944 1111 l 1000 1111 l 1000 1000 l 1055 1000 l 1055 722 l 1000 722 l 1000 555 l 944 555 l 944 444 l 888 444 l 888 389 l 833 389 l 833 333 l 777 333 l 777 277 l 722 277 l 722 222 l 667 222 l 667 166 l 611 166 l 611 111 l 500 111 l 500 55 l 389 55 l 389 0 l 111 0 m 444 1499 l 444 1555 l 389 1555 l 389 1611 l 333 1611 l 333 1666 l 277 1666 l 277 1722 l 222 1722 l 222 1777 l 166 1777 l 166 1833 l 444 1833 l 444 1777 l 500 1777 l 500 1722 l 555 1722 l 555 1777 l 611 1777 l 611 1833 l 888 1833 l 888 1777 l 833 1777 l 833 1722 l 777 1722 l 777 1666 l 722 1666 l 722 1611 l 667 1611 l 667 1555 l 611 1555 l 611 1499 l 444 1499 z "},"ď":{"ha":1111,"x_min":0,"x_max":1000,"o":"m 500 444 l 500 500 l 555 500 l 555 555 l 611 555 l 611 611 l 667 611 l 667 777 l 611 777 l 611 833 l 444 833 l 444 444 l 500 444 m 111 0 l 111 833 l 222 833 l 222 888 l 0 888 l 0 1000 l 55 1000 l 55 1111 l 111 1111 l 111 1222 l 500 1222 l 500 1166 l 667 1166 l 667 1111 l 777 1111 l 777 1055 l 833 1055 l 833 1000 l 888 1000 l 888 944 l 944 944 l 944 833 l 1000 833 l 1000 555 l 944 555 l 944 444 l 888 444 l 888 389 l 833 389 l 833 333 l 777 333 l 777 277 l 722 277 l 722 222 l 667 222 l 667 166 l 611 166 l 611 111 l 500 111 l 500 55 l 389 55 l 389 0 l 111 0 m 444 1278 l 444 1333 l 389 1333 l 389 1389 l 333 1389 l 333 1444 l 277 1444 l 277 1499 l 222 1499 l 222 1555 l 166 1555 l 166 1611 l 444 1611 l 444 1555 l 500 1555 l 500 1499 l 555 1499 l 555 1555 l 611 1555 l 611 1611 l 888 1611 l 888 1555 l 833 1555 l 833 1499 l 777 1499 l 777 1444 l 722 1444 l 722 1389 l 667 1389 l 667 1333 l 611 1333 l 611 1278 l 444 1278 z "},"Đ":{"ha":1278,"x_min":0,"x_max":1166,"o":"m 611 444 l 611 500 l 667 500 l 667 555 l 722 555 l 722 611 l 777 611 l 777 722 l 833 722 l 833 944 l 777 944 l 777 1000 l 722 1000 l 722 1055 l 555 1055 l 555 944 l 777 944 l 777 833 l 722 833 l 722 722 l 667 722 l 667 611 l 555 611 l 555 444 l 611 444 m 222 0 l 222 555 l 333 555 l 333 611 l 0 611 l 0 722 l 55 722 l 55 833 l 111 833 l 111 944 l 222 944 l 222 1055 l 333 1055 l 333 1111 l 111 1111 l 111 1222 l 166 1222 l 166 1333 l 222 1333 l 222 1444 l 611 1444 l 611 1389 l 777 1389 l 777 1333 l 888 1333 l 888 1278 l 944 1278 l 944 1222 l 1000 1222 l 1000 1166 l 1055 1166 l 1055 1111 l 1111 1111 l 1111 1000 l 1166 1000 l 1166 722 l 1111 722 l 1111 555 l 1055 555 l 1055 444 l 1000 444 l 1000 389 l 944 389 l 944 333 l 888 333 l 888 277 l 833 277 l 833 222 l 777 222 l 777 166 l 722 166 l 722 111 l 611 111 l 611 55 l 500 55 l 500 0 l 222 0 z "},"đ":{"ha":1111,"x_min":0,"x_max":1000,"o":"m 500 444 l 500 500 l 555 500 l 555 555 l 611 555 l 611 611 l 667 611 l 667 777 l 611 777 l 611 833 l 444 833 l 444 777 l 611 777 l 611 667 l 555 667 l 555 555 l 444 555 l 444 444 l 500 444 m 111 0 l 111 500 l 222 500 l 222 555 l 0 555 l 0 667 l 55 667 l 55 777 l 111 777 l 111 833 l 222 833 l 222 888 l 0 888 l 0 1000 l 55 1000 l 55 1111 l 111 1111 l 111 1222 l 500 1222 l 500 1166 l 667 1166 l 667 1111 l 777 1111 l 777 1055 l 833 1055 l 833 1000 l 888 1000 l 888 944 l 944 944 l 944 833 l 1000 833 l 1000 555 l 944 555 l 944 444 l 888 444 l 888 389 l 833 389 l 833 333 l 777 333 l 777 277 l 722 277 l 722 222 l 667 222 l 667 166 l 611 166 l 611 111 l 500 111 l 500 55 l 389 55 l 389 0 l 111 0 z "},"Ē":{"ha":1111,"x_min":0,"x_max":1000,"o":"m 111 0 l 111 944 l 222 944 l 222 1000 l 0 1000 l 0 1111 l 55 1111 l 55 1222 l 111 1222 l 111 1333 l 1000 1333 l 1000 1222 l 944 1222 l 944 1111 l 888 1111 l 888 1000 l 444 1000 l 444 777 l 888 777 l 888 500 l 444 500 l 444 277 l 888 277 l 888 0 l 111 0 m 277 1389 l 277 1499 l 333 1499 l 333 1611 l 389 1611 l 389 1722 l 944 1722 l 944 1611 l 888 1611 l 888 1499 l 833 1499 l 833 1389 l 277 1389 z "},"ē":{"ha":1055,"x_min":0,"x_max":944,"o":"m 111 0 l 111 722 l 222 722 l 222 777 l 0 777 l 0 888 l 55 888 l 55 1000 l 111 1000 l 111 1111 l 944 1111 l 944 1000 l 888 1000 l 888 888 l 833 888 l 833 777 l 444 777 l 444 667 l 833 667 l 833 389 l 444 389 l 444 277 l 833 277 l 833 0 l 111 0 m 222 1166 l 222 1278 l 277 1278 l 277 1389 l 333 1389 l 333 1499 l 888 1499 l 888 1389 l 833 1389 l 833 1278 l 777 1278 l 777 1166 l 222 1166 z "},"Ĕ":{"ha":1111,"x_min":0,"x_max":1000,"o":"m 111 0 l 111 944 l 222 944 l 222 1000 l 0 1000 l 0 1111 l 55 1111 l 55 1222 l 111 1222 l 111 1333 l 1000 1333 l 1000 1222 l 944 1222 l 944 1111 l 888 1111 l 888 1000 l 444 1000 l 444 777 l 888 777 l 888 500 l 444 500 l 444 277 l 888 277 l 888 0 l 111 0 m 389 1389 l 389 1444 l 277 1444 l 277 1499 l 222 1499 l 222 1555 l 166 1555 l 166 1722 l 389 1722 l 389 1666 l 444 1666 l 444 1611 l 611 1611 l 611 1666 l 667 1666 l 667 1722 l 888 1722 l 888 1555 l 833 1555 l 833 1499 l 777 1499 l 777 1444 l 667 1444 l 667 1389 l 389 1389 z "},"ĕ":{"ha":1055,"x_min":0,"x_max":944,"o":"m 111 0 l 111 722 l 222 722 l 222 777 l 0 777 l 0 888 l 55 888 l 55 1000 l 111 1000 l 111 1111 l 944 1111 l 944 1000 l 888 1000 l 888 888 l 833 888 l 833 777 l 444 777 l 444 667 l 833 667 l 833 389 l 444 389 l 444 277 l 833 277 l 833 0 l 111 0 m 389 1166 l 389 1222 l 277 1222 l 277 1278 l 222 1278 l 222 1333 l 166 1333 l 166 1499 l 389 1499 l 389 1444 l 444 1444 l 444 1389 l 611 1389 l 611 1444 l 667 1444 l 667 1499 l 888 1499 l 888 1333 l 833 1333 l 833 1278 l 777 1278 l 777 1222 l 667 1222 l 667 1166 l 389 1166 z "},"Ė":{"ha":1111,"x_min":0,"x_max":1000,"o":"m 111 0 l 111 944 l 222 944 l 222 1000 l 0 1000 l 0 1111 l 55 1111 l 55 1222 l 111 1222 l 111 1333 l 1000 1333 l 1000 1222 l 944 1222 l 944 1111 l 888 1111 l 888 1000 l 444 1000 l 444 777 l 888 777 l 888 500 l 444 500 l 444 277 l 888 277 l 888 0 l 111 0 m 611 1389 l 611 1444 l 500 1444 l 500 1499 l 389 1499 l 389 1833 l 500 1833 l 500 1777 l 611 1777 l 611 1722 l 722 1722 l 722 1389 l 611 1389 z "},"ė":{"ha":1055,"x_min":0,"x_max":944,"o":"m 111 0 l 111 722 l 222 722 l 222 777 l 0 777 l 0 888 l 55 888 l 55 1000 l 111 1000 l 111 1111 l 944 1111 l 944 1000 l 888 1000 l 888 888 l 833 888 l 833 777 l 444 777 l 444 667 l 833 667 l 833 389 l 444 389 l 444 277 l 833 277 l 833 0 l 111 0 m 555 1166 l 555 1222 l 444 1222 l 444 1278 l 333 1278 l 333 1611 l 444 1611 l 444 1555 l 555 1555 l 555 1499 l 667 1499 l 667 1166 l 555 1166 z "},"Ę":{"ha":1111,"x_min":0,"x_max":1000,"o":"m 667 -277 l 667 -166 l 611 -166 l 611 -55 l 555 -55 l 555 0 l 111 0 l 111 944 l 222 944 l 222 1000 l 0 1000 l 0 1111 l 55 1111 l 55 1222 l 111 1222 l 111 1333 l 1000 1333 l 1000 1222 l 944 1222 l 944 1111 l 888 1111 l 888 1000 l 444 1000 l 444 777 l 888 777 l 888 500 l 444 500 l 444 277 l 888 277 l 888 0 l 833 0 l 833 -55 l 888 -55 l 888 -166 l 944 -166 l 944 -277 l 667 -277 z "},"ę":{"ha":1055,"x_min":0,"x_max":944,"o":"m 611 -277 l 611 -166 l 555 -166 l 555 -55 l 500 -55 l 500 0 l 111 0 l 111 722 l 222 722 l 222 777 l 0 777 l 0 888 l 55 888 l 55 1000 l 111 1000 l 111 1111 l 944 1111 l 944 1000 l 888 1000 l 888 888 l 833 888 l 833 777 l 444 777 l 444 667 l 833 667 l 833 389 l 444 389 l 444 277 l 833 277 l 833 0 l 777 0 l 777 -55 l 833 -55 l 833 -166 l 888 -166 l 888 -277 l 611 -277 z "},"Ě":{"ha":1111,"x_min":0,"x_max":1000,"o":"m 111 0 l 111 944 l 222 944 l 222 1000 l 0 1000 l 0 1111 l 55 1111 l 55 1222 l 111 1222 l 111 1333 l 1000 1333 l 1000 1222 l 944 1222 l 944 1111 l 888 1111 l 888 1000 l 444 1000 l 444 777 l 888 777 l 888 500 l 444 500 l 444 277 l 888 277 l 888 0 l 111 0 m 444 1389 l 444 1444 l 389 1444 l 389 1499 l 333 1499 l 333 1555 l 277 1555 l 277 1611 l 222 1611 l 222 1666 l 166 1666 l 166 1722 l 444 1722 l 444 1666 l 500 1666 l 500 1611 l 555 1611 l 555 1666 l 611 1666 l 611 1722 l 888 1722 l 888 1666 l 833 1666 l 833 1611 l 777 1611 l 777 1555 l 722 1555 l 722 1499 l 667 1499 l 667 1444 l 611 1444 l 611 1389 l 444 1389 z "},"ě":{"ha":1055,"x_min":0,"x_max":944,"o":"m 111 0 l 111 722 l 222 722 l 222 777 l 0 777 l 0 888 l 55 888 l 55 1000 l 111 1000 l 111 1111 l 944 1111 l 944 1000 l 888 1000 l 888 888 l 833 888 l 833 777 l 444 777 l 444 667 l 833 667 l 833 389 l 444 389 l 444 277 l 833 277 l 833 0 l 111 0 m 444 1166 l 444 1222 l 389 1222 l 389 1278 l 333 1278 l 333 1333 l 277 1333 l 277 1389 l 222 1389 l 222 1444 l 166 1444 l 166 1499 l 444 1499 l 444 1444 l 500 1444 l 500 1389 l 555 1389 l 555 1444 l 611 1444 l 611 1499 l 888 1499 l 888 1444 l 833 1444 l 833 1389 l 777 1389 l 777 1333 l 722 1333 l 722 1278 l 667 1278 l 667 1222 l 611 1222 l 611 1166 l 444 1166 z "},"Ĝ":{"ha":1111,"x_min":0,"x_max":1000,"o":"m 333 0 l 333 55 l 222 55 l 222 111 l 166 111 l 166 166 l 111 166 l 111 277 l 55 277 l 55 444 l 0 444 l 0 777 l 55 777 l 55 888 l 111 888 l 111 1000 l 166 1000 l 166 1111 l 222 1111 l 222 1166 l 277 1166 l 277 1222 l 333 1222 l 333 1278 l 389 1278 l 389 1333 l 500 1333 l 500 1389 l 611 1389 l 611 1444 l 888 1444 l 888 1389 l 944 1389 l 944 888 l 667 888 l 667 1111 l 611 1111 l 611 1055 l 555 1055 l 555 1000 l 500 1000 l 500 944 l 444 944 l 444 833 l 389 833 l 389 722 l 333 722 l 333 500 l 389 500 l 389 389 l 444 389 l 444 333 l 667 333 l 667 389 l 722 389 l 722 500 l 500 500 l 500 777 l 1000 777 l 1000 277 l 944 277 l 944 166 l 888 166 l 888 111 l 833 111 l 833 55 l 722 55 l 722 0 l 333 0 m 277 1499 l 277 1555 l 333 1555 l 333 1611 l 389 1611 l 389 1666 l 444 1666 l 444 1722 l 500 1722 l 500 1777 l 555 1777 l 555 1833 l 722 1833 l 722 1777 l 777 1777 l 777 1722 l 833 1722 l 833 1666 l 888 1666 l 888 1611 l 944 1611 l 944 1555 l 1000 1555 l 1000 1499 l 722 1499 l 722 1555 l 667 1555 l 667 1611 l 611 1611 l 611 1555 l 555 1555 l 555 1499 l 277 1499 z "},"ĝ":{"ha":1055,"x_min":0,"x_max":944,"o":"m 277 0 l 277 55 l 166 55 l 166 111 l 111 111 l 111 166 l 55 166 l 55 277 l 0 277 l 0 667 l 55 667 l 55 777 l 111 777 l 111 888 l 166 888 l 166 944 l 222 944 l 222 1000 l 277 1000 l 277 1055 l 333 1055 l 333 1111 l 444 1111 l 444 1166 l 555 1166 l 555 1222 l 833 1222 l 833 1166 l 888 1166 l 888 833 l 611 833 l 611 888 l 555 888 l 555 833 l 500 833 l 500 777 l 444 777 l 444 722 l 389 722 l 389 611 l 333 611 l 333 389 l 389 389 l 389 333 l 611 333 l 611 389 l 667 389 l 667 444 l 500 444 l 500 722 l 944 722 l 944 277 l 888 277 l 888 166 l 833 166 l 833 111 l 777 111 l 777 55 l 667 55 l 667 0 l 277 0 m 222 1278 l 222 1333 l 277 1333 l 277 1389 l 333 1389 l 333 1444 l 389 1444 l 389 1499 l 444 1499 l 444 1555 l 500 1555 l 500 1611 l 667 1611 l 667 1555 l 722 1555 l 722 1499 l 777 1499 l 777 1444 l 833 1444 l 833 1389 l 888 1389 l 888 1333 l 944 1333 l 944 1278 l 667 1278 l 667 1333 l 611 1333 l 611 1389 l 555 1389 l 555 1333 l 500 1333 l 500 1278 l 222 1278 z "},"Ğ":{"ha":1111,"x_min":0,"x_max":1000,"o":"m 333 0 l 333 55 l 222 55 l 222 111 l 166 111 l 166 166 l 111 166 l 111 277 l 55 277 l 55 444 l 0 444 l 0 777 l 55 777 l 55 888 l 111 888 l 111 1000 l 166 1000 l 166 1111 l 222 1111 l 222 1166 l 277 1166 l 277 1222 l 333 1222 l 333 1278 l 389 1278 l 389 1333 l 500 1333 l 500 1389 l 611 1389 l 611 1444 l 888 1444 l 888 1389 l 944 1389 l 944 888 l 667 888 l 667 1111 l 611 1111 l 611 1055 l 555 1055 l 555 1000 l 500 1000 l 500 944 l 444 944 l 444 833 l 389 833 l 389 722 l 333 722 l 333 500 l 389 500 l 389 389 l 444 389 l 444 333 l 667 333 l 667 389 l 722 389 l 722 500 l 500 500 l 500 777 l 1000 777 l 1000 277 l 944 277 l 944 166 l 888 166 l 888 111 l 833 111 l 833 55 l 722 55 l 722 0 l 333 0 m 500 1499 l 500 1555 l 389 1555 l 389 1611 l 333 1611 l 333 1666 l 277 1666 l 277 1833 l 500 1833 l 500 1777 l 555 1777 l 555 1722 l 722 1722 l 722 1777 l 777 1777 l 777 1833 l 1000 1833 l 1000 1666 l 944 1666 l 944 1611 l 888 1611 l 888 1555 l 777 1555 l 777 1499 l 500 1499 z "},"ğ":{"ha":1055,"x_min":0,"x_max":944,"o":"m 277 0 l 277 55 l 166 55 l 166 111 l 111 111 l 111 166 l 55 166 l 55 277 l 0 277 l 0 667 l 55 667 l 55 777 l 111 777 l 111 888 l 166 888 l 166 944 l 222 944 l 222 1000 l 277 1000 l 277 1055 l 333 1055 l 333 1111 l 444 1111 l 444 1166 l 555 1166 l 555 1222 l 833 1222 l 833 1166 l 888 1166 l 888 833 l 611 833 l 611 888 l 555 888 l 555 833 l 500 833 l 500 777 l 444 777 l 444 722 l 389 722 l 389 611 l 333 611 l 333 389 l 389 389 l 389 333 l 611 333 l 611 389 l 667 389 l 667 444 l 500 444 l 500 722 l 944 722 l 944 277 l 888 277 l 888 166 l 833 166 l 833 111 l 777 111 l 777 55 l 667 55 l 667 0 l 277 0 m 444 1278 l 444 1333 l 333 1333 l 333 1389 l 277 1389 l 277 1444 l 222 1444 l 222 1611 l 444 1611 l 444 1555 l 500 1555 l 500 1499 l 667 1499 l 667 1555 l 722 1555 l 722 1611 l 944 1611 l 944 1444 l 888 1444 l 888 1389 l 833 1389 l 833 1333 l 722 1333 l 722 1278 l 444 1278 z "},"Ġ":{"ha":1111,"x_min":0,"x_max":1000,"o":"m 333 0 l 333 55 l 222 55 l 222 111 l 166 111 l 166 166 l 111 166 l 111 277 l 55 277 l 55 444 l 0 444 l 0 777 l 55 777 l 55 888 l 111 888 l 111 1000 l 166 1000 l 166 1111 l 222 1111 l 222 1166 l 277 1166 l 277 1222 l 333 1222 l 333 1278 l 389 1278 l 389 1333 l 500 1333 l 500 1389 l 611 1389 l 611 1444 l 888 1444 l 888 1389 l 944 1389 l 944 888 l 667 888 l 667 1111 l 611 1111 l 611 1055 l 555 1055 l 555 1000 l 500 1000 l 500 944 l 444 944 l 444 833 l 389 833 l 389 722 l 333 722 l 333 500 l 389 500 l 389 389 l 444 389 l 444 333 l 667 333 l 667 389 l 722 389 l 722 500 l 500 500 l 500 777 l 1000 777 l 1000 277 l 944 277 l 944 166 l 888 166 l 888 111 l 833 111 l 833 55 l 722 55 l 722 0 l 333 0 m 777 1499 l 777 1555 l 667 1555 l 667 1611 l 555 1611 l 555 1944 l 667 1944 l 667 1889 l 777 1889 l 777 1833 l 888 1833 l 888 1499 l 777 1499 z "},"ġ":{"ha":1055,"x_min":0,"x_max":944,"o":"m 277 0 l 277 55 l 166 55 l 166 111 l 111 111 l 111 166 l 55 166 l 55 277 l 0 277 l 0 667 l 55 667 l 55 777 l 111 777 l 111 888 l 166 888 l 166 944 l 222 944 l 222 1000 l 277 1000 l 277 1055 l 333 1055 l 333 1111 l 444 1111 l 444 1166 l 555 1166 l 555 1222 l 833 1222 l 833 1166 l 888 1166 l 888 833 l 611 833 l 611 888 l 555 888 l 555 833 l 500 833 l 500 777 l 444 777 l 444 722 l 389 722 l 389 611 l 333 611 l 333 389 l 389 389 l 389 333 l 611 333 l 611 389 l 667 389 l 667 444 l 500 444 l 500 722 l 944 722 l 944 277 l 888 277 l 888 166 l 833 166 l 833 111 l 777 111 l 777 55 l 667 55 l 667 0 l 277 0 m 722 1278 l 722 1333 l 611 1333 l 611 1389 l 500 1389 l 500 1722 l 611 1722 l 611 1666 l 722 1666 l 722 1611 l 833 1611 l 833 1278 l 722 1278 z "},"Ģ":{"ha":1111,"x_min":0,"x_max":1000,"o":"m 277 -277 l 277 -166 l 333 -166 l 333 -55 l 389 -55 l 389 0 l 333 0 l 333 55 l 222 55 l 222 111 l 166 111 l 166 166 l 111 166 l 111 277 l 55 277 l 55 444 l 0 444 l 0 777 l 55 777 l 55 888 l 111 888 l 111 1000 l 166 1000 l 166 1111 l 222 1111 l 222 1166 l 277 1166 l 277 1222 l 333 1222 l 333 1278 l 389 1278 l 389 1333 l 500 1333 l 500 1389 l 611 1389 l 611 1444 l 888 1444 l 888 1389 l 944 1389 l 944 888 l 667 888 l 667 1111 l 611 1111 l 611 1055 l 555 1055 l 555 1000 l 500 1000 l 500 944 l 444 944 l 444 833 l 389 833 l 389 722 l 333 722 l 333 500 l 389 500 l 389 389 l 444 389 l 444 333 l 667 333 l 667 389 l 722 389 l 722 500 l 500 500 l 500 777 l 1000 777 l 1000 277 l 944 277 l 944 166 l 888 166 l 888 111 l 833 111 l 833 55 l 722 55 l 722 0 l 667 0 l 667 -55 l 611 -55 l 611 -166 l 555 -166 l 555 -277 l 277 -277 z "},"ģ":{"ha":1055,"x_min":0,"x_max":944,"o":"m 222 -277 l 222 -166 l 277 -166 l 277 -55 l 333 -55 l 333 0 l 277 0 l 277 55 l 166 55 l 166 111 l 111 111 l 111 166 l 55 166 l 55 277 l 0 277 l 0 667 l 55 667 l 55 777 l 111 777 l 111 888 l 166 888 l 166 944 l 222 944 l 222 1000 l 277 1000 l 277 1055 l 333 1055 l 333 1111 l 444 1111 l 444 1166 l 555 1166 l 555 1222 l 833 1222 l 833 1166 l 888 1166 l 888 833 l 611 833 l 611 888 l 555 888 l 555 833 l 500 833 l 500 777 l 444 777 l 444 722 l 389 722 l 389 611 l 333 611 l 333 389 l 389 389 l 389 333 l 611 333 l 611 389 l 667 389 l 667 444 l 500 444 l 500 722 l 944 722 l 944 277 l 888 277 l 888 166 l 833 166 l 833 111 l 777 111 l 777 55 l 667 55 l 667 0 l 611 0 l 611 -55 l 555 -55 l 555 -166 l 500 -166 l 500 -277 l 222 -277 z "},"Ĥ":{"ha":1000,"x_min":0,"x_max":888,"o":"m 222 -111 l 222 -55 l 111 -55 l 111 0 l 0 0 l 0 1444 l 111 1444 l 111 1389 l 222 1389 l 222 1333 l 333 1333 l 333 722 l 444 722 l 444 777 l 555 777 l 555 1444 l 667 1444 l 667 1389 l 777 1389 l 777 1333 l 888 1333 l 888 -111 l 777 -111 l 777 -55 l 667 -55 l 667 0 l 555 0 l 555 444 l 444 444 l 444 389 l 333 389 l 333 -111 l 222 -111 m 55 1499 l 55 1555 l 111 1555 l 111 1611 l 166 1611 l 166 1666 l 222 1666 l 222 1722 l 277 1722 l 277 1777 l 333 1777 l 333 1833 l 500 1833 l 500 1777 l 555 1777 l 555 1722 l 611 1722 l 611 1666 l 667 1666 l 667 1611 l 722 1611 l 722 1555 l 777 1555 l 777 1499 l 500 1499 l 500 1555 l 444 1555 l 444 1611 l 389 1611 l 389 1555 l 333 1555 l 333 1499 l 55 1499 z "},"ĥ":{"ha":1000,"x_min":0,"x_max":888,"o":"m 222 -111 l 222 -55 l 111 -55 l 111 0 l 0 0 l 0 1222 l 111 1222 l 111 1166 l 222 1166 l 222 1111 l 333 1111 l 333 611 l 444 611 l 444 667 l 555 667 l 555 1222 l 667 1222 l 667 1166 l 777 1166 l 777 1111 l 888 1111 l 888 -111 l 777 -111 l 777 -55 l 667 -55 l 667 0 l 555 0 l 555 333 l 611 333 l 611 389 l 555 389 l 555 333 l 444 333 l 444 277 l 333 277 l 333 -111 l 222 -111 m 55 1278 l 55 1333 l 111 1333 l 111 1389 l 166 1389 l 166 1444 l 222 1444 l 222 1499 l 277 1499 l 277 1555 l 333 1555 l 333 1611 l 500 1611 l 500 1555 l 555 1555 l 555 1499 l 611 1499 l 611 1444 l 667 1444 l 667 1389 l 722 1389 l 722 1333 l 777 1333 l 777 1278 l 500 1278 l 500 1333 l 444 1333 l 444 1389 l 389 1389 l 389 1333 l 333 1333 l 333 1278 l 55 1278 z "},"Ĩ":{"ha":777,"x_min":0,"x_max":667,"o":"m 389 -111 l 389 -55 l 277 -55 l 277 0 l 166 0 l 166 1444 l 277 1444 l 277 1389 l 389 1389 l 389 1333 l 500 1333 l 500 -111 l 389 -111 m 55 1499 l 55 1555 l 0 1555 l 0 1666 l 55 1666 l 55 1722 l 111 1722 l 111 1777 l 166 1777 l 166 1833 l 333 1833 l 333 1777 l 389 1777 l 389 1722 l 444 1722 l 444 1777 l 500 1777 l 500 1833 l 611 1833 l 611 1777 l 667 1777 l 667 1666 l 611 1666 l 611 1611 l 555 1611 l 555 1555 l 500 1555 l 500 1499 l 333 1499 l 333 1555 l 277 1555 l 277 1611 l 222 1611 l 222 1555 l 166 1555 l 166 1499 l 55 1499 z "},"ĩ":{"ha":777,"x_min":0,"x_max":667,"o":"m 389 -111 l 389 -55 l 277 -55 l 277 0 l 166 0 l 166 1222 l 277 1222 l 277 1166 l 389 1166 l 389 1111 l 500 1111 l 500 -111 l 389 -111 m 55 1278 l 55 1333 l 0 1333 l 0 1444 l 55 1444 l 55 1499 l 111 1499 l 111 1555 l 166 1555 l 166 1611 l 333 1611 l 333 1555 l 389 1555 l 389 1499 l 444 1499 l 444 1555 l 500 1555 l 500 1611 l 611 1611 l 611 1555 l 667 1555 l 667 1444 l 611 1444 l 611 1389 l 555 1389 l 555 1333 l 500 1333 l 500 1278 l 333 1278 l 333 1333 l 277 1333 l 277 1389 l 222 1389 l 222 1333 l 166 1333 l 166 1278 l 55 1278 z "},"Ī":{"ha":777,"x_min":0,"x_max":667,"o":"m 389 -111 l 389 -55 l 277 -55 l 277 0 l 166 0 l 166 1444 l 277 1444 l 277 1389 l 389 1389 l 389 1333 l 500 1333 l 500 -111 l 389 -111 m 0 1499 l 0 1611 l 55 1611 l 55 1722 l 111 1722 l 111 1833 l 667 1833 l 667 1722 l 611 1722 l 611 1611 l 555 1611 l 555 1499 l 0 1499 z "},"ī":{"ha":777,"x_min":0,"x_max":667,"o":"m 389 -111 l 389 -55 l 277 -55 l 277 0 l 166 0 l 166 1222 l 277 1222 l 277 1166 l 389 1166 l 389 1111 l 500 1111 l 500 -111 l 389 -111 m 0 1278 l 0 1389 l 55 1389 l 55 1499 l 111 1499 l 111 1611 l 667 1611 l 667 1499 l 611 1499 l 611 1389 l 555 1389 l 555 1278 l 0 1278 z "},"Ĭ":{"ha":833,"x_min":0,"x_max":722,"o":"m 444 -111 l 444 -55 l 333 -55 l 333 0 l 222 0 l 222 1444 l 333 1444 l 333 1389 l 444 1389 l 444 1333 l 555 1333 l 555 -111 l 444 -111 m 222 1499 l 222 1555 l 111 1555 l 111 1611 l 55 1611 l 55 1666 l 0 1666 l 0 1833 l 222 1833 l 222 1777 l 277 1777 l 277 1722 l 444 1722 l 444 1777 l 500 1777 l 500 1833 l 722 1833 l 722 1666 l 667 1666 l 667 1611 l 611 1611 l 611 1555 l 500 1555 l 500 1499 l 222 1499 z "},"ĭ":{"ha":833,"x_min":0,"x_max":722,"o":"m 444 -111 l 444 -55 l 333 -55 l 333 0 l 222 0 l 222 1222 l 333 1222 l 333 1166 l 444 1166 l 444 1111 l 555 1111 l 555 -111 l 444 -111 m 222 1278 l 222 1333 l 111 1333 l 111 1389 l 55 1389 l 55 1444 l 0 1444 l 0 1611 l 222 1611 l 222 1555 l 277 1555 l 277 1499 l 444 1499 l 444 1555 l 500 1555 l 500 1611 l 722 1611 l 722 1444 l 667 1444 l 667 1389 l 611 1389 l 611 1333 l 500 1333 l 500 1278 l 222 1278 z "},"Į":{"ha":722,"x_min":222,"x_max":611,"o":"m 333 -277 l 333 -166 l 277 -166 l 277 -55 l 222 -55 l 222 1444 l 333 1444 l 333 1389 l 444 1389 l 444 1333 l 555 1333 l 555 0 l 500 0 l 500 -55 l 555 -55 l 555 -166 l 611 -166 l 611 -277 l 333 -277 z "},"į":{"ha":500,"x_min":0,"x_max":389,"o":"m 111 -277 l 111 -166 l 55 -166 l 55 -55 l 0 -55 l 0 1222 l 111 1222 l 111 1166 l 222 1166 l 222 1111 l 333 1111 l 333 0 l 277 0 l 277 -55 l 333 -55 l 333 -166 l 389 -166 l 389 -277 l 111 -277 z "},"İ":{"ha":444,"x_min":0,"x_max":333,"o":"m 222 -111 l 222 -55 l 111 -55 l 111 0 l 0 0 l 0 1444 l 111 1444 l 111 1389 l 222 1389 l 222 1333 l 333 1333 l 333 -111 l 222 -111 m 222 1499 l 222 1555 l 111 1555 l 111 1611 l 0 1611 l 0 1944 l 111 1944 l 111 1889 l 222 1889 l 222 1833 l 333 1833 l 333 1499 l 222 1499 z "},"ı":{"ha":444,"x_min":0,"x_max":333,"o":"m 222 -111 l 222 -55 l 111 -55 l 111 0 l 0 0 l 0 1222 l 111 1222 l 111 1166 l 222 1166 l 222 1111 l 333 1111 l 333 -111 l 222 -111 z "},"Ĵ":{"ha":1166,"x_min":0,"x_max":1055,"o":"m 111 0 l 111 55 l 55 55 l 55 111 l 0 111 l 0 555 l 333 555 l 333 333 l 444 333 l 444 389 l 500 389 l 500 944 l 611 944 l 611 1000 l 111 1000 l 111 1111 l 166 1111 l 166 1222 l 222 1222 l 222 1333 l 1055 1333 l 1055 1222 l 1000 1222 l 1000 1111 l 944 1111 l 944 1000 l 833 1000 l 833 277 l 777 277 l 777 166 l 722 166 l 722 111 l 611 111 l 611 55 l 500 55 l 500 0 l 111 0 m 277 1389 l 277 1444 l 333 1444 l 333 1499 l 389 1499 l 389 1555 l 444 1555 l 444 1611 l 500 1611 l 500 1666 l 555 1666 l 555 1722 l 722 1722 l 722 1666 l 777 1666 l 777 1611 l 833 1611 l 833 1555 l 888 1555 l 888 1499 l 944 1499 l 944 1444 l 1000 1444 l 1000 1389 l 722 1389 l 722 1444 l 667 1444 l 667 1499 l 611 1499 l 611 1444 l 555 1444 l 555 1389 l 277 1389 z "},"ĵ":{"ha":1111,"x_min":0,"x_max":1000,"o":"m 111 0 l 111 55 l 55 55 l 55 111 l 0 111 l 0 500 l 333 500 l 333 333 l 444 333 l 444 389 l 500 389 l 500 722 l 611 722 l 611 777 l 55 777 l 55 888 l 111 888 l 111 1000 l 166 1000 l 166 1111 l 1000 1111 l 1000 1000 l 944 1000 l 944 888 l 888 888 l 888 777 l 777 777 l 777 277 l 722 277 l 722 166 l 667 166 l 667 111 l 611 111 l 611 55 l 500 55 l 500 0 l 111 0 m 222 1166 l 222 1222 l 277 1222 l 277 1278 l 333 1278 l 333 1333 l 389 1333 l 389 1389 l 444 1389 l 444 1444 l 500 1444 l 500 1499 l 667 1499 l 667 1444 l 722 1444 l 722 1389 l 777 1389 l 777 1333 l 833 1333 l 833 1278 l 888 1278 l 888 1222 l 944 1222 l 944 1166 l 667 1166 l 667 1222 l 611 1222 l 611 1278 l 555 1278 l 555 1222 l 500 1222 l 500 1166 l 222 1166 z "},"Ķ":{"ha":1111,"x_min":0,"x_max":1000,"o":"m 0 -277 l 0 -166 l 55 -166 l 55 -55 l 111 -55 l 111 0 l 55 0 l 55 1333 l 389 1333 l 389 888 l 333 888 l 333 777 l 389 777 l 389 888 l 444 888 l 444 1000 l 500 1000 l 500 1111 l 555 1111 l 555 1222 l 611 1222 l 611 1333 l 944 1333 l 944 1222 l 888 1222 l 888 1111 l 833 1111 l 833 1000 l 777 1000 l 777 888 l 722 888 l 722 777 l 667 777 l 667 667 l 611 667 l 611 555 l 667 555 l 667 500 l 722 500 l 722 444 l 777 444 l 777 389 l 833 389 l 833 333 l 888 333 l 888 277 l 944 277 l 944 222 l 1000 222 l 1000 166 l 944 166 l 944 111 l 888 111 l 888 55 l 833 55 l 833 0 l 722 0 l 722 55 l 667 55 l 667 111 l 611 111 l 611 166 l 555 166 l 555 222 l 500 222 l 500 277 l 444 277 l 444 333 l 389 333 l 389 389 l 333 389 l 333 333 l 389 333 l 389 -55 l 333 -55 l 333 -166 l 277 -166 l 277 -277 l 0 -277 z "},"ķ":{"ha":1055,"x_min":0,"x_max":944,"o":"m 0 -277 l 0 -166 l 55 -166 l 55 -55 l 111 -55 l 111 0 l 55 0 l 55 1111 l 389 1111 l 389 777 l 333 777 l 333 667 l 389 667 l 389 777 l 444 777 l 444 888 l 500 888 l 500 1000 l 555 1000 l 555 1111 l 888 1111 l 888 1000 l 833 1000 l 833 888 l 777 888 l 777 777 l 722 777 l 722 667 l 667 667 l 667 555 l 611 555 l 611 500 l 667 500 l 667 444 l 722 444 l 722 389 l 777 389 l 777 333 l 833 333 l 833 277 l 888 277 l 888 222 l 944 222 l 944 166 l 888 166 l 888 111 l 833 111 l 833 55 l 777 55 l 777 0 l 667 0 l 667 55 l 611 55 l 611 111 l 555 111 l 555 166 l 500 166 l 500 222 l 444 222 l 444 277 l 389 277 l 389 333 l 333 333 l 333 277 l 389 277 l 389 -55 l 333 -55 l 333 -166 l 277 -166 l 277 -277 l 0 -277 z "},"Ĺ":{"ha":888,"x_min":0,"x_max":777,"o":"m 0 0 l 0 1444 l 111 1444 l 111 1389 l 222 1389 l 222 1333 l 333 1333 l 333 277 l 777 277 l 777 0 l 0 0 m 0 1499 l 0 1777 l 111 1777 l 111 1833 l 222 1833 l 222 1889 l 333 1889 l 333 1944 l 444 1944 l 444 1666 l 333 1666 l 333 1611 l 222 1611 l 222 1555 l 111 1555 l 111 1499 l 0 1499 z "},"ĺ":{"ha":888,"x_min":0,"x_max":777,"o":"m 0 0 l 0 1222 l 111 1222 l 111 1166 l 222 1166 l 222 1111 l 333 1111 l 333 277 l 777 277 l 777 0 l 0 0 m 0 1278 l 0 1555 l 111 1555 l 111 1611 l 222 1611 l 222 1666 l 333 1666 l 333 1722 l 444 1722 l 444 1444 l 333 1444 l 333 1389 l 222 1389 l 222 1333 l 111 1333 l 111 1278 l 0 1278 z "},"Ļ":{"ha":888,"x_min":0,"x_max":777,"o":"m 222 -277 l 222 -166 l 277 -166 l 277 -55 l 333 -55 l 333 0 l 0 0 l 0 1444 l 111 1444 l 111 1389 l 222 1389 l 222 1333 l 333 1333 l 333 277 l 777 277 l 777 0 l 611 0 l 611 -55 l 555 -55 l 555 -166 l 500 -166 l 500 -277 l 222 -277 z "},"ļ":{"ha":888,"x_min":0,"x_max":777,"o":"m 222 -277 l 222 -166 l 277 -166 l 277 -55 l 333 -55 l 333 0 l 0 0 l 0 1222 l 111 1222 l 111 1166 l 222 1166 l 222 1111 l 333 1111 l 333 277 l 777 277 l 777 0 l 611 0 l 611 -55 l 555 -55 l 555 -166 l 500 -166 l 500 -277 l 222 -277 z "},"Ľ":{"ha":888,"x_min":0,"x_max":777,"o":"m 0 0 l 0 1444 l 111 1444 l 111 1389 l 222 1389 l 222 1333 l 333 1333 l 333 277 l 777 277 l 777 0 l 0 0 m 500 1000 l 500 1111 l 444 1111 l 444 1499 l 777 1499 l 777 1111 l 722 1111 l 722 1000 l 500 1000 z "},"ľ":{"ha":888,"x_min":0,"x_max":777,"o":"m 0 0 l 0 1222 l 111 1222 l 111 1166 l 222 1166 l 222 1111 l 333 1111 l 333 277 l 777 277 l 777 0 l 0 0 m 500 777 l 500 888 l 444 888 l 444 1278 l 777 1278 l 777 888 l 722 888 l 722 777 l 500 777 z "},"Ŀ":{"ha":888,"x_min":0,"x_max":777,"o":"m 667 611 l 667 667 l 555 667 l 555 722 l 444 722 l 444 1055 l 555 1055 l 555 1000 l 667 1000 l 667 944 l 777 944 l 777 611 l 667 611 m 0 0 l 0 1444 l 111 1444 l 111 1389 l 222 1389 l 222 1333 l 333 1333 l 333 277 l 777 277 l 777 0 l 0 0 z "},"ŀ":{"ha":888,"x_min":0,"x_max":777,"o":"m 667 500 l 667 555 l 555 555 l 555 611 l 444 611 l 444 944 l 555 944 l 555 888 l 667 888 l 667 833 l 777 833 l 777 500 l 667 500 m 0 0 l 0 1222 l 111 1222 l 111 1166 l 222 1166 l 222 1111 l 333 1111 l 333 277 l 777 277 l 777 0 l 0 0 z "},"Ł":{"ha":1111,"x_min":0,"x_max":1000,"o":"m 222 0 l 222 444 l 111 444 l 111 389 l 0 389 l 0 722 l 111 722 l 111 777 l 222 777 l 222 1444 l 333 1444 l 333 1389 l 444 1389 l 444 1333 l 555 1333 l 555 1000 l 667 1000 l 667 1055 l 777 1055 l 777 1111 l 888 1111 l 888 777 l 777 777 l 777 722 l 667 722 l 667 667 l 555 667 l 555 277 l 1000 277 l 1000 0 l 222 0 z "},"ł":{"ha":1111,"x_min":0,"x_max":1000,"o":"m 222 0 l 222 333 l 277 333 l 277 389 l 222 389 l 222 333 l 111 333 l 111 277 l 0 277 l 0 611 l 111 611 l 111 667 l 222 667 l 222 1222 l 333 1222 l 333 1166 l 444 1166 l 444 1111 l 555 1111 l 555 888 l 667 888 l 667 944 l 777 944 l 777 1000 l 888 1000 l 888 667 l 777 667 l 777 611 l 667 611 l 667 555 l 555 555 l 555 277 l 1000 277 l 1000 0 l 222 0 z "},"Ń":{"ha":1055,"x_min":0,"x_max":944,"o":"m 222 -111 l 222 -55 l 111 -55 l 111 0 l 0 0 l 0 1333 l 333 1333 l 333 1222 l 389 1222 l 389 1111 l 444 1111 l 444 1000 l 500 1000 l 500 888 l 555 888 l 555 777 l 611 777 l 611 667 l 667 667 l 667 777 l 611 777 l 611 1444 l 722 1444 l 722 1389 l 833 1389 l 833 1333 l 944 1333 l 944 0 l 611 0 l 611 111 l 555 111 l 555 222 l 500 222 l 500 333 l 444 333 l 444 444 l 389 444 l 389 555 l 333 555 l 333 667 l 277 667 l 277 555 l 333 555 l 333 -111 l 222 -111 m 277 1499 l 277 1777 l 389 1777 l 389 1833 l 500 1833 l 500 1889 l 611 1889 l 611 1944 l 722 1944 l 722 1666 l 611 1666 l 611 1611 l 500 1611 l 500 1555 l 389 1555 l 389 1499 l 277 1499 z "},"ń":{"ha":944,"x_min":0,"x_max":833,"o":"m 222 -111 l 222 -55 l 111 -55 l 111 0 l 0 0 l 0 1111 l 333 1111 l 333 1000 l 389 1000 l 389 888 l 444 888 l 444 777 l 500 777 l 500 667 l 555 667 l 555 777 l 500 777 l 500 1222 l 611 1222 l 611 1166 l 722 1166 l 722 1111 l 833 1111 l 833 0 l 500 0 l 500 111 l 444 111 l 444 222 l 389 222 l 389 333 l 333 333 l 333 444 l 277 444 l 277 333 l 333 333 l 333 -111 l 222 -111 m 222 1278 l 222 1555 l 333 1555 l 333 1611 l 444 1611 l 444 1666 l 555 1666 l 555 1722 l 667 1722 l 667 1444 l 555 1444 l 555 1389 l 444 1389 l 444 1333 l 333 1333 l 333 1278 l 222 1278 z "},"Ņ":{"ha":1055,"x_min":0,"x_max":944,"o":"m 500 -277 l 500 -166 l 555 -166 l 555 -55 l 611 -55 l 611 111 l 555 111 l 555 222 l 500 222 l 500 333 l 444 333 l 444 444 l 389 444 l 389 555 l 333 555 l 333 667 l 277 667 l 277 555 l 333 555 l 333 -111 l 222 -111 l 222 -55 l 111 -55 l 111 0 l 0 0 l 0 1333 l 333 1333 l 333 1222 l 389 1222 l 389 1111 l 444 1111 l 444 1000 l 500 1000 l 500 888 l 555 888 l 555 777 l 611 777 l 611 667 l 667 667 l 667 777 l 611 777 l 611 1444 l 722 1444 l 722 1389 l 833 1389 l 833 1333 l 944 1333 l 944 0 l 888 0 l 888 -55 l 833 -55 l 833 -166 l 777 -166 l 777 -277 l 500 -277 z "},"ņ":{"ha":944,"x_min":0,"x_max":833,"o":"m 389 -277 l 389 -166 l 444 -166 l 444 -55 l 500 -55 l 500 111 l 444 111 l 444 222 l 389 222 l 389 333 l 333 333 l 333 444 l 277 444 l 277 333 l 333 333 l 333 -111 l 222 -111 l 222 -55 l 111 -55 l 111 0 l 0 0 l 0 1111 l 333 1111 l 333 1000 l 389 1000 l 389 888 l 444 888 l 444 777 l 500 777 l 500 667 l 555 667 l 555 777 l 500 777 l 500 1222 l 611 1222 l 611 1166 l 722 1166 l 722 1111 l 833 1111 l 833 0 l 777 0 l 777 -55 l 722 -55 l 722 -166 l 667 -166 l 667 -277 l 389 -277 z "},"Ň":{"ha":1055,"x_min":0,"x_max":944,"o":"m 222 -111 l 222 -55 l 111 -55 l 111 0 l 0 0 l 0 1333 l 333 1333 l 333 1222 l 389 1222 l 389 1111 l 444 1111 l 444 1000 l 500 1000 l 500 888 l 555 888 l 555 777 l 611 777 l 611 667 l 667 667 l 667 777 l 611 777 l 611 1444 l 722 1444 l 722 1389 l 833 1389 l 833 1333 l 944 1333 l 944 0 l 611 0 l 611 111 l 555 111 l 555 222 l 500 222 l 500 333 l 444 333 l 444 444 l 389 444 l 389 555 l 333 555 l 333 667 l 277 667 l 277 555 l 333 555 l 333 -111 l 222 -111 m 389 1499 l 389 1555 l 333 1555 l 333 1611 l 277 1611 l 277 1666 l 222 1666 l 222 1722 l 166 1722 l 166 1777 l 111 1777 l 111 1833 l 389 1833 l 389 1777 l 444 1777 l 444 1722 l 500 1722 l 500 1777 l 555 1777 l 555 1833 l 833 1833 l 833 1777 l 777 1777 l 777 1722 l 722 1722 l 722 1666 l 667 1666 l 667 1611 l 611 1611 l 611 1555 l 555 1555 l 555 1499 l 389 1499 z "},"ň":{"ha":944,"x_min":0,"x_max":833,"o":"m 222 -111 l 222 -55 l 111 -55 l 111 0 l 0 0 l 0 1111 l 333 1111 l 333 1000 l 389 1000 l 389 888 l 444 888 l 444 777 l 500 777 l 500 667 l 555 667 l 555 777 l 500 777 l 500 1222 l 611 1222 l 611 1166 l 722 1166 l 722 1111 l 833 1111 l 833 0 l 500 0 l 500 111 l 444 111 l 444 222 l 389 222 l 389 333 l 333 333 l 333 444 l 277 444 l 277 333 l 333 333 l 333 -111 l 222 -111 m 333 1278 l 333 1333 l 277 1333 l 277 1389 l 222 1389 l 222 1444 l 166 1444 l 166 1499 l 111 1499 l 111 1555 l 55 1555 l 55 1611 l 333 1611 l 333 1555 l 389 1555 l 389 1499 l 444 1499 l 444 1555 l 500 1555 l 500 1611 l 777 1611 l 777 1555 l 722 1555 l 722 1499 l 667 1499 l 667 1444 l 611 1444 l 611 1389 l 555 1389 l 555 1333 l 500 1333 l 500 1278 l 333 1278 z "},"Ō":{"ha":1055,"x_min":0,"x_max":944,"o":"m 500 333 l 500 389 l 555 389 l 555 500 l 611 500 l 611 888 l 555 888 l 555 1000 l 500 1000 l 500 1055 l 444 1055 l 444 1000 l 389 1000 l 389 888 l 333 888 l 333 389 l 389 389 l 389 333 l 500 333 m 277 0 l 277 55 l 166 55 l 166 111 l 111 111 l 111 166 l 55 166 l 55 277 l 0 277 l 0 944 l 55 944 l 55 1111 l 111 1111 l 111 1222 l 166 1222 l 166 1278 l 222 1278 l 222 1333 l 333 1333 l 333 1389 l 555 1389 l 555 1333 l 667 1333 l 667 1278 l 722 1278 l 722 1222 l 777 1222 l 777 1166 l 833 1166 l 833 1055 l 888 1055 l 888 944 l 944 944 l 944 444 l 888 444 l 888 333 l 833 333 l 833 222 l 777 222 l 777 166 l 722 166 l 722 111 l 667 111 l 667 55 l 555 55 l 555 0 l 277 0 m 166 1444 l 166 1555 l 222 1555 l 222 1666 l 277 1666 l 277 1777 l 833 1777 l 833 1666 l 777 1666 l 777 1555 l 722 1555 l 722 1444 l 166 1444 z "},"ō":{"ha":1000,"x_min":0,"x_max":888,"o":"m 500 333 l 500 389 l 555 389 l 555 500 l 611 500 l 611 667 l 555 667 l 555 777 l 500 777 l 500 833 l 444 833 l 444 777 l 389 777 l 389 667 l 333 667 l 333 389 l 389 389 l 389 333 l 500 333 m 277 0 l 277 55 l 166 55 l 166 111 l 111 111 l 111 166 l 55 166 l 55 277 l 0 277 l 0 777 l 55 777 l 55 888 l 111 888 l 111 1000 l 166 1000 l 166 1055 l 222 1055 l 222 1111 l 333 1111 l 333 1166 l 555 1166 l 555 1111 l 667 1111 l 667 1055 l 722 1055 l 722 1000 l 777 1000 l 777 944 l 833 944 l 833 833 l 888 833 l 888 333 l 833 333 l 833 222 l 777 222 l 777 166 l 722 166 l 722 111 l 667 111 l 667 55 l 555 55 l 555 0 l 277 0 m 166 1222 l 166 1333 l 222 1333 l 222 1444 l 277 1444 l 277 1555 l 833 1555 l 833 1444 l 777 1444 l 777 1333 l 722 1333 l 722 1222 l 166 1222 z "},"Ŏ":{"ha":1055,"x_min":0,"x_max":944,"o":"m 500 333 l 500 389 l 555 389 l 555 500 l 611 500 l 611 888 l 555 888 l 555 1000 l 500 1000 l 500 1055 l 444 1055 l 444 1000 l 389 1000 l 389 888 l 333 888 l 333 389 l 389 389 l 389 333 l 500 333 m 277 0 l 277 55 l 166 55 l 166 111 l 111 111 l 111 166 l 55 166 l 55 277 l 0 277 l 0 944 l 55 944 l 55 1111 l 111 1111 l 111 1222 l 166 1222 l 166 1278 l 222 1278 l 222 1333 l 333 1333 l 333 1389 l 555 1389 l 555 1333 l 667 1333 l 667 1278 l 722 1278 l 722 1222 l 777 1222 l 777 1166 l 833 1166 l 833 1055 l 888 1055 l 888 944 l 944 944 l 944 444 l 888 444 l 888 333 l 833 333 l 833 222 l 777 222 l 777 166 l 722 166 l 722 111 l 667 111 l 667 55 l 555 55 l 555 0 l 277 0 m 333 1444 l 333 1499 l 222 1499 l 222 1555 l 166 1555 l 166 1611 l 111 1611 l 111 1777 l 333 1777 l 333 1722 l 389 1722 l 389 1666 l 555 1666 l 555 1722 l 611 1722 l 611 1777 l 833 1777 l 833 1611 l 777 1611 l 777 1555 l 722 1555 l 722 1499 l 611 1499 l 611 1444 l 333 1444 z "},"ŏ":{"ha":1000,"x_min":0,"x_max":888,"o":"m 500 333 l 500 389 l 555 389 l 555 500 l 611 500 l 611 667 l 555 667 l 555 777 l 500 777 l 500 833 l 444 833 l 444 777 l 389 777 l 389 667 l 333 667 l 333 389 l 389 389 l 389 333 l 500 333 m 277 0 l 277 55 l 166 55 l 166 111 l 111 111 l 111 166 l 55 166 l 55 277 l 0 277 l 0 777 l 55 777 l 55 888 l 111 888 l 111 1000 l 166 1000 l 166 1055 l 222 1055 l 222 1111 l 333 1111 l 333 1166 l 555 1166 l 555 1111 l 667 1111 l 667 1055 l 722 1055 l 722 1000 l 777 1000 l 777 944 l 833 944 l 833 833 l 888 833 l 888 333 l 833 333 l 833 222 l 777 222 l 777 166 l 722 166 l 722 111 l 667 111 l 667 55 l 555 55 l 555 0 l 277 0 m 333 1222 l 333 1278 l 222 1278 l 222 1333 l 166 1333 l 166 1389 l 111 1389 l 111 1555 l 333 1555 l 333 1499 l 389 1499 l 389 1444 l 555 1444 l 555 1499 l 611 1499 l 611 1555 l 833 1555 l 833 1389 l 777 1389 l 777 1333 l 722 1333 l 722 1278 l 611 1278 l 611 1222 l 333 1222 z "},"Œ":{"ha":1444,"x_min":0,"x_max":1333,"o":"m 500 333 l 500 389 l 555 389 l 555 944 l 667 944 l 667 1000 l 500 1000 l 500 1055 l 444 1055 l 444 1000 l 389 1000 l 389 888 l 333 888 l 333 389 l 389 389 l 389 333 l 500 333 m 277 0 l 277 55 l 166 55 l 166 111 l 111 111 l 111 166 l 55 166 l 55 277 l 0 277 l 0 944 l 55 944 l 55 1111 l 111 1111 l 111 1222 l 166 1222 l 166 1278 l 222 1278 l 222 1333 l 333 1333 l 333 1389 l 555 1389 l 555 1333 l 1333 1333 l 1333 1222 l 1278 1222 l 1278 1111 l 1222 1111 l 1222 1000 l 888 1000 l 888 777 l 1222 777 l 1222 500 l 888 500 l 888 277 l 1222 277 l 1222 0 l 611 0 l 611 55 l 555 55 l 555 0 l 277 0 z "},"œ":{"ha":1389,"x_min":0,"x_max":1278,"o":"m 500 333 l 500 389 l 555 389 l 555 722 l 667 722 l 667 777 l 500 777 l 500 833 l 444 833 l 444 777 l 389 777 l 389 667 l 333 667 l 333 389 l 389 389 l 389 333 l 500 333 m 277 0 l 277 55 l 166 55 l 166 111 l 111 111 l 111 166 l 55 166 l 55 277 l 0 277 l 0 777 l 55 777 l 55 888 l 111 888 l 111 1000 l 166 1000 l 166 1055 l 222 1055 l 222 1111 l 333 1111 l 333 1166 l 555 1166 l 555 1111 l 1278 1111 l 1278 1000 l 1222 1000 l 1222 888 l 1166 888 l 1166 777 l 888 777 l 888 667 l 1166 667 l 1166 389 l 888 389 l 888 277 l 1166 277 l 1166 0 l 611 0 l 611 55 l 555 55 l 555 0 l 277 0 z "},"Ŕ":{"ha":1222,"x_min":0,"x_max":1111,"o":"m 500 777 l 500 833 l 611 833 l 611 888 l 667 888 l 667 1000 l 555 1000 l 555 1055 l 444 1055 l 444 777 l 500 777 m 333 -111 l 333 -55 l 222 -55 l 222 0 l 111 0 l 111 1055 l 222 1055 l 222 1111 l 0 1111 l 0 1222 l 55 1222 l 55 1333 l 111 1333 l 111 1444 l 444 1444 l 444 1389 l 611 1389 l 611 1333 l 722 1333 l 722 1278 l 833 1278 l 833 1222 l 888 1222 l 888 1166 l 944 1166 l 944 1055 l 1000 1055 l 1000 833 l 944 833 l 944 722 l 888 722 l 888 667 l 833 667 l 833 611 l 777 611 l 777 555 l 722 555 l 722 500 l 777 500 l 777 444 l 833 444 l 833 389 l 888 389 l 888 333 l 944 333 l 944 277 l 1000 277 l 1000 222 l 1055 222 l 1055 166 l 1111 166 l 1111 111 l 1055 111 l 1055 55 l 1000 55 l 1000 0 l 944 0 l 944 -55 l 833 -55 l 833 0 l 777 0 l 777 55 l 722 55 l 722 111 l 667 111 l 667 166 l 611 166 l 611 222 l 555 222 l 555 277 l 500 277 l 500 333 l 444 333 l 444 389 l 389 389 l 389 333 l 444 333 l 444 -111 l 333 -111 m 333 1499 l 333 1777 l 444 1777 l 444 1833 l 555 1833 l 555 1889 l 667 1889 l 667 1944 l 777 1944 l 777 1666 l 667 1666 l 667 1611 l 555 1611 l 555 1555 l 444 1555 l 444 1499 l 333 1499 z "},"ŕ":{"ha":1111,"x_min":0,"x_max":1000,"o":"m 555 667 l 555 722 l 611 722 l 611 833 l 555 833 l 555 888 l 444 888 l 444 667 l 555 667 m 333 -111 l 333 -55 l 222 -55 l 222 0 l 111 0 l 111 888 l 222 888 l 222 944 l 0 944 l 0 1055 l 55 1055 l 55 1166 l 111 1166 l 111 1278 l 444 1278 l 444 1222 l 611 1222 l 611 1166 l 722 1166 l 722 1111 l 777 1111 l 777 1055 l 833 1055 l 833 1000 l 888 1000 l 888 888 l 944 888 l 944 667 l 888 667 l 888 555 l 833 555 l 833 500 l 777 500 l 777 444 l 722 444 l 722 389 l 777 389 l 777 333 l 833 333 l 833 277 l 888 277 l 888 222 l 944 222 l 944 166 l 1000 166 l 1000 111 l 944 111 l 944 55 l 888 55 l 888 0 l 833 0 l 833 -55 l 722 -55 l 722 0 l 667 0 l 667 55 l 611 55 l 611 111 l 555 111 l 555 166 l 500 166 l 500 222 l 444 222 l 444 277 l 389 277 l 389 222 l 444 222 l 444 -111 l 333 -111 m 277 1333 l 277 1611 l 389 1611 l 389 1666 l 500 1666 l 500 1722 l 611 1722 l 611 1777 l 722 1777 l 722 1499 l 611 1499 l 611 1444 l 500 1444 l 500 1389 l 389 1389 l 389 1333 l 277 1333 z "},"Ŗ":{"ha":1222,"x_min":0,"x_max":1111,"o":"m 500 777 l 500 833 l 611 833 l 611 888 l 667 888 l 667 1055 l 555 1055 l 555 1111 l 444 1111 l 444 777 l 500 777 m 55 -277 l 55 -166 l 111 -166 l 111 -55 l 166 -55 l 166 0 l 111 0 l 111 1111 l 222 1111 l 222 1166 l 0 1166 l 0 1278 l 55 1278 l 55 1389 l 111 1389 l 111 1499 l 444 1499 l 444 1444 l 611 1444 l 611 1389 l 722 1389 l 722 1333 l 833 1333 l 833 1278 l 888 1278 l 888 1222 l 944 1222 l 944 1111 l 1000 1111 l 1000 833 l 944 833 l 944 722 l 888 722 l 888 667 l 833 667 l 833 611 l 777 611 l 777 555 l 722 555 l 722 500 l 777 500 l 777 444 l 833 444 l 833 389 l 888 389 l 888 333 l 944 333 l 944 277 l 1000 277 l 1000 222 l 1055 222 l 1055 166 l 1111 166 l 1111 111 l 1055 111 l 1055 55 l 1000 55 l 1000 0 l 944 0 l 944 -55 l 833 -55 l 833 0 l 777 0 l 777 55 l 722 55 l 722 111 l 667 111 l 667 166 l 611 166 l 611 222 l 555 222 l 555 277 l 500 277 l 500 333 l 444 333 l 444 389 l 389 389 l 389 333 l 444 333 l 444 -55 l 389 -55 l 389 -166 l 333 -166 l 333 -277 l 55 -277 z "},"ŗ":{"ha":1111,"x_min":0,"x_max":1000,"o":"m 555 667 l 555 722 l 611 722 l 611 833 l 555 833 l 555 888 l 444 888 l 444 667 l 555 667 m 55 -277 l 55 -166 l 111 -166 l 111 -55 l 166 -55 l 166 0 l 111 0 l 111 888 l 222 888 l 222 944 l 0 944 l 0 1055 l 55 1055 l 55 1166 l 111 1166 l 111 1278 l 444 1278 l 444 1222 l 611 1222 l 611 1166 l 722 1166 l 722 1111 l 777 1111 l 777 1055 l 833 1055 l 833 1000 l 888 1000 l 888 888 l 944 888 l 944 667 l 888 667 l 888 555 l 833 555 l 833 500 l 777 500 l 777 444 l 722 444 l 722 389 l 777 389 l 777 333 l 833 333 l 833 277 l 888 277 l 888 222 l 944 222 l 944 166 l 1000 166 l 1000 111 l 944 111 l 944 55 l 888 55 l 888 0 l 833 0 l 833 -55 l 722 -55 l 722 0 l 667 0 l 667 55 l 611 55 l 611 111 l 555 111 l 555 166 l 500 166 l 500 222 l 444 222 l 444 277 l 389 277 l 389 222 l 444 222 l 444 -55 l 389 -55 l 389 -166 l 333 -166 l 333 -277 l 55 -277 z "},"Ř":{"ha":1222,"x_min":0,"x_max":1111,"o":"m 500 777 l 500 833 l 611 833 l 611 888 l 667 888 l 667 1000 l 555 1000 l 555 1055 l 444 1055 l 444 777 l 500 777 m 333 -111 l 333 -55 l 222 -55 l 222 0 l 111 0 l 111 1055 l 222 1055 l 222 1111 l 0 1111 l 0 1222 l 55 1222 l 55 1333 l 111 1333 l 111 1444 l 444 1444 l 444 1389 l 611 1389 l 611 1333 l 722 1333 l 722 1278 l 833 1278 l 833 1222 l 888 1222 l 888 1166 l 944 1166 l 944 1055 l 1000 1055 l 1000 833 l 944 833 l 944 722 l 888 722 l 888 667 l 833 667 l 833 611 l 777 611 l 777 555 l 722 555 l 722 500 l 777 500 l 777 444 l 833 444 l 833 389 l 888 389 l 888 333 l 944 333 l 944 277 l 1000 277 l 1000 222 l 1055 222 l 1055 166 l 1111 166 l 1111 111 l 1055 111 l 1055 55 l 1000 55 l 1000 0 l 944 0 l 944 -55 l 833 -55 l 833 0 l 777 0 l 777 55 l 722 55 l 722 111 l 667 111 l 667 166 l 611 166 l 611 222 l 555 222 l 555 277 l 500 277 l 500 333 l 444 333 l 444 389 l 389 389 l 389 333 l 444 333 l 444 -111 l 333 -111 m 389 1499 l 389 1555 l 333 1555 l 333 1611 l 277 1611 l 277 1666 l 222 1666 l 222 1722 l 166 1722 l 166 1777 l 111 1777 l 111 1833 l 389 1833 l 389 1777 l 444 1777 l 444 1722 l 500 1722 l 500 1777 l 555 1777 l 555 1833 l 833 1833 l 833 1777 l 777 1777 l 777 1722 l 722 1722 l 722 1666 l 667 1666 l 667 1611 l 611 1611 l 611 1555 l 555 1555 l 555 1499 l 389 1499 z "},"ř":{"ha":1111,"x_min":0,"x_max":1000,"o":"m 555 667 l 555 722 l 611 722 l 611 833 l 555 833 l 555 888 l 444 888 l 444 667 l 555 667 m 333 -111 l 333 -55 l 222 -55 l 222 0 l 111 0 l 111 888 l 222 888 l 222 944 l 0 944 l 0 1055 l 55 1055 l 55 1166 l 111 1166 l 111 1278 l 444 1278 l 444 1222 l 611 1222 l 611 1166 l 722 1166 l 722 1111 l 777 1111 l 777 1055 l 833 1055 l 833 1000 l 888 1000 l 888 888 l 944 888 l 944 667 l 888 667 l 888 555 l 833 555 l 833 500 l 777 500 l 777 444 l 722 444 l 722 389 l 777 389 l 777 333 l 833 333 l 833 277 l 888 277 l 888 222 l 944 222 l 944 166 l 1000 166 l 1000 111 l 944 111 l 944 55 l 888 55 l 888 0 l 833 0 l 833 -55 l 722 -55 l 722 0 l 667 0 l 667 55 l 611 55 l 611 111 l 555 111 l 555 166 l 500 166 l 500 222 l 444 222 l 444 277 l 389 277 l 389 222 l 444 222 l 444 -111 l 333 -111 m 389 1333 l 389 1389 l 333 1389 l 333 1444 l 277 1444 l 277 1499 l 222 1499 l 222 1555 l 166 1555 l 166 1611 l 111 1611 l 111 1666 l 389 1666 l 389 1611 l 444 1611 l 444 1555 l 500 1555 l 500 1611 l 555 1611 l 555 1666 l 833 1666 l 833 1611 l 777 1611 l 777 1555 l 722 1555 l 722 1499 l 667 1499 l 667 1444 l 611 1444 l 611 1389 l 555 1389 l 555 1333 l 389 1333 z "},"Ś":{"ha":1055,"x_min":0,"x_max":944,"o":"m 166 0 l 166 55 l 0 55 l 0 166 l 55 166 l 55 277 l 111 277 l 111 389 l 277 389 l 277 333 l 611 333 l 611 389 l 555 389 l 555 444 l 389 444 l 389 500 l 277 500 l 277 555 l 166 555 l 166 611 l 111 611 l 111 667 l 55 667 l 55 722 l 0 722 l 0 1055 l 55 1055 l 55 1166 l 111 1166 l 111 1222 l 166 1222 l 166 1278 l 222 1278 l 222 1333 l 333 1333 l 333 1389 l 444 1389 l 444 1444 l 777 1444 l 777 1389 l 833 1389 l 833 1333 l 888 1333 l 888 888 l 555 888 l 555 1111 l 500 1111 l 500 1055 l 444 1055 l 444 1000 l 389 1000 l 389 944 l 333 944 l 333 833 l 389 833 l 389 777 l 500 777 l 500 722 l 722 722 l 722 667 l 833 667 l 833 611 l 888 611 l 888 555 l 944 555 l 944 277 l 888 277 l 888 166 l 833 166 l 833 111 l 777 111 l 777 55 l 667 55 l 667 0 l 166 0 m 389 1499 l 389 1777 l 500 1777 l 500 1833 l 611 1833 l 611 1889 l 722 1889 l 722 1944 l 833 1944 l 833 1666 l 722 1666 l 722 1611 l 611 1611 l 611 1555 l 500 1555 l 500 1499 l 389 1499 z "},"ś":{"ha":1000,"x_min":0,"x_max":888,"o":"m 55 0 l 55 277 l 555 277 l 555 333 l 444 333 l 444 389 l 277 389 l 277 444 l 166 444 l 166 500 l 111 500 l 111 555 l 55 555 l 55 667 l 0 667 l 0 888 l 55 888 l 55 1000 l 111 1000 l 111 1055 l 166 1055 l 166 1111 l 277 1111 l 277 1166 l 389 1166 l 389 1222 l 722 1222 l 722 1166 l 777 1166 l 777 1111 l 833 1111 l 833 777 l 500 777 l 500 888 l 444 888 l 444 833 l 389 833 l 389 777 l 333 777 l 333 722 l 389 722 l 389 667 l 500 667 l 500 611 l 667 611 l 667 555 l 777 555 l 777 500 l 833 500 l 833 444 l 888 444 l 888 222 l 833 222 l 833 111 l 777 111 l 777 55 l 667 55 l 667 0 l 55 0 m 333 1278 l 333 1555 l 444 1555 l 444 1611 l 555 1611 l 555 1666 l 667 1666 l 667 1722 l 777 1722 l 777 1444 l 667 1444 l 667 1389 l 555 1389 l 555 1333 l 444 1333 l 444 1278 l 333 1278 z "},"Ŝ":{"ha":1055,"x_min":0,"x_max":944,"o":"m 166 0 l 166 55 l 0 55 l 0 166 l 55 166 l 55 277 l 111 277 l 111 389 l 277 389 l 277 333 l 611 333 l 611 389 l 555 389 l 555 444 l 389 444 l 389 500 l 277 500 l 277 555 l 166 555 l 166 611 l 111 611 l 111 667 l 55 667 l 55 722 l 0 722 l 0 1055 l 55 1055 l 55 1166 l 111 1166 l 111 1222 l 166 1222 l 166 1278 l 222 1278 l 222 1333 l 333 1333 l 333 1389 l 444 1389 l 444 1444 l 777 1444 l 777 1389 l 833 1389 l 833 1333 l 888 1333 l 888 888 l 555 888 l 555 1111 l 500 1111 l 500 1055 l 444 1055 l 444 1000 l 389 1000 l 389 944 l 333 944 l 333 833 l 389 833 l 389 777 l 500 777 l 500 722 l 722 722 l 722 667 l 833 667 l 833 611 l 888 611 l 888 555 l 944 555 l 944 277 l 888 277 l 888 166 l 833 166 l 833 111 l 777 111 l 777 55 l 667 55 l 667 0 l 166 0 m 166 1499 l 166 1555 l 222 1555 l 222 1611 l 277 1611 l 277 1666 l 333 1666 l 333 1722 l 389 1722 l 389 1777 l 444 1777 l 444 1833 l 611 1833 l 611 1777 l 667 1777 l 667 1722 l 722 1722 l 722 1666 l 777 1666 l 777 1611 l 833 1611 l 833 1555 l 888 1555 l 888 1499 l 611 1499 l 611 1555 l 555 1555 l 555 1611 l 500 1611 l 500 1555 l 444 1555 l 444 1499 l 166 1499 z "},"ŝ":{"ha":1000,"x_min":0,"x_max":888,"o":"m 55 0 l 55 277 l 555 277 l 555 333 l 444 333 l 444 389 l 277 389 l 277 444 l 166 444 l 166 500 l 111 500 l 111 555 l 55 555 l 55 667 l 0 667 l 0 888 l 55 888 l 55 1000 l 111 1000 l 111 1055 l 166 1055 l 166 1111 l 277 1111 l 277 1166 l 389 1166 l 389 1222 l 722 1222 l 722 1166 l 777 1166 l 777 1111 l 833 1111 l 833 777 l 500 777 l 500 888 l 444 888 l 444 833 l 389 833 l 389 777 l 333 777 l 333 722 l 389 722 l 389 667 l 500 667 l 500 611 l 667 611 l 667 555 l 777 555 l 777 500 l 833 500 l 833 444 l 888 444 l 888 222 l 833 222 l 833 111 l 777 111 l 777 55 l 667 55 l 667 0 l 55 0 m 111 1278 l 111 1333 l 166 1333 l 166 1389 l 222 1389 l 222 1444 l 277 1444 l 277 1499 l 333 1499 l 333 1555 l 389 1555 l 389 1611 l 555 1611 l 555 1555 l 611 1555 l 611 1499 l 667 1499 l 667 1444 l 722 1444 l 722 1389 l 777 1389 l 777 1333 l 833 1333 l 833 1278 l 555 1278 l 555 1333 l 500 1333 l 500 1389 l 444 1389 l 444 1333 l 389 1333 l 389 1278 l 111 1278 z "},"Ş":{"ha":1055,"x_min":0,"x_max":944,"o":"m 222 -277 l 222 -166 l 277 -166 l 277 -55 l 333 -55 l 333 0 l 166 0 l 166 55 l 0 55 l 0 166 l 55 166 l 55 277 l 111 277 l 111 389 l 277 389 l 277 333 l 611 333 l 611 389 l 555 389 l 555 444 l 389 444 l 389 500 l 277 500 l 277 555 l 166 555 l 166 611 l 111 611 l 111 667 l 55 667 l 55 722 l 0 722 l 0 1055 l 55 1055 l 55 1166 l 111 1166 l 111 1222 l 166 1222 l 166 1278 l 222 1278 l 222 1333 l 333 1333 l 333 1389 l 444 1389 l 444 1444 l 777 1444 l 777 1389 l 833 1389 l 833 1333 l 888 1333 l 888 888 l 555 888 l 555 1111 l 500 1111 l 500 1055 l 444 1055 l 444 1000 l 389 1000 l 389 944 l 333 944 l 333 833 l 389 833 l 389 777 l 500 777 l 500 722 l 722 722 l 722 667 l 833 667 l 833 611 l 888 611 l 888 555 l 944 555 l 944 277 l 888 277 l 888 166 l 833 166 l 833 111 l 777 111 l 777 55 l 667 55 l 667 0 l 611 0 l 611 -55 l 555 -55 l 555 -166 l 500 -166 l 500 -277 l 222 -277 z "},"ş":{"ha":1000,"x_min":0,"x_max":888,"o":"m 166 -277 l 166 -166 l 222 -166 l 222 -55 l 277 -55 l 277 0 l 55 0 l 55 277 l 555 277 l 555 333 l 444 333 l 444 389 l 277 389 l 277 444 l 166 444 l 166 500 l 111 500 l 111 555 l 55 555 l 55 667 l 0 667 l 0 888 l 55 888 l 55 1000 l 111 1000 l 111 1055 l 166 1055 l 166 1111 l 277 1111 l 277 1166 l 389 1166 l 389 1222 l 722 1222 l 722 1166 l 777 1166 l 777 1111 l 833 1111 l 833 777 l 500 777 l 500 888 l 444 888 l 444 833 l 389 833 l 389 777 l 333 777 l 333 722 l 389 722 l 389 667 l 500 667 l 500 611 l 667 611 l 667 555 l 777 555 l 777 500 l 833 500 l 833 444 l 888 444 l 888 222 l 833 222 l 833 111 l 777 111 l 777 55 l 667 55 l 667 0 l 555 0 l 555 -55 l 500 -55 l 500 -166 l 444 -166 l 444 -277 l 166 -277 z "},"Š":{"ha":1055,"x_min":0,"x_max":944,"o":"m 166 0 l 166 55 l 0 55 l 0 166 l 55 166 l 55 277 l 111 277 l 111 389 l 277 389 l 277 333 l 611 333 l 611 389 l 555 389 l 555 444 l 389 444 l 389 500 l 277 500 l 277 555 l 166 555 l 166 611 l 111 611 l 111 667 l 55 667 l 55 722 l 0 722 l 0 1055 l 55 1055 l 55 1166 l 111 1166 l 111 1222 l 166 1222 l 166 1278 l 222 1278 l 222 1333 l 333 1333 l 333 1389 l 444 1389 l 444 1444 l 777 1444 l 777 1389 l 833 1389 l 833 1333 l 888 1333 l 888 888 l 555 888 l 555 1111 l 500 1111 l 500 1055 l 444 1055 l 444 1000 l 389 1000 l 389 944 l 333 944 l 333 833 l 389 833 l 389 777 l 500 777 l 500 722 l 722 722 l 722 667 l 833 667 l 833 611 l 888 611 l 888 555 l 944 555 l 944 277 l 888 277 l 888 166 l 833 166 l 833 111 l 777 111 l 777 55 l 667 55 l 667 0 l 166 0 m 444 1499 l 444 1555 l 389 1555 l 389 1611 l 333 1611 l 333 1666 l 277 1666 l 277 1722 l 222 1722 l 222 1777 l 166 1777 l 166 1833 l 444 1833 l 444 1777 l 500 1777 l 500 1722 l 555 1722 l 555 1777 l 611 1777 l 611 1833 l 888 1833 l 888 1777 l 833 1777 l 833 1722 l 777 1722 l 777 1666 l 722 1666 l 722 1611 l 667 1611 l 667 1555 l 611 1555 l 611 1499 l 444 1499 z "},"š":{"ha":1000,"x_min":0,"x_max":888,"o":"m 55 0 l 55 277 l 555 277 l 555 333 l 444 333 l 444 389 l 277 389 l 277 444 l 166 444 l 166 500 l 111 500 l 111 555 l 55 555 l 55 667 l 0 667 l 0 888 l 55 888 l 55 1000 l 111 1000 l 111 1055 l 166 1055 l 166 1111 l 277 1111 l 277 1166 l 389 1166 l 389 1222 l 722 1222 l 722 1166 l 777 1166 l 777 1111 l 833 1111 l 833 777 l 500 777 l 500 888 l 444 888 l 444 833 l 389 833 l 389 777 l 333 777 l 333 722 l 389 722 l 389 667 l 500 667 l 500 611 l 667 611 l 667 555 l 777 555 l 777 500 l 833 500 l 833 444 l 888 444 l 888 222 l 833 222 l 833 111 l 777 111 l 777 55 l 667 55 l 667 0 l 55 0 m 389 1278 l 389 1333 l 333 1333 l 333 1389 l 277 1389 l 277 1444 l 222 1444 l 222 1499 l 166 1499 l 166 1555 l 111 1555 l 111 1611 l 389 1611 l 389 1555 l 444 1555 l 444 1499 l 500 1499 l 500 1555 l 555 1555 l 555 1611 l 833 1611 l 833 1555 l 777 1555 l 777 1499 l 722 1499 l 722 1444 l 667 1444 l 667 1389 l 611 1389 l 611 1333 l 555 1333 l 555 1278 l 389 1278 z "},"Ţ":{"ha":1111,"x_min":0,"x_max":1000,"o":"m 277 -277 l 277 -166 l 333 -166 l 333 -55 l 389 -55 l 389 0 l 333 0 l 333 944 l 444 944 l 444 1000 l 0 1000 l 0 1111 l 55 1111 l 55 1222 l 111 1222 l 111 1333 l 1000 1333 l 1000 1222 l 944 1222 l 944 1111 l 888 1111 l 888 1000 l 667 1000 l 667 -55 l 611 -55 l 611 -166 l 555 -166 l 555 -277 l 277 -277 z "},"ţ":{"ha":1111,"x_min":0,"x_max":1000,"o":"m 277 -277 l 277 -166 l 333 -166 l 333 -55 l 389 -55 l 389 0 l 333 0 l 333 722 l 444 722 l 444 777 l 0 777 l 0 888 l 55 888 l 55 1000 l 111 1000 l 111 1111 l 1000 1111 l 1000 1000 l 944 1000 l 944 888 l 888 888 l 888 777 l 667 777 l 667 -55 l 611 -55 l 611 -166 l 555 -166 l 555 -277 l 277 -277 z "},"Ť":{"ha":1111,"x_min":0,"x_max":1000,"o":"m 555 -111 l 555 -55 l 444 -55 l 444 0 l 333 0 l 333 944 l 444 944 l 444 1000 l 0 1000 l 0 1111 l 55 1111 l 55 1222 l 111 1222 l 111 1333 l 1000 1333 l 1000 1222 l 944 1222 l 944 1111 l 888 1111 l 888 1000 l 667 1000 l 667 -111 l 555 -111 m 444 1389 l 444 1444 l 389 1444 l 389 1499 l 333 1499 l 333 1555 l 277 1555 l 277 1611 l 222 1611 l 222 1666 l 166 1666 l 166 1722 l 444 1722 l 444 1666 l 500 1666 l 500 1611 l 555 1611 l 555 1666 l 611 1666 l 611 1722 l 888 1722 l 888 1666 l 833 1666 l 833 1611 l 777 1611 l 777 1555 l 722 1555 l 722 1499 l 667 1499 l 667 1444 l 611 1444 l 611 1389 l 444 1389 z "},"ť":{"ha":1111,"x_min":0,"x_max":1000,"o":"m 555 -111 l 555 -55 l 444 -55 l 444 0 l 333 0 l 333 722 l 444 722 l 444 777 l 0 777 l 0 888 l 55 888 l 55 1000 l 111 1000 l 111 1111 l 1000 1111 l 1000 1000 l 944 1000 l 944 888 l 888 888 l 888 777 l 667 777 l 667 -111 l 555 -111 m 444 1166 l 444 1222 l 389 1222 l 389 1278 l 333 1278 l 333 1333 l 277 1333 l 277 1389 l 222 1389 l 222 1444 l 166 1444 l 166 1499 l 444 1499 l 444 1444 l 500 1444 l 500 1389 l 555 1389 l 555 1444 l 611 1444 l 611 1499 l 888 1499 l 888 1444 l 833 1444 l 833 1389 l 777 1389 l 777 1333 l 722 1333 l 722 1278 l 667 1278 l 667 1222 l 611 1222 l 611 1166 l 444 1166 z "},"Ũ":{"ha":1000,"x_min":0,"x_max":888,"o":"m 777 -111 l 777 -55 l 667 -55 l 667 0 l 555 0 l 555 111 l 611 111 l 611 166 l 555 166 l 555 111 l 500 111 l 500 55 l 389 55 l 389 0 l 277 0 l 277 -55 l 55 -55 l 55 0 l 0 0 l 0 1333 l 333 1333 l 333 333 l 389 333 l 389 389 l 500 389 l 500 444 l 555 444 l 555 1444 l 667 1444 l 667 1389 l 777 1389 l 777 1333 l 888 1333 l 888 -111 l 777 -111 m 166 1499 l 166 1555 l 111 1555 l 111 1666 l 166 1666 l 166 1722 l 222 1722 l 222 1777 l 277 1777 l 277 1833 l 444 1833 l 444 1777 l 500 1777 l 500 1722 l 555 1722 l 555 1777 l 611 1777 l 611 1833 l 722 1833 l 722 1777 l 777 1777 l 777 1666 l 722 1666 l 722 1611 l 667 1611 l 667 1555 l 611 1555 l 611 1499 l 444 1499 l 444 1555 l 389 1555 l 389 1611 l 333 1611 l 333 1555 l 277 1555 l 277 1499 l 166 1499 z "},"ũ":{"ha":1000,"x_min":0,"x_max":888,"o":"m 777 -111 l 777 -55 l 667 -55 l 667 0 l 555 0 l 555 111 l 611 111 l 611 166 l 555 166 l 555 111 l 500 111 l 500 55 l 389 55 l 389 0 l 277 0 l 277 -55 l 55 -55 l 55 0 l 0 0 l 0 1111 l 333 1111 l 333 333 l 389 333 l 389 389 l 500 389 l 500 444 l 555 444 l 555 1222 l 667 1222 l 667 1166 l 777 1166 l 777 1111 l 888 1111 l 888 -111 l 777 -111 m 166 1278 l 166 1333 l 111 1333 l 111 1444 l 166 1444 l 166 1499 l 222 1499 l 222 1555 l 277 1555 l 277 1611 l 444 1611 l 444 1555 l 500 1555 l 500 1499 l 555 1499 l 555 1555 l 611 1555 l 611 1611 l 722 1611 l 722 1555 l 777 1555 l 777 1444 l 722 1444 l 722 1389 l 667 1389 l 667 1333 l 611 1333 l 611 1278 l 444 1278 l 444 1333 l 389 1333 l 389 1389 l 333 1389 l 333 1333 l 277 1333 l 277 1278 l 166 1278 z "},"Ū":{"ha":1000,"x_min":0,"x_max":888,"o":"m 777 -111 l 777 -55 l 667 -55 l 667 0 l 555 0 l 555 111 l 611 111 l 611 166 l 555 166 l 555 111 l 500 111 l 500 55 l 389 55 l 389 0 l 277 0 l 277 -55 l 55 -55 l 55 0 l 0 0 l 0 1333 l 333 1333 l 333 333 l 389 333 l 389 389 l 500 389 l 500 444 l 555 444 l 555 1444 l 667 1444 l 667 1389 l 777 1389 l 777 1333 l 888 1333 l 888 -111 l 777 -111 m 111 1499 l 111 1611 l 166 1611 l 166 1722 l 222 1722 l 222 1833 l 777 1833 l 777 1722 l 722 1722 l 722 1611 l 667 1611 l 667 1499 l 111 1499 z "},"ū":{"ha":1000,"x_min":0,"x_max":888,"o":"m 777 -111 l 777 -55 l 667 -55 l 667 0 l 555 0 l 555 111 l 611 111 l 611 166 l 555 166 l 555 111 l 500 111 l 500 55 l 389 55 l 389 0 l 277 0 l 277 -55 l 55 -55 l 55 0 l 0 0 l 0 1111 l 333 1111 l 333 333 l 389 333 l 389 389 l 500 389 l 500 444 l 555 444 l 555 1222 l 667 1222 l 667 1166 l 777 1166 l 777 1111 l 888 1111 l 888 -111 l 777 -111 m 111 1278 l 111 1389 l 166 1389 l 166 1499 l 222 1499 l 222 1611 l 777 1611 l 777 1499 l 722 1499 l 722 1389 l 667 1389 l 667 1278 l 111 1278 z "},"Ŭ":{"ha":1000,"x_min":0,"x_max":888,"o":"m 777 -111 l 777 -55 l 667 -55 l 667 0 l 555 0 l 555 111 l 611 111 l 611 166 l 555 166 l 555 111 l 500 111 l 500 55 l 389 55 l 389 0 l 277 0 l 277 -55 l 55 -55 l 55 0 l 0 0 l 0 1333 l 333 1333 l 333 333 l 389 333 l 389 389 l 500 389 l 500 444 l 555 444 l 555 1444 l 667 1444 l 667 1389 l 777 1389 l 777 1333 l 888 1333 l 888 -111 l 777 -111 m 277 1499 l 277 1555 l 166 1555 l 166 1611 l 111 1611 l 111 1666 l 55 1666 l 55 1833 l 277 1833 l 277 1777 l 333 1777 l 333 1722 l 500 1722 l 500 1777 l 555 1777 l 555 1833 l 777 1833 l 777 1666 l 722 1666 l 722 1611 l 667 1611 l 667 1555 l 555 1555 l 555 1499 l 277 1499 z "},"ŭ":{"ha":1000,"x_min":0,"x_max":888,"o":"m 777 -111 l 777 -55 l 667 -55 l 667 0 l 555 0 l 555 111 l 611 111 l 611 166 l 555 166 l 555 111 l 500 111 l 500 55 l 389 55 l 389 0 l 277 0 l 277 -55 l 55 -55 l 55 0 l 0 0 l 0 1111 l 333 1111 l 333 333 l 389 333 l 389 389 l 500 389 l 500 444 l 555 444 l 555 1222 l 667 1222 l 667 1166 l 777 1166 l 777 1111 l 888 1111 l 888 -111 l 777 -111 m 277 1278 l 277 1333 l 166 1333 l 166 1389 l 111 1389 l 111 1444 l 55 1444 l 55 1611 l 277 1611 l 277 1555 l 333 1555 l 333 1499 l 500 1499 l 500 1555 l 555 1555 l 555 1611 l 777 1611 l 777 1444 l 722 1444 l 722 1389 l 667 1389 l 667 1333 l 555 1333 l 555 1278 l 277 1278 z "},"Ů":{"ha":1000,"x_min":0,"x_max":888,"o":"m 777 -111 l 777 -55 l 667 -55 l 667 0 l 555 0 l 555 111 l 611 111 l 611 166 l 555 166 l 555 111 l 500 111 l 500 55 l 389 55 l 389 0 l 277 0 l 277 -55 l 55 -55 l 55 0 l 0 0 l 0 1333 l 333 1333 l 333 333 l 389 333 l 389 389 l 500 389 l 500 444 l 555 444 l 555 1444 l 667 1444 l 667 1389 l 777 1389 l 777 1333 l 888 1333 l 888 -111 l 777 -111 m 389 1499 l 389 1555 l 500 1555 l 500 1499 l 389 1499 m 277 1555 l 277 1722 l 389 1722 l 389 1555 l 277 1555 m 500 1555 l 500 1722 l 611 1722 l 611 1555 l 500 1555 m 389 1722 l 389 1777 l 500 1777 l 500 1722 l 389 1722 z "},"ů":{"ha":1000,"x_min":0,"x_max":888,"o":"m 777 -111 l 777 -55 l 667 -55 l 667 0 l 555 0 l 555 111 l 611 111 l 611 166 l 555 166 l 555 111 l 500 111 l 500 55 l 389 55 l 389 0 l 277 0 l 277 -55 l 55 -55 l 55 0 l 0 0 l 0 1111 l 333 1111 l 333 333 l 389 333 l 389 389 l 500 389 l 500 444 l 555 444 l 555 1222 l 667 1222 l 667 1166 l 777 1166 l 777 1111 l 888 1111 l 888 -111 l 777 -111 m 389 1278 l 389 1333 l 500 1333 l 500 1278 l 389 1278 m 277 1333 l 277 1499 l 389 1499 l 389 1333 l 277 1333 m 500 1333 l 500 1499 l 611 1499 l 611 1333 l 500 1333 m 389 1499 l 389 1555 l 500 1555 l 500 1499 l 389 1499 z "},"Ų":{"ha":1055,"x_min":0,"x_max":944,"o":"m 667 -277 l 667 -166 l 611 -166 l 611 -55 l 555 -55 l 555 111 l 611 111 l 611 166 l 555 166 l 555 111 l 500 111 l 500 55 l 389 55 l 389 0 l 277 0 l 277 -55 l 55 -55 l 55 0 l 0 0 l 0 1333 l 333 1333 l 333 333 l 389 333 l 389 389 l 500 389 l 500 444 l 555 444 l 555 1444 l 667 1444 l 667 1389 l 777 1389 l 777 1333 l 888 1333 l 888 0 l 833 0 l 833 -55 l 888 -55 l 888 -166 l 944 -166 l 944 -277 l 667 -277 z "},"ų":{"ha":1055,"x_min":0,"x_max":944,"o":"m 667 -277 l 667 -166 l 611 -166 l 611 -55 l 555 -55 l 555 111 l 611 111 l 611 166 l 555 166 l 555 111 l 500 111 l 500 55 l 389 55 l 389 0 l 277 0 l 277 -55 l 55 -55 l 55 0 l 0 0 l 0 1111 l 333 1111 l 333 333 l 389 333 l 389 389 l 500 389 l 500 444 l 555 444 l 555 1222 l 667 1222 l 667 1166 l 777 1166 l 777 1111 l 888 1111 l 888 0 l 833 0 l 833 -55 l 888 -55 l 888 -166 l 944 -166 l 944 -277 l 667 -277 z "},"Ŵ":{"ha":1444,"x_min":0,"x_max":1333,"o":"m 0 0 l 0 1444 l 111 1444 l 111 1389 l 222 1389 l 222 1333 l 333 1333 l 333 500 l 389 500 l 389 722 l 444 722 l 444 944 l 722 944 l 722 722 l 777 722 l 777 500 l 833 500 l 833 722 l 888 722 l 888 944 l 944 944 l 944 1166 l 1000 1166 l 1000 1333 l 1333 1333 l 1333 1111 l 1278 1111 l 1278 888 l 1222 888 l 1222 667 l 1166 667 l 1166 444 l 1111 444 l 1111 222 l 1055 222 l 1055 0 l 667 0 l 667 166 l 611 166 l 611 333 l 555 333 l 555 166 l 500 166 l 500 0 l 0 0 m 333 1499 l 333 1555 l 389 1555 l 389 1611 l 444 1611 l 444 1666 l 500 1666 l 500 1722 l 555 1722 l 555 1777 l 611 1777 l 611 1833 l 777 1833 l 777 1777 l 833 1777 l 833 1722 l 888 1722 l 888 1666 l 944 1666 l 944 1611 l 1000 1611 l 1000 1555 l 1055 1555 l 1055 1499 l 777 1499 l 777 1555 l 722 1555 l 722 1611 l 667 1611 l 667 1555 l 611 1555 l 611 1499 l 333 1499 z "},"ŵ":{"ha":1278,"x_min":0,"x_max":1166,"o":"m 0 0 l 0 1222 l 111 1222 l 111 1166 l 222 1166 l 222 1111 l 333 1111 l 333 555 l 389 555 l 389 777 l 667 777 l 667 555 l 722 555 l 722 722 l 777 722 l 777 944 l 833 944 l 833 1111 l 1166 1111 l 1166 888 l 1111 888 l 1111 667 l 1055 667 l 1055 444 l 1000 444 l 1000 222 l 944 222 l 944 0 l 611 0 l 611 166 l 555 166 l 555 333 l 500 333 l 500 166 l 444 166 l 444 0 l 0 0 m 222 1278 l 222 1333 l 277 1333 l 277 1389 l 333 1389 l 333 1444 l 389 1444 l 389 1499 l 444 1499 l 444 1555 l 500 1555 l 500 1611 l 667 1611 l 667 1555 l 722 1555 l 722 1499 l 777 1499 l 777 1444 l 833 1444 l 833 1389 l 888 1389 l 888 1333 l 944 1333 l 944 1278 l 667 1278 l 667 1333 l 611 1333 l 611 1389 l 555 1389 l 555 1333 l 500 1333 l 500 1278 l 222 1278 z "},"Ŷ":{"ha":1166,"x_min":0,"x_max":1055,"o":"m 55 0 l 55 111 l 111 111 l 111 222 l 166 222 l 166 333 l 222 333 l 222 444 l 277 444 l 277 555 l 333 555 l 333 722 l 277 722 l 277 833 l 222 833 l 222 944 l 166 944 l 166 1055 l 111 1055 l 111 1166 l 55 1166 l 55 1278 l 0 1278 l 0 1333 l 111 1333 l 111 1389 l 222 1389 l 222 1444 l 333 1444 l 333 1333 l 389 1333 l 389 1222 l 444 1222 l 444 1111 l 500 1111 l 500 1000 l 555 1000 l 555 888 l 611 888 l 611 1000 l 555 1000 l 555 1111 l 611 1111 l 611 1222 l 667 1222 l 667 1333 l 722 1333 l 722 1389 l 1055 1389 l 1055 1278 l 1000 1278 l 1000 1166 l 944 1166 l 944 1055 l 888 1055 l 888 944 l 833 944 l 833 833 l 777 833 l 777 722 l 722 722 l 722 611 l 667 611 l 667 500 l 611 500 l 611 389 l 555 389 l 555 277 l 500 277 l 500 166 l 444 166 l 444 55 l 389 55 l 389 0 l 55 0 m 166 1499 l 166 1555 l 222 1555 l 222 1611 l 277 1611 l 277 1666 l 333 1666 l 333 1722 l 389 1722 l 389 1777 l 444 1777 l 444 1833 l 611 1833 l 611 1777 l 667 1777 l 667 1722 l 722 1722 l 722 1666 l 777 1666 l 777 1611 l 833 1611 l 833 1555 l 888 1555 l 888 1499 l 611 1499 l 611 1555 l 555 1555 l 555 1611 l 500 1611 l 500 1555 l 444 1555 l 444 1499 l 166 1499 z "},"ŷ":{"ha":1055,"x_min":0,"x_max":944,"o":"m 55 0 l 55 111 l 111 111 l 111 222 l 166 222 l 166 333 l 222 333 l 222 444 l 277 444 l 277 611 l 222 611 l 222 722 l 166 722 l 166 833 l 111 833 l 111 944 l 55 944 l 55 1055 l 0 1055 l 0 1111 l 111 1111 l 111 1166 l 222 1166 l 222 1222 l 333 1222 l 333 1111 l 389 1111 l 389 1000 l 444 1000 l 444 888 l 500 888 l 500 777 l 555 777 l 555 888 l 500 888 l 500 1000 l 555 1000 l 555 1111 l 611 1111 l 611 1166 l 944 1166 l 944 1055 l 888 1055 l 888 944 l 833 944 l 833 833 l 777 833 l 777 722 l 722 722 l 722 611 l 667 611 l 667 500 l 611 500 l 611 389 l 555 389 l 555 277 l 500 277 l 500 166 l 444 166 l 444 55 l 389 55 l 389 0 l 55 0 m 111 1278 l 111 1333 l 166 1333 l 166 1389 l 222 1389 l 222 1444 l 277 1444 l 277 1499 l 333 1499 l 333 1555 l 389 1555 l 389 1611 l 555 1611 l 555 1555 l 611 1555 l 611 1499 l 667 1499 l 667 1444 l 722 1444 l 722 1389 l 777 1389 l 777 1333 l 833 1333 l 833 1278 l 555 1278 l 555 1333 l 500 1333 l 500 1389 l 444 1389 l 444 1333 l 389 1333 l 389 1278 l 111 1278 z "},"Ÿ":{"ha":1166,"x_min":0,"x_max":1055,"o":"m 55 0 l 55 111 l 111 111 l 111 222 l 166 222 l 166 333 l 222 333 l 222 444 l 277 444 l 277 555 l 333 555 l 333 722 l 277 722 l 277 833 l 222 833 l 222 944 l 166 944 l 166 1055 l 111 1055 l 111 1166 l 55 1166 l 55 1278 l 0 1278 l 0 1333 l 111 1333 l 111 1389 l 222 1389 l 222 1444 l 333 1444 l 333 1333 l 389 1333 l 389 1222 l 444 1222 l 444 1111 l 500 1111 l 500 1000 l 555 1000 l 555 888 l 611 888 l 611 1000 l 555 1000 l 555 1111 l 611 1111 l 611 1222 l 667 1222 l 667 1333 l 722 1333 l 722 1389 l 1055 1389 l 1055 1278 l 1000 1278 l 1000 1166 l 944 1166 l 944 1055 l 888 1055 l 888 944 l 833 944 l 833 833 l 777 833 l 777 722 l 722 722 l 722 611 l 667 611 l 667 500 l 611 500 l 611 389 l 555 389 l 555 277 l 500 277 l 500 166 l 444 166 l 444 55 l 389 55 l 389 0 l 55 0 m 389 1499 l 389 1555 l 277 1555 l 277 1833 l 389 1833 l 389 1777 l 500 1777 l 500 1499 l 389 1499 m 722 1499 l 722 1555 l 611 1555 l 611 1833 l 722 1833 l 722 1777 l 833 1777 l 833 1499 l 722 1499 z "},"Ź":{"ha":1000,"x_min":0,"x_max":888,"o":"m 111 0 l 111 333 l 166 333 l 166 444 l 222 444 l 222 555 l 277 555 l 277 667 l 333 667 l 333 777 l 389 777 l 389 888 l 444 888 l 444 1000 l 611 1000 l 611 1055 l 0 1055 l 0 1166 l 55 1166 l 55 1278 l 111 1278 l 111 1389 l 888 1389 l 888 1055 l 833 1055 l 833 944 l 777 944 l 777 833 l 722 833 l 722 722 l 667 722 l 667 611 l 611 611 l 611 500 l 555 500 l 555 389 l 500 389 l 500 277 l 888 277 l 888 0 l 111 0 m 277 1444 l 277 1722 l 389 1722 l 389 1777 l 500 1777 l 500 1833 l 611 1833 l 611 1889 l 722 1889 l 722 1611 l 611 1611 l 611 1555 l 500 1555 l 500 1499 l 389 1499 l 389 1444 l 277 1444 z "},"ź":{"ha":888,"x_min":0,"x_max":777,"o":"m 111 0 l 111 333 l 166 333 l 166 444 l 222 444 l 222 555 l 277 555 l 277 667 l 333 667 l 333 777 l 500 777 l 500 833 l 0 833 l 0 944 l 55 944 l 55 1055 l 111 1055 l 111 1166 l 777 1166 l 777 833 l 722 833 l 722 722 l 667 722 l 667 611 l 611 611 l 611 500 l 555 500 l 555 389 l 500 389 l 500 277 l 777 277 l 777 0 l 111 0 m 222 1222 l 222 1499 l 333 1499 l 333 1555 l 444 1555 l 444 1611 l 555 1611 l 555 1666 l 667 1666 l 667 1389 l 555 1389 l 555 1333 l 444 1333 l 444 1278 l 333 1278 l 333 1222 l 222 1222 z "},"Ż":{"ha":1000,"x_min":0,"x_max":888,"o":"m 111 0 l 111 333 l 166 333 l 166 444 l 222 444 l 222 555 l 277 555 l 277 667 l 333 667 l 333 777 l 389 777 l 389 888 l 444 888 l 444 1000 l 611 1000 l 611 1055 l 0 1055 l 0 1166 l 55 1166 l 55 1278 l 111 1278 l 111 1389 l 888 1389 l 888 1055 l 833 1055 l 833 944 l 777 944 l 777 833 l 722 833 l 722 722 l 667 722 l 667 611 l 611 611 l 611 500 l 555 500 l 555 389 l 500 389 l 500 277 l 888 277 l 888 0 l 111 0 m 555 1444 l 555 1499 l 444 1499 l 444 1555 l 333 1555 l 333 1889 l 444 1889 l 444 1833 l 555 1833 l 555 1777 l 667 1777 l 667 1444 l 555 1444 z "},"ż":{"ha":888,"x_min":0,"x_max":777,"o":"m 111 0 l 111 333 l 166 333 l 166 444 l 222 444 l 222 555 l 277 555 l 277 667 l 333 667 l 333 777 l 500 777 l 500 833 l 0 833 l 0 944 l 55 944 l 55 1055 l 111 1055 l 111 1166 l 777 1166 l 777 833 l 722 833 l 722 722 l 667 722 l 667 611 l 611 611 l 611 500 l 555 500 l 555 389 l 500 389 l 500 277 l 777 277 l 777 0 l 111 0 m 500 1222 l 500 1278 l 389 1278 l 389 1333 l 277 1333 l 277 1666 l 389 1666 l 389 1611 l 500 1611 l 500 1555 l 611 1555 l 611 1222 l 500 1222 z "},"Ž":{"ha":1000,"x_min":0,"x_max":888,"o":"m 111 0 l 111 333 l 166 333 l 166 444 l 222 444 l 222 555 l 277 555 l 277 667 l 333 667 l 333 777 l 389 777 l 389 888 l 444 888 l 444 1000 l 611 1000 l 611 1055 l 0 1055 l 0 1166 l 55 1166 l 55 1278 l 111 1278 l 111 1389 l 888 1389 l 888 1055 l 833 1055 l 833 944 l 777 944 l 777 833 l 722 833 l 722 722 l 667 722 l 667 611 l 611 611 l 611 500 l 555 500 l 555 389 l 500 389 l 500 277 l 888 277 l 888 0 l 111 0 m 389 1444 l 389 1499 l 333 1499 l 333 1555 l 277 1555 l 277 1611 l 222 1611 l 222 1666 l 166 1666 l 166 1722 l 111 1722 l 111 1777 l 389 1777 l 389 1722 l 444 1722 l 444 1666 l 500 1666 l 500 1722 l 555 1722 l 555 1777 l 833 1777 l 833 1722 l 777 1722 l 777 1666 l 722 1666 l 722 1611 l 667 1611 l 667 1555 l 611 1555 l 611 1499 l 555 1499 l 555 1444 l 389 1444 z "},"ž":{"ha":888,"x_min":0,"x_max":777,"o":"m 111 0 l 111 333 l 166 333 l 166 444 l 222 444 l 222 555 l 277 555 l 277 667 l 333 667 l 333 777 l 500 777 l 500 833 l 0 833 l 0 944 l 55 944 l 55 1055 l 111 1055 l 111 1166 l 777 1166 l 777 833 l 722 833 l 722 722 l 667 722 l 667 611 l 611 611 l 611 500 l 555 500 l 555 389 l 500 389 l 500 277 l 777 277 l 777 0 l 111 0 m 333 1222 l 333 1278 l 277 1278 l 277 1333 l 222 1333 l 222 1389 l 166 1389 l 166 1444 l 111 1444 l 111 1499 l 55 1499 l 55 1555 l 333 1555 l 333 1499 l 389 1499 l 389 1444 l 444 1444 l 444 1499 l 500 1499 l 500 1555 l 777 1555 l 777 1499 l 722 1499 l 722 1444 l 667 1444 l 667 1389 l 611 1389 l 611 1333 l 555 1333 l 555 1278 l 500 1278 l 500 1222 l 333 1222 z "},"Ǝ":{"ha":111,"x_min":0,"x_max":0,"o":""},"Ɨ":{"ha":1000,"x_min":0,"x_max":888,"o":"m 500 -111 l 500 -55 l 389 -55 l 389 0 l 277 0 l 277 444 l 389 444 l 389 500 l 0 500 l 0 611 l 55 611 l 55 722 l 111 722 l 111 833 l 277 833 l 277 1444 l 389 1444 l 389 1389 l 500 1389 l 500 1333 l 611 1333 l 611 833 l 888 833 l 888 722 l 833 722 l 833 611 l 777 611 l 777 500 l 611 500 l 611 -111 l 500 -111 z "},"ƚ":{"ha":1111,"x_min":0,"x_max":1000,"o":"m 222 0 l 222 444 l 333 444 l 333 500 l 0 500 l 0 611 l 55 611 l 55 722 l 111 722 l 111 833 l 222 833 l 222 1222 l 333 1222 l 333 1166 l 444 1166 l 444 1111 l 555 1111 l 555 833 l 888 833 l 888 722 l 833 722 l 833 611 l 777 611 l 777 500 l 555 500 l 555 277 l 1000 277 l 1000 0 l 222 0 z "},"Ʃ":{"ha":111,"x_min":0,"x_max":0,"o":""},"Ǎ":{"ha":1000,"x_min":0,"x_max":888,"o":"m 444 389 l 444 611 l 389 611 l 389 833 l 333 833 l 333 389 l 444 389 m 222 -111 l 222 -55 l 111 -55 l 111 0 l 0 0 l 0 1333 l 333 1333 l 333 1166 l 389 1166 l 389 1389 l 222 1389 l 222 1444 l 555 1444 l 555 1333 l 611 1333 l 611 1111 l 667 1111 l 667 888 l 722 888 l 722 667 l 777 667 l 777 444 l 833 444 l 833 222 l 888 222 l 888 0 l 555 0 l 555 111 l 333 111 l 333 -111 l 222 -111 m 333 1499 l 333 1555 l 277 1555 l 277 1611 l 222 1611 l 222 1666 l 166 1666 l 166 1722 l 111 1722 l 111 1777 l 55 1777 l 55 1833 l 333 1833 l 333 1777 l 389 1777 l 389 1722 l 444 1722 l 444 1777 l 500 1777 l 500 1833 l 777 1833 l 777 1777 l 722 1777 l 722 1722 l 667 1722 l 667 1666 l 611 1666 l 611 1611 l 555 1611 l 555 1555 l 500 1555 l 500 1499 l 333 1499 z "},"ǎ":{"ha":944,"x_min":0,"x_max":833,"o":"m 444 389 l 444 500 l 389 500 l 389 667 l 333 667 l 333 389 l 444 389 m 222 -111 l 222 -55 l 111 -55 l 111 0 l 0 0 l 0 1111 l 333 1111 l 333 944 l 389 944 l 389 1166 l 222 1166 l 222 1278 l 555 1278 l 555 1111 l 611 1111 l 611 888 l 667 888 l 667 667 l 722 667 l 722 444 l 777 444 l 777 222 l 833 222 l 833 0 l 555 0 l 555 111 l 333 111 l 333 -111 l 222 -111 m 333 1333 l 333 1389 l 277 1389 l 277 1444 l 222 1444 l 222 1499 l 166 1499 l 166 1555 l 111 1555 l 111 1611 l 55 1611 l 55 1666 l 333 1666 l 333 1611 l 389 1611 l 389 1555 l 444 1555 l 444 1611 l 500 1611 l 500 1666 l 777 1666 l 777 1611 l 722 1611 l 722 1555 l 667 1555 l 667 1499 l 611 1499 l 611 1444 l 555 1444 l 555 1389 l 500 1389 l 500 1333 l 333 1333 z "},"Ǐ":{"ha":833,"x_min":0,"x_max":722,"o":"m 444 -111 l 444 -55 l 333 -55 l 333 0 l 222 0 l 222 1444 l 333 1444 l 333 1389 l 444 1389 l 444 1333 l 555 1333 l 555 -111 l 444 -111 m 277 1499 l 277 1555 l 222 1555 l 222 1611 l 166 1611 l 166 1666 l 111 1666 l 111 1722 l 55 1722 l 55 1777 l 0 1777 l 0 1833 l 277 1833 l 277 1777 l 333 1777 l 333 1722 l 389 1722 l 389 1777 l 444 1777 l 444 1833 l 722 1833 l 722 1777 l 667 1777 l 667 1722 l 611 1722 l 611 1666 l 555 1666 l 555 1611 l 500 1611 l 500 1555 l 444 1555 l 444 1499 l 277 1499 z "},"ǐ":{"ha":833,"x_min":0,"x_max":722,"o":"m 444 -111 l 444 -55 l 333 -55 l 333 0 l 222 0 l 222 1222 l 333 1222 l 333 1166 l 444 1166 l 444 1111 l 555 1111 l 555 -111 l 444 -111 m 277 1278 l 277 1333 l 222 1333 l 222 1389 l 166 1389 l 166 1444 l 111 1444 l 111 1499 l 55 1499 l 55 1555 l 0 1555 l 0 1611 l 277 1611 l 277 1555 l 333 1555 l 333 1499 l 389 1499 l 389 1555 l 444 1555 l 444 1611 l 722 1611 l 722 1555 l 667 1555 l 667 1499 l 611 1499 l 611 1444 l 555 1444 l 555 1389 l 500 1389 l 500 1333 l 444 1333 l 444 1278 l 277 1278 z "},"Ǒ":{"ha":1055,"x_min":0,"x_max":944,"o":"m 500 333 l 500 389 l 555 389 l 555 500 l 611 500 l 611 888 l 555 888 l 555 1000 l 500 1000 l 500 1055 l 444 1055 l 444 1000 l 389 1000 l 389 888 l 333 888 l 333 389 l 389 389 l 389 333 l 500 333 m 277 0 l 277 55 l 166 55 l 166 111 l 111 111 l 111 166 l 55 166 l 55 277 l 0 277 l 0 944 l 55 944 l 55 1111 l 111 1111 l 111 1222 l 166 1222 l 166 1278 l 222 1278 l 222 1333 l 333 1333 l 333 1389 l 555 1389 l 555 1333 l 667 1333 l 667 1278 l 722 1278 l 722 1222 l 777 1222 l 777 1166 l 833 1166 l 833 1055 l 888 1055 l 888 944 l 944 944 l 944 444 l 888 444 l 888 333 l 833 333 l 833 222 l 777 222 l 777 166 l 722 166 l 722 111 l 667 111 l 667 55 l 555 55 l 555 0 l 277 0 m 389 1444 l 389 1499 l 333 1499 l 333 1555 l 277 1555 l 277 1611 l 222 1611 l 222 1666 l 166 1666 l 166 1722 l 111 1722 l 111 1777 l 389 1777 l 389 1722 l 444 1722 l 444 1666 l 500 1666 l 500 1722 l 555 1722 l 555 1777 l 833 1777 l 833 1722 l 777 1722 l 777 1666 l 722 1666 l 722 1611 l 667 1611 l 667 1555 l 611 1555 l 611 1499 l 555 1499 l 555 1444 l 389 1444 z "},"ǒ":{"ha":1000,"x_min":0,"x_max":888,"o":"m 500 333 l 500 389 l 555 389 l 555 500 l 611 500 l 611 667 l 555 667 l 555 777 l 500 777 l 500 833 l 444 833 l 444 777 l 389 777 l 389 667 l 333 667 l 333 389 l 389 389 l 389 333 l 500 333 m 277 0 l 277 55 l 166 55 l 166 111 l 111 111 l 111 166 l 55 166 l 55 277 l 0 277 l 0 777 l 55 777 l 55 888 l 111 888 l 111 1000 l 166 1000 l 166 1055 l 222 1055 l 222 1111 l 333 1111 l 333 1166 l 555 1166 l 555 1111 l 667 1111 l 667 1055 l 722 1055 l 722 1000 l 777 1000 l 777 944 l 833 944 l 833 833 l 888 833 l 888 333 l 833 333 l 833 222 l 777 222 l 777 166 l 722 166 l 722 111 l 667 111 l 667 55 l 555 55 l 555 0 l 277 0 m 389 1222 l 389 1278 l 333 1278 l 333 1333 l 277 1333 l 277 1389 l 222 1389 l 222 1444 l 166 1444 l 166 1499 l 111 1499 l 111 1555 l 389 1555 l 389 1499 l 444 1499 l 444 1444 l 500 1444 l 500 1499 l 555 1499 l 555 1555 l 833 1555 l 833 1499 l 777 1499 l 777 1444 l 722 1444 l 722 1389 l 667 1389 l 667 1333 l 611 1333 l 611 1278 l 555 1278 l 555 1222 l 389 1222 z "},"Ǔ":{"ha":1000,"x_min":0,"x_max":888,"o":"m 777 -111 l 777 -55 l 667 -55 l 667 0 l 555 0 l 555 111 l 611 111 l 611 166 l 555 166 l 555 111 l 500 111 l 500 55 l 389 55 l 389 0 l 277 0 l 277 -55 l 55 -55 l 55 0 l 0 0 l 0 1333 l 333 1333 l 333 333 l 389 333 l 389 389 l 500 389 l 500 444 l 555 444 l 555 1444 l 667 1444 l 667 1389 l 777 1389 l 777 1333 l 888 1333 l 888 -111 l 777 -111 m 333 1499 l 333 1555 l 277 1555 l 277 1611 l 222 1611 l 222 1666 l 166 1666 l 166 1722 l 111 1722 l 111 1777 l 55 1777 l 55 1833 l 333 1833 l 333 1777 l 389 1777 l 389 1722 l 444 1722 l 444 1777 l 500 1777 l 500 1833 l 777 1833 l 777 1777 l 722 1777 l 722 1722 l 667 1722 l 667 1666 l 611 1666 l 611 1611 l 555 1611 l 555 1555 l 500 1555 l 500 1499 l 333 1499 z "},"ǔ":{"ha":1000,"x_min":0,"x_max":888,"o":"m 777 -111 l 777 -55 l 667 -55 l 667 0 l 555 0 l 555 111 l 611 111 l 611 166 l 555 166 l 555 111 l 500 111 l 500 55 l 389 55 l 389 0 l 277 0 l 277 -55 l 55 -55 l 55 0 l 0 0 l 0 1111 l 333 1111 l 333 333 l 389 333 l 389 389 l 500 389 l 500 444 l 555 444 l 555 1222 l 667 1222 l 667 1166 l 777 1166 l 777 1111 l 888 1111 l 888 -111 l 777 -111 m 333 1278 l 333 1333 l 277 1333 l 277 1389 l 222 1389 l 222 1444 l 166 1444 l 166 1499 l 111 1499 l 111 1555 l 55 1555 l 55 1611 l 333 1611 l 333 1555 l 389 1555 l 389 1499 l 444 1499 l 444 1555 l 500 1555 l 500 1611 l 777 1611 l 777 1555 l 722 1555 l 722 1499 l 667 1499 l 667 1444 l 611 1444 l 611 1389 l 555 1389 l 555 1333 l 500 1333 l 500 1278 l 333 1278 z "},"Ǣ":{"ha":1444,"x_min":0,"x_max":1333,"o":"m 444 389 l 444 611 l 389 611 l 389 833 l 333 833 l 333 389 l 444 389 m 222 -111 l 222 -55 l 111 -55 l 111 0 l 0 0 l 0 1333 l 333 1333 l 333 1166 l 389 1166 l 389 1389 l 222 1389 l 222 1444 l 555 1444 l 555 1333 l 1333 1333 l 1333 1222 l 1278 1222 l 1278 1111 l 1222 1111 l 1222 1000 l 888 1000 l 888 777 l 1222 777 l 1222 500 l 888 500 l 888 277 l 1222 277 l 1222 0 l 555 0 l 555 111 l 333 111 l 333 -111 l 222 -111 m 444 1499 l 444 1611 l 500 1611 l 500 1722 l 555 1722 l 555 1833 l 1111 1833 l 1111 1722 l 1055 1722 l 1055 1611 l 1000 1611 l 1000 1499 l 444 1499 z "},"ǣ":{"ha":1333,"x_min":0,"x_max":1222,"o":"m 444 389 l 444 500 l 389 500 l 389 667 l 333 667 l 333 389 l 444 389 m 222 -111 l 222 -55 l 111 -55 l 111 0 l 0 0 l 0 1111 l 333 1111 l 333 944 l 389 944 l 389 1166 l 222 1166 l 222 1278 l 555 1278 l 555 1111 l 1222 1111 l 1222 1000 l 1166 1000 l 1166 888 l 1111 888 l 1111 777 l 833 777 l 833 667 l 1111 667 l 1111 389 l 833 389 l 833 277 l 1111 277 l 1111 0 l 500 0 l 500 111 l 333 111 l 333 -111 l 222 -111 m 389 1333 l 389 1444 l 444 1444 l 444 1555 l 500 1555 l 500 1666 l 1055 1666 l 1055 1555 l 1000 1555 l 1000 1444 l 944 1444 l 944 1333 l 389 1333 z "},"Ǧ":{"ha":1111,"x_min":0,"x_max":1000,"o":"m 333 0 l 333 55 l 222 55 l 222 111 l 166 111 l 166 166 l 111 166 l 111 277 l 55 277 l 55 444 l 0 444 l 0 777 l 55 777 l 55 888 l 111 888 l 111 1000 l 166 1000 l 166 1111 l 222 1111 l 222 1166 l 277 1166 l 277 1222 l 333 1222 l 333 1278 l 389 1278 l 389 1333 l 500 1333 l 500 1389 l 611 1389 l 611 1444 l 888 1444 l 888 1389 l 944 1389 l 944 888 l 667 888 l 667 1111 l 611 1111 l 611 1055 l 555 1055 l 555 1000 l 500 1000 l 500 944 l 444 944 l 444 833 l 389 833 l 389 722 l 333 722 l 333 500 l 389 500 l 389 389 l 444 389 l 444 333 l 667 333 l 667 389 l 722 389 l 722 500 l 500 500 l 500 777 l 1000 777 l 1000 277 l 944 277 l 944 166 l 888 166 l 888 111 l 833 111 l 833 55 l 722 55 l 722 0 l 333 0 m 555 1499 l 555 1555 l 500 1555 l 500 1611 l 444 1611 l 444 1666 l 389 1666 l 389 1722 l 333 1722 l 333 1777 l 277 1777 l 277 1833 l 555 1833 l 555 1777 l 611 1777 l 611 1722 l 667 1722 l 667 1777 l 722 1777 l 722 1833 l 1000 1833 l 1000 1777 l 944 1777 l 944 1722 l 888 1722 l 888 1666 l 833 1666 l 833 1611 l 777 1611 l 777 1555 l 722 1555 l 722 1499 l 555 1499 z "},"ǧ":{"ha":1055,"x_min":0,"x_max":944,"o":"m 277 0 l 277 55 l 166 55 l 166 111 l 111 111 l 111 166 l 55 166 l 55 277 l 0 277 l 0 667 l 55 667 l 55 777 l 111 777 l 111 888 l 166 888 l 166 944 l 222 944 l 222 1000 l 277 1000 l 277 1055 l 333 1055 l 333 1111 l 444 1111 l 444 1166 l 555 1166 l 555 1222 l 833 1222 l 833 1166 l 888 1166 l 888 833 l 611 833 l 611 888 l 555 888 l 555 833 l 500 833 l 500 777 l 444 777 l 444 722 l 389 722 l 389 611 l 333 611 l 333 389 l 389 389 l 389 333 l 611 333 l 611 389 l 667 389 l 667 444 l 500 444 l 500 722 l 944 722 l 944 277 l 888 277 l 888 166 l 833 166 l 833 111 l 777 111 l 777 55 l 667 55 l 667 0 l 277 0 m 500 1278 l 500 1333 l 444 1333 l 444 1389 l 389 1389 l 389 1444 l 333 1444 l 333 1499 l 277 1499 l 277 1555 l 222 1555 l 222 1611 l 500 1611 l 500 1555 l 555 1555 l 555 1499 l 611 1499 l 611 1555 l 667 1555 l 667 1611 l 944 1611 l 944 1555 l 888 1555 l 888 1499 l 833 1499 l 833 1444 l 777 1444 l 777 1389 l 722 1389 l 722 1333 l 667 1333 l 667 1278 l 500 1278 z "},"Ǩ":{"ha":1055,"x_min":0,"x_max":944,"o":"m 222 -111 l 222 -55 l 111 -55 l 111 0 l 0 0 l 0 1333 l 333 1333 l 333 888 l 277 888 l 277 777 l 333 777 l 333 888 l 389 888 l 389 1000 l 444 1000 l 444 1111 l 500 1111 l 500 1222 l 555 1222 l 555 1333 l 888 1333 l 888 1222 l 833 1222 l 833 1111 l 777 1111 l 777 1000 l 722 1000 l 722 888 l 667 888 l 667 777 l 611 777 l 611 667 l 555 667 l 555 555 l 611 555 l 611 500 l 667 500 l 667 444 l 722 444 l 722 389 l 777 389 l 777 333 l 833 333 l 833 277 l 888 277 l 888 222 l 944 222 l 944 166 l 888 166 l 888 111 l 833 111 l 833 55 l 777 55 l 777 0 l 667 0 l 667 55 l 611 55 l 611 111 l 555 111 l 555 166 l 500 166 l 500 222 l 444 222 l 444 277 l 389 277 l 389 333 l 333 333 l 333 389 l 277 389 l 277 333 l 333 333 l 333 -111 l 222 -111 m 333 1389 l 333 1444 l 277 1444 l 277 1499 l 222 1499 l 222 1555 l 166 1555 l 166 1611 l 111 1611 l 111 1666 l 55 1666 l 55 1722 l 333 1722 l 333 1666 l 389 1666 l 389 1611 l 444 1611 l 444 1666 l 500 1666 l 500 1722 l 777 1722 l 777 1666 l 722 1666 l 722 1611 l 667 1611 l 667 1555 l 611 1555 l 611 1499 l 555 1499 l 555 1444 l 500 1444 l 500 1389 l 333 1389 z "},"ǩ":{"ha":1000,"x_min":0,"x_max":888,"o":"m 222 -111 l 222 -55 l 111 -55 l 111 0 l 0 0 l 0 1111 l 333 1111 l 333 777 l 277 777 l 277 667 l 333 667 l 333 777 l 389 777 l 389 888 l 444 888 l 444 1000 l 500 1000 l 500 1111 l 833 1111 l 833 1000 l 777 1000 l 777 888 l 722 888 l 722 777 l 667 777 l 667 667 l 611 667 l 611 555 l 555 555 l 555 500 l 611 500 l 611 444 l 667 444 l 667 389 l 722 389 l 722 333 l 777 333 l 777 277 l 833 277 l 833 222 l 888 222 l 888 166 l 833 166 l 833 111 l 777 111 l 777 55 l 722 55 l 722 0 l 611 0 l 611 55 l 555 55 l 555 111 l 500 111 l 500 166 l 444 166 l 444 222 l 389 222 l 389 277 l 333 277 l 333 333 l 277 333 l 277 277 l 333 277 l 333 -111 l 222 -111 m 333 1166 l 333 1222 l 277 1222 l 277 1278 l 222 1278 l 222 1333 l 166 1333 l 166 1389 l 111 1389 l 111 1444 l 55 1444 l 55 1499 l 333 1499 l 333 1444 l 389 1444 l 389 1389 l 444 1389 l 444 1444 l 500 1444 l 500 1499 l 777 1499 l 777 1444 l 722 1444 l 722 1389 l 667 1389 l 667 1333 l 611 1333 l 611 1278 l 555 1278 l 555 1222 l 500 1222 l 500 1166 l 333 1166 z "},"Ǫ":{"ha":1055,"x_min":0,"x_max":944,"o":"m 500 333 l 500 389 l 555 389 l 555 500 l 611 500 l 611 888 l 555 888 l 555 1000 l 500 1000 l 500 1055 l 444 1055 l 444 1000 l 389 1000 l 389 888 l 333 888 l 333 389 l 389 389 l 389 333 l 500 333 m 389 -277 l 389 -166 l 333 -166 l 333 -55 l 277 -55 l 277 55 l 166 55 l 166 111 l 111 111 l 111 166 l 55 166 l 55 277 l 0 277 l 0 944 l 55 944 l 55 1111 l 111 1111 l 111 1222 l 166 1222 l 166 1278 l 222 1278 l 222 1333 l 333 1333 l 333 1389 l 555 1389 l 555 1333 l 667 1333 l 667 1278 l 722 1278 l 722 1222 l 777 1222 l 777 1166 l 833 1166 l 833 1055 l 888 1055 l 888 944 l 944 944 l 944 444 l 888 444 l 888 333 l 833 333 l 833 222 l 777 222 l 777 166 l 722 166 l 722 111 l 667 111 l 667 55 l 555 55 l 555 -55 l 611 -55 l 611 -166 l 667 -166 l 667 -277 l 389 -277 z "},"ǫ":{"ha":1000,"x_min":0,"x_max":888,"o":"m 500 333 l 500 389 l 555 389 l 555 500 l 611 500 l 611 667 l 555 667 l 555 777 l 500 777 l 500 833 l 444 833 l 444 777 l 389 777 l 389 667 l 333 667 l 333 389 l 389 389 l 389 333 l 500 333 m 389 -277 l 389 -166 l 333 -166 l 333 -55 l 277 -55 l 277 55 l 166 55 l 166 111 l 111 111 l 111 166 l 55 166 l 55 277 l 0 277 l 0 777 l 55 777 l 55 888 l 111 888 l 111 1000 l 166 1000 l 166 1055 l 222 1055 l 222 1111 l 333 1111 l 333 1166 l 555 1166 l 555 1111 l 667 1111 l 667 1055 l 722 1055 l 722 1000 l 777 1000 l 777 944 l 833 944 l 833 833 l 888 833 l 888 333 l 833 333 l 833 222 l 777 222 l 777 166 l 722 166 l 722 111 l 667 111 l 667 55 l 555 55 l 555 -55 l 611 -55 l 611 -166 l 667 -166 l 667 -277 l 389 -277 z "},"ǰ":{"ha":1111,"x_min":0,"x_max":1000,"o":"m 111 0 l 111 55 l 55 55 l 55 111 l 0 111 l 0 500 l 333 500 l 333 333 l 444 333 l 444 389 l 500 389 l 500 722 l 611 722 l 611 777 l 55 777 l 55 888 l 111 888 l 111 1000 l 166 1000 l 166 1111 l 1000 1111 l 1000 1000 l 944 1000 l 944 888 l 888 888 l 888 777 l 777 777 l 777 277 l 722 277 l 722 166 l 667 166 l 667 111 l 611 111 l 611 55 l 500 55 l 500 0 l 111 0 m 500 1166 l 500 1222 l 444 1222 l 444 1278 l 389 1278 l 389 1333 l 333 1333 l 333 1389 l 277 1389 l 277 1444 l 222 1444 l 222 1499 l 500 1499 l 500 1444 l 555 1444 l 555 1389 l 611 1389 l 611 1444 l 667 1444 l 667 1499 l 944 1499 l 944 1444 l 888 1444 l 888 1389 l 833 1389 l 833 1333 l 777 1333 l 777 1278 l 722 1278 l 722 1222 l 667 1222 l 667 1166 l 500 1166 z "},"Ǵ":{"ha":1111,"x_min":55,"x_max":1000,"o":"m 333 0 l 333 55 l 222 55 l 222 111 l 166 111 l 166 166 l 111 166 l 111 277 l 55 277 l 55 888 l 111 888 l 111 1000 l 166 1000 l 166 1111 l 222 1111 l 222 1166 l 277 1166 l 277 1222 l 333 1222 l 333 1278 l 389 1278 l 389 1333 l 500 1333 l 500 1389 l 611 1389 l 611 1444 l 888 1444 l 888 1389 l 944 1389 l 944 888 l 667 888 l 667 1111 l 611 1111 l 611 1055 l 555 1055 l 555 1000 l 500 1000 l 500 944 l 444 944 l 444 833 l 389 833 l 389 722 l 333 722 l 333 500 l 389 500 l 389 389 l 444 389 l 444 333 l 667 333 l 667 389 l 722 389 l 722 500 l 500 500 l 500 777 l 1000 777 l 1000 277 l 944 277 l 944 166 l 888 166 l 888 111 l 833 111 l 833 55 l 722 55 l 722 0 l 333 0 m 444 1499 l 444 1777 l 555 1777 l 555 1833 l 667 1833 l 667 1889 l 777 1889 l 777 1944 l 888 1944 l 888 1666 l 777 1666 l 777 1611 l 667 1611 l 667 1555 l 555 1555 l 555 1499 l 444 1499 z "},"ǵ":{"ha":1055,"x_min":0,"x_max":944,"o":"m 277 0 l 277 55 l 166 55 l 166 111 l 111 111 l 111 166 l 55 166 l 55 277 l 0 277 l 0 667 l 55 667 l 55 777 l 111 777 l 111 888 l 166 888 l 166 944 l 222 944 l 222 1000 l 277 1000 l 277 1055 l 333 1055 l 333 1111 l 444 1111 l 444 1166 l 555 1166 l 555 1222 l 833 1222 l 833 1166 l 888 1166 l 888 833 l 611 833 l 611 888 l 555 888 l 555 833 l 500 833 l 500 777 l 444 777 l 444 722 l 389 722 l 389 611 l 333 611 l 333 389 l 389 389 l 389 333 l 611 333 l 611 389 l 667 389 l 667 444 l 500 444 l 500 722 l 944 722 l 944 277 l 888 277 l 888 166 l 833 166 l 833 111 l 777 111 l 777 55 l 667 55 l 667 0 l 277 0 m 389 1278 l 389 1555 l 500 1555 l 500 1611 l 611 1611 l 611 1666 l 722 1666 l 722 1722 l 833 1722 l 833 1444 l 722 1444 l 722 1389 l 611 1389 l 611 1333 l 500 1333 l 500 1278 l 389 1278 z "},"Ǹ":{"ha":1055,"x_min":0,"x_max":944,"o":"m 222 -111 l 222 -55 l 111 -55 l 111 0 l 0 0 l 0 1333 l 333 1333 l 333 1222 l 389 1222 l 389 1111 l 444 1111 l 444 1000 l 500 1000 l 500 888 l 555 888 l 555 777 l 611 777 l 611 667 l 667 667 l 667 777 l 611 777 l 611 1444 l 722 1444 l 722 1389 l 833 1389 l 833 1333 l 944 1333 l 944 0 l 611 0 l 611 111 l 555 111 l 555 222 l 500 222 l 500 333 l 444 333 l 444 444 l 389 444 l 389 555 l 333 555 l 333 667 l 277 667 l 277 555 l 333 555 l 333 -111 l 222 -111 m 500 1499 l 500 1555 l 389 1555 l 389 1611 l 277 1611 l 277 1666 l 166 1666 l 166 1944 l 277 1944 l 277 1889 l 389 1889 l 389 1833 l 500 1833 l 500 1777 l 611 1777 l 611 1499 l 500 1499 z "},"ǹ":{"ha":944,"x_min":0,"x_max":833,"o":"m 222 -111 l 222 -55 l 111 -55 l 111 0 l 0 0 l 0 1111 l 333 1111 l 333 1000 l 389 1000 l 389 888 l 444 888 l 444 777 l 500 777 l 500 667 l 555 667 l 555 777 l 500 777 l 500 1222 l 611 1222 l 611 1166 l 722 1166 l 722 1111 l 833 1111 l 833 0 l 500 0 l 500 111 l 444 111 l 444 222 l 389 222 l 389 333 l 333 333 l 333 444 l 277 444 l 277 333 l 333 333 l 333 -111 l 222 -111 m 389 1278 l 389 1333 l 277 1333 l 277 1389 l 166 1389 l 166 1444 l 55 1444 l 55 1722 l 166 1722 l 166 1666 l 277 1666 l 277 1611 l 389 1611 l 389 1555 l 500 1555 l 500 1278 l 389 1278 z "},"Ǽ":{"ha":1444,"x_min":0,"x_max":1333,"o":"m 444 389 l 444 611 l 389 611 l 389 833 l 333 833 l 333 389 l 444 389 m 222 -111 l 222 -55 l 111 -55 l 111 0 l 0 0 l 0 1333 l 333 1333 l 333 1166 l 389 1166 l 389 1389 l 222 1389 l 222 1444 l 555 1444 l 555 1333 l 1333 1333 l 1333 1222 l 1278 1222 l 1278 1111 l 1222 1111 l 1222 1000 l 888 1000 l 888 777 l 1222 777 l 1222 500 l 888 500 l 888 277 l 1222 277 l 1222 0 l 555 0 l 555 111 l 333 111 l 333 -111 l 222 -111 m 444 1499 l 444 1777 l 555 1777 l 555 1833 l 667 1833 l 667 1889 l 777 1889 l 777 1944 l 888 1944 l 888 1666 l 777 1666 l 777 1611 l 667 1611 l 667 1555 l 555 1555 l 555 1499 l 444 1499 z "},"ǽ":{"ha":1333,"x_min":0,"x_max":1222,"o":"m 444 389 l 444 500 l 389 500 l 389 667 l 333 667 l 333 389 l 444 389 m 222 -111 l 222 -55 l 111 -55 l 111 0 l 0 0 l 0 1111 l 333 1111 l 333 944 l 389 944 l 389 1166 l 222 1166 l 222 1278 l 555 1278 l 555 1111 l 1222 1111 l 1222 1000 l 1166 1000 l 1166 888 l 1111 888 l 1111 777 l 833 777 l 833 667 l 1111 667 l 1111 389 l 833 389 l 833 277 l 1111 277 l 1111 0 l 500 0 l 500 111 l 333 111 l 333 -111 l 222 -111 m 444 1333 l 444 1611 l 555 1611 l 555 1666 l 667 1666 l 667 1722 l 777 1722 l 777 1777 l 888 1777 l 888 1499 l 777 1499 l 777 1444 l 667 1444 l 667 1389 l 555 1389 l 555 1333 l 444 1333 z "},"Ș":{"ha":1055,"x_min":0,"x_max":944,"o":"m 222 -277 l 222 -166 l 277 -166 l 277 -55 l 333 -55 l 333 0 l 166 0 l 166 55 l 0 55 l 0 166 l 55 166 l 55 277 l 111 277 l 111 389 l 277 389 l 277 333 l 611 333 l 611 389 l 555 389 l 555 444 l 389 444 l 389 500 l 277 500 l 277 555 l 166 555 l 166 611 l 111 611 l 111 667 l 55 667 l 55 722 l 0 722 l 0 1055 l 55 1055 l 55 1166 l 111 1166 l 111 1222 l 166 1222 l 166 1278 l 222 1278 l 222 1333 l 333 1333 l 333 1389 l 444 1389 l 444 1444 l 777 1444 l 777 1389 l 833 1389 l 833 1333 l 888 1333 l 888 888 l 555 888 l 555 1111 l 500 1111 l 500 1055 l 444 1055 l 444 1000 l 389 1000 l 389 944 l 333 944 l 333 833 l 389 833 l 389 777 l 500 777 l 500 722 l 722 722 l 722 667 l 833 667 l 833 611 l 888 611 l 888 555 l 944 555 l 944 277 l 888 277 l 888 166 l 833 166 l 833 111 l 777 111 l 777 55 l 667 55 l 667 0 l 611 0 l 611 -55 l 555 -55 l 555 -166 l 500 -166 l 500 -277 l 222 -277 z "},"ș":{"ha":1000,"x_min":0,"x_max":888,"o":"m 166 -277 l 166 -166 l 222 -166 l 222 -55 l 277 -55 l 277 0 l 55 0 l 55 277 l 555 277 l 555 333 l 444 333 l 444 389 l 277 389 l 277 444 l 166 444 l 166 500 l 111 500 l 111 555 l 55 555 l 55 667 l 0 667 l 0 888 l 55 888 l 55 1000 l 111 1000 l 111 1055 l 166 1055 l 166 1111 l 277 1111 l 277 1166 l 389 1166 l 389 1222 l 722 1222 l 722 1166 l 777 1166 l 777 1111 l 833 1111 l 833 777 l 500 777 l 500 888 l 444 888 l 444 833 l 389 833 l 389 777 l 333 777 l 333 722 l 389 722 l 389 667 l 500 667 l 500 611 l 667 611 l 667 555 l 777 555 l 777 500 l 833 500 l 833 444 l 888 444 l 888 222 l 833 222 l 833 111 l 777 111 l 777 55 l 667 55 l 667 0 l 555 0 l 555 -55 l 500 -55 l 500 -166 l 444 -166 l 444 -277 l 166 -277 z "},"Ț":{"ha":1111,"x_min":0,"x_max":1000,"o":"m 277 -277 l 277 -166 l 333 -166 l 333 -55 l 389 -55 l 389 0 l 333 0 l 333 944 l 444 944 l 444 1000 l 0 1000 l 0 1111 l 55 1111 l 55 1222 l 111 1222 l 111 1333 l 1000 1333 l 1000 1222 l 944 1222 l 944 1111 l 888 1111 l 888 1000 l 667 1000 l 667 -55 l 611 -55 l 611 -166 l 555 -166 l 555 -277 l 277 -277 z "},"ț":{"ha":1111,"x_min":0,"x_max":1000,"o":"m 277 -277 l 277 -166 l 333 -166 l 333 -55 l 389 -55 l 389 0 l 333 0 l 333 722 l 444 722 l 444 777 l 0 777 l 0 888 l 55 888 l 55 1000 l 111 1000 l 111 1111 l 1000 1111 l 1000 1000 l 944 1000 l 944 888 l 888 888 l 888 777 l 667 777 l 667 -55 l 611 -55 l 611 -166 l 555 -166 l 555 -277 l 277 -277 z "},"Ȟ":{"ha":1000,"x_min":0,"x_max":888,"o":"m 222 -111 l 222 -55 l 111 -55 l 111 0 l 0 0 l 0 1444 l 111 1444 l 111 1389 l 222 1389 l 222 1333 l 333 1333 l 333 722 l 444 722 l 444 777 l 555 777 l 555 1444 l 667 1444 l 667 1389 l 777 1389 l 777 1333 l 888 1333 l 888 -111 l 777 -111 l 777 -55 l 667 -55 l 667 0 l 555 0 l 555 444 l 444 444 l 444 389 l 333 389 l 333 -111 l 222 -111 m 333 1499 l 333 1555 l 277 1555 l 277 1611 l 222 1611 l 222 1666 l 166 1666 l 166 1722 l 111 1722 l 111 1777 l 55 1777 l 55 1833 l 333 1833 l 333 1777 l 389 1777 l 389 1722 l 444 1722 l 444 1777 l 500 1777 l 500 1833 l 777 1833 l 777 1777 l 722 1777 l 722 1722 l 667 1722 l 667 1666 l 611 1666 l 611 1611 l 555 1611 l 555 1555 l 500 1555 l 500 1499 l 333 1499 z "},"ȟ":{"ha":1000,"x_min":0,"x_max":888,"o":"m 222 -111 l 222 -55 l 111 -55 l 111 0 l 0 0 l 0 1222 l 111 1222 l 111 1166 l 222 1166 l 222 1111 l 333 1111 l 333 611 l 444 611 l 444 667 l 555 667 l 555 1222 l 667 1222 l 667 1166 l 777 1166 l 777 1111 l 888 1111 l 888 -111 l 777 -111 l 777 -55 l 667 -55 l 667 0 l 555 0 l 555 333 l 611 333 l 611 389 l 555 389 l 555 333 l 444 333 l 444 277 l 333 277 l 333 -111 l 222 -111 m 333 1278 l 333 1333 l 277 1333 l 277 1389 l 222 1389 l 222 1444 l 166 1444 l 166 1499 l 111 1499 l 111 1555 l 55 1555 l 55 1611 l 333 1611 l 333 1555 l 389 1555 l 389 1499 l 444 1499 l 444 1555 l 500 1555 l 500 1611 l 777 1611 l 777 1555 l 722 1555 l 722 1499 l 667 1499 l 667 1444 l 611 1444 l 611 1389 l 555 1389 l 555 1333 l 500 1333 l 500 1278 l 333 1278 z "},"Ȧ":{"ha":1000,"x_min":0,"x_max":888,"o":"m 444 389 l 444 611 l 389 611 l 389 833 l 333 833 l 333 389 l 444 389 m 222 -111 l 222 -55 l 111 -55 l 111 0 l 0 0 l 0 1333 l 333 1333 l 333 1166 l 389 1166 l 389 1389 l 222 1389 l 222 1444 l 555 1444 l 555 1333 l 611 1333 l 611 1111 l 667 1111 l 667 888 l 722 888 l 722 667 l 777 667 l 777 444 l 833 444 l 833 222 l 888 222 l 888 0 l 555 0 l 555 111 l 333 111 l 333 -111 l 222 -111 m 389 1499 l 389 1555 l 277 1555 l 277 1611 l 166 1611 l 166 1944 l 277 1944 l 277 1889 l 389 1889 l 389 1833 l 500 1833 l 500 1499 l 389 1499 z "},"ȧ":{"ha":944,"x_min":0,"x_max":833,"o":"m 444 389 l 444 500 l 389 500 l 389 667 l 333 667 l 333 389 l 444 389 m 222 -111 l 222 -55 l 111 -55 l 111 0 l 0 0 l 0 1111 l 333 1111 l 333 944 l 389 944 l 389 1166 l 222 1166 l 222 1278 l 555 1278 l 555 1111 l 611 1111 l 611 888 l 667 888 l 667 667 l 722 667 l 722 444 l 777 444 l 777 222 l 833 222 l 833 0 l 555 0 l 555 111 l 333 111 l 333 -111 l 222 -111 m 389 1333 l 389 1389 l 277 1389 l 277 1444 l 166 1444 l 166 1777 l 277 1777 l 277 1722 l 389 1722 l 389 1666 l 500 1666 l 500 1333 l 389 1333 z "},"Ȩ":{"ha":1111,"x_min":0,"x_max":1000,"o":"m 277 -277 l 277 -166 l 333 -166 l 333 -55 l 389 -55 l 389 0 l 111 0 l 111 944 l 222 944 l 222 1000 l 0 1000 l 0 1111 l 55 1111 l 55 1222 l 111 1222 l 111 1333 l 1000 1333 l 1000 1222 l 944 1222 l 944 1111 l 888 1111 l 888 1000 l 444 1000 l 444 777 l 888 777 l 888 500 l 444 500 l 444 277 l 888 277 l 888 0 l 667 0 l 667 -55 l 611 -55 l 611 -166 l 555 -166 l 555 -277 l 277 -277 z "},"ȩ":{"ha":1055,"x_min":0,"x_max":944,"o":"m 277 -277 l 277 -166 l 333 -166 l 333 -55 l 389 -55 l 389 0 l 111 0 l 111 722 l 222 722 l 222 777 l 0 777 l 0 888 l 55 888 l 55 1000 l 111 1000 l 111 1111 l 944 1111 l 944 1000 l 888 1000 l 888 888 l 833 888 l 833 777 l 444 777 l 444 667 l 833 667 l 833 389 l 444 389 l 444 277 l 833 277 l 833 0 l 667 0 l 667 -55 l 611 -55 l 611 -166 l 555 -166 l 555 -277 l 277 -277 z "},"Ȯ":{"ha":1055,"x_min":0,"x_max":944,"o":"m 500 333 l 500 389 l 555 389 l 555 500 l 611 500 l 611 888 l 555 888 l 555 1000 l 500 1000 l 500 1055 l 444 1055 l 444 1000 l 389 1000 l 389 888 l 333 888 l 333 389 l 389 389 l 389 333 l 500 333 m 277 0 l 277 55 l 166 55 l 166 111 l 111 111 l 111 166 l 55 166 l 55 277 l 0 277 l 0 944 l 55 944 l 55 1111 l 111 1111 l 111 1222 l 166 1222 l 166 1278 l 222 1278 l 222 1333 l 333 1333 l 333 1389 l 555 1389 l 555 1333 l 667 1333 l 667 1278 l 722 1278 l 722 1222 l 777 1222 l 777 1166 l 833 1166 l 833 1055 l 888 1055 l 888 944 l 944 944 l 944 444 l 888 444 l 888 333 l 833 333 l 833 222 l 777 222 l 777 166 l 722 166 l 722 111 l 667 111 l 667 55 l 555 55 l 555 0 l 277 0 m 500 1444 l 500 1499 l 389 1499 l 389 1555 l 277 1555 l 277 1889 l 389 1889 l 389 1833 l 500 1833 l 500 1777 l 611 1777 l 611 1444 l 500 1444 z "},"ȯ":{"ha":1000,"x_min":0,"x_max":888,"o":"m 500 333 l 500 389 l 555 389 l 555 500 l 611 500 l 611 667 l 555 667 l 555 777 l 500 777 l 500 833 l 444 833 l 444 777 l 389 777 l 389 667 l 333 667 l 333 389 l 389 389 l 389 333 l 500 333 m 277 0 l 277 55 l 166 55 l 166 111 l 111 111 l 111 166 l 55 166 l 55 277 l 0 277 l 0 777 l 55 777 l 55 888 l 111 888 l 111 1000 l 166 1000 l 166 1055 l 222 1055 l 222 1111 l 333 1111 l 333 1166 l 555 1166 l 555 1111 l 667 1111 l 667 1055 l 722 1055 l 722 1000 l 777 1000 l 777 944 l 833 944 l 833 833 l 888 833 l 888 333 l 833 333 l 833 222 l 777 222 l 777 166 l 722 166 l 722 111 l 667 111 l 667 55 l 555 55 l 555 0 l 277 0 m 500 1222 l 500 1278 l 389 1278 l 389 1333 l 277 1333 l 277 1666 l 389 1666 l 389 1611 l 500 1611 l 500 1555 l 611 1555 l 611 1222 l 500 1222 z "},"Ȳ":{"ha":1166,"x_min":0,"x_max":1055,"o":"m 55 0 l 55 111 l 111 111 l 111 222 l 166 222 l 166 333 l 222 333 l 222 444 l 277 444 l 277 555 l 333 555 l 333 722 l 277 722 l 277 833 l 222 833 l 222 944 l 166 944 l 166 1055 l 111 1055 l 111 1166 l 55 1166 l 55 1278 l 0 1278 l 0 1333 l 111 1333 l 111 1389 l 222 1389 l 222 1444 l 333 1444 l 333 1333 l 389 1333 l 389 1222 l 444 1222 l 444 1111 l 500 1111 l 500 1000 l 555 1000 l 555 888 l 611 888 l 611 1000 l 555 1000 l 555 1111 l 611 1111 l 611 1222 l 667 1222 l 667 1333 l 722 1333 l 722 1389 l 1055 1389 l 1055 1278 l 1000 1278 l 1000 1166 l 944 1166 l 944 1055 l 888 1055 l 888 944 l 833 944 l 833 833 l 777 833 l 777 722 l 722 722 l 722 611 l 667 611 l 667 500 l 611 500 l 611 389 l 555 389 l 555 277 l 500 277 l 500 166 l 444 166 l 444 55 l 389 55 l 389 0 l 55 0 m 222 1499 l 222 1611 l 277 1611 l 277 1722 l 333 1722 l 333 1833 l 888 1833 l 888 1722 l 833 1722 l 833 1611 l 777 1611 l 777 1499 l 222 1499 z "},"ȳ":{"ha":1055,"x_min":0,"x_max":944,"o":"m 55 0 l 55 111 l 111 111 l 111 222 l 166 222 l 166 333 l 222 333 l 222 444 l 277 444 l 277 611 l 222 611 l 222 722 l 166 722 l 166 833 l 111 833 l 111 944 l 55 944 l 55 1055 l 0 1055 l 0 1111 l 111 1111 l 111 1166 l 222 1166 l 222 1222 l 333 1222 l 333 1111 l 389 1111 l 389 1000 l 444 1000 l 444 888 l 500 888 l 500 777 l 555 777 l 555 888 l 500 888 l 500 1000 l 555 1000 l 555 1111 l 611 1111 l 611 1166 l 944 1166 l 944 1055 l 888 1055 l 888 944 l 833 944 l 833 833 l 777 833 l 777 722 l 722 722 l 722 611 l 667 611 l 667 500 l 611 500 l 611 389 l 555 389 l 555 277 l 500 277 l 500 166 l 444 166 l 444 55 l 389 55 l 389 0 l 55 0 m 166 1278 l 166 1389 l 222 1389 l 222 1499 l 277 1499 l 277 1611 l 833 1611 l 833 1499 l 777 1499 l 777 1389 l 722 1389 l 722 1278 l 166 1278 z "},"ȷ":{"ha":1111,"x_min":0,"x_max":1000,"o":"m 111 0 l 111 55 l 55 55 l 55 111 l 0 111 l 0 500 l 333 500 l 333 333 l 444 333 l 444 389 l 500 389 l 500 722 l 611 722 l 611 777 l 55 777 l 55 888 l 111 888 l 111 1000 l 166 1000 l 166 1111 l 1000 1111 l 1000 1000 l 944 1000 l 944 888 l 888 888 l 888 777 l 777 777 l 777 277 l 722 277 l 722 166 l 667 166 l 667 111 l 611 111 l 611 55 l 500 55 l 500 0 l 111 0 z "},"Ƚ":{"ha":1111,"x_min":0,"x_max":1000,"o":"m 222 0 l 222 500 l 333 500 l 333 555 l 0 555 l 0 667 l 55 667 l 55 777 l 111 777 l 111 888 l 222 888 l 222 1444 l 333 1444 l 333 1389 l 444 1389 l 444 1333 l 555 1333 l 555 888 l 888 888 l 888 777 l 833 777 l 833 667 l 777 667 l 777 555 l 555 555 l 555 277 l 1000 277 l 1000 0 l 222 0 z "}}}
